G04*
G04 #@! TF.GenerationSoftware,Altium Limited,Altium Designer,24.2.2 (26)*
G04*
G04 Layer_Physical_Order=1*
G04 Layer_Color=255*
%FSLAX44Y44*%
%MOMM*%
G71*
G04*
G04 #@! TF.SameCoordinates,6AE4F847-9EFA-45B8-A2EA-998FC1DA7BFA*
G04*
G04*
G04 #@! TF.FilePolarity,Positive*
G04*
G01*
G75*
%ADD10C,0.2540*%
%ADD14C,0.5080*%
%ADD15C,1.0160*%
%ADD16C,1.5748*%
G04:AMPARAMS|DCode=17|XSize=1.5748mm|YSize=1.5748mm|CornerRadius=0mm|HoleSize=0mm|Usage=FLASHONLY|Rotation=0.000|XOffset=0mm|YOffset=0mm|HoleType=Round|Shape=Octagon|*
%AMOCTAGOND17*
4,1,8,0.7874,-0.3937,0.7874,0.3937,0.3937,0.7874,-0.3937,0.7874,-0.7874,0.3937,-0.7874,-0.3937,-0.3937,-0.7874,0.3937,-0.7874,0.7874,-0.3937,0.0*
%
%ADD17OCTAGOND17*%

%ADD18C,2.0320*%
%ADD19C,1.8288*%
%ADD20C,5.7150*%
%ADD21C,1.2700*%
D10*
X549910Y500126D02*
X561340Y511556D01*
X705612Y500126D02*
X708660Y497078D01*
X662940Y485648D02*
X691134D01*
X599440D02*
X662940D01*
X1399540Y264668D02*
Y637540D01*
X1376680Y241808D02*
X1399540Y264668D01*
X1301750Y241808D02*
X1376680D01*
X1297178Y246380D02*
X1301750Y241808D01*
X967232Y246380D02*
X1297178D01*
X955040Y234188D02*
X967232Y246380D01*
X847344Y234188D02*
X955040D01*
X812800Y268732D02*
X847344Y234188D01*
X578866Y268732D02*
X812800D01*
X546100Y235966D02*
X578866Y268732D01*
X676910Y460756D02*
X690880Y446786D01*
X578104Y460756D02*
X676910D01*
X561340Y477520D02*
X578104Y460756D01*
X561340Y477520D02*
Y511556D01*
X571500Y521716D01*
X220472Y317754D02*
X253746Y284480D01*
X475742D01*
X495300Y304038D01*
X919988Y376174D02*
X967740Y328422D01*
X910336Y376174D02*
X919988D01*
X810260Y476250D02*
X910336Y376174D01*
X821182Y542036D02*
X838708Y524510D01*
X709930Y542036D02*
X821182D01*
X681736Y570230D02*
X709930Y542036D01*
X401320Y570230D02*
X681736D01*
X393446Y578104D02*
X401320Y570230D01*
X373888Y578104D02*
X393446D01*
X314960Y519176D02*
X373888Y578104D01*
X269748Y519176D02*
X314960D01*
X264668Y514096D02*
X269748Y519176D01*
X264668Y399542D02*
Y514096D01*
X254000Y388874D02*
X264668Y399542D01*
X191008Y388874D02*
X254000D01*
X172974Y370840D02*
X191008Y388874D01*
X172974Y142748D02*
Y370840D01*
Y142748D02*
X182372Y133350D01*
X229000D01*
X643636Y633476D02*
X660400Y650240D01*
X526288Y633476D02*
X643636D01*
X922020Y662940D02*
X943102Y641858D01*
X679704Y662940D02*
X922020D01*
X672084Y670560D02*
X679704Y662940D01*
X672084Y670560D02*
Y680720D01*
X665480Y687324D02*
X672084Y680720D01*
X646684Y687324D02*
X665480D01*
X635000Y675640D02*
X646684Y687324D01*
X779500Y115600D02*
X800866Y94234D01*
X1297178D01*
X1320038Y117094D01*
Y213360D01*
X721106Y419608D02*
X761492Y459994D01*
Y492760D01*
X757174Y497078D02*
X761492Y492760D01*
X708660Y497078D02*
X757174D01*
X953770Y635000D02*
Y670052D01*
X950468Y631698D02*
X953770Y635000D01*
X674878Y631698D02*
X950468D01*
X672084Y634492D02*
X674878Y631698D01*
X672084Y634492D02*
Y655320D01*
X665480Y661924D02*
X672084Y655320D01*
X570484Y661924D02*
X665480D01*
X558800Y650240D02*
X570484Y661924D01*
X496824Y274574D02*
X514350Y292100D01*
X435102Y274574D02*
X496824D01*
X399796Y239268D02*
X435102Y274574D01*
X230378Y239268D02*
X399796D01*
X217678Y226568D02*
X230378Y239268D01*
X630428Y444246D02*
X740410Y334264D01*
X774700D01*
X637540Y525780D02*
X694494D01*
X718116Y502158D01*
X769874D01*
X774700Y497332D01*
X439928Y656336D02*
X445516Y661924D01*
X547116D01*
X558800Y650240D01*
X784289Y144509D02*
X967503D01*
X989838Y122174D01*
X1213358D01*
X1291336Y200152D01*
X812800Y249682D02*
X837184Y225298D01*
X952246D01*
X956564Y220980D01*
X1196340D01*
X1211580Y205740D01*
X538480Y387858D02*
X571500D01*
X525780Y400558D02*
X538480Y387858D01*
X525780Y400558D02*
Y419608D01*
X549910Y443738D01*
Y500126D01*
X548640Y419608D02*
X583438Y454406D01*
X660654D01*
X678434Y436626D01*
X701040D01*
X751332Y486918D01*
X543052Y525272D02*
X551942Y534162D01*
X575056D01*
X581660Y540766D01*
X609854D01*
X589280Y506222D02*
X666242D01*
X571500Y488442D02*
X589280Y506222D01*
X691134Y485648D02*
X702564Y497078D01*
X1027139Y277622D02*
X1079500D01*
X1002501Y302260D02*
X1027139Y277622D01*
X886460Y302260D02*
X1002501D01*
X868680Y284480D02*
X886460Y302260D01*
X832612Y284480D02*
X868680D01*
X823214Y293878D02*
X832612Y284480D01*
X881126Y326390D02*
X900176Y345440D01*
X883666D02*
X900176D01*
X823214Y405892D02*
X883666Y345440D01*
X823214Y405892D02*
Y434340D01*
X923290Y260350D02*
X955040Y292100D01*
X923290Y245110D02*
Y260350D01*
X1385570Y623570D02*
X1399540Y637540D01*
X1210310Y623570D02*
X1385570D01*
X1183640Y650240D02*
X1210310Y623570D01*
X736600Y675640D02*
X762000D01*
D14*
X416560Y125476D02*
X670804D01*
X696976Y151648D01*
X743702D01*
X762000Y133350D01*
X906145Y322199D02*
X912114Y328168D01*
Y363728D01*
X1234694D02*
X1276858D01*
X1339342Y301244D01*
X1363980D01*
X1105154Y363728D02*
X1142746D01*
X1155700Y350774D01*
X1221740D01*
X1234694Y363728D01*
X121666Y504952D02*
X201168Y584454D01*
X685986D01*
X716212Y554228D01*
X838708D01*
X905256Y487680D01*
X1194054D01*
X1224280Y457454D01*
X1348486D01*
X1363980Y441960D01*
Y381000D02*
X1376934Y368046D01*
Y254000D02*
Y368046D01*
X1371600Y248666D02*
X1376934Y254000D01*
X1319784Y248666D02*
X1371600D01*
X1270762Y297688D02*
X1319784Y248666D01*
X1215136Y297688D02*
X1270762D01*
X1211072Y301752D02*
X1215136Y297688D01*
X1093216Y301752D02*
X1211072D01*
X1083818Y292354D02*
X1093216Y301752D01*
X1025119Y292354D02*
X1083818D01*
X1008863Y308610D02*
X1025119Y292354D01*
X521723Y308610D02*
X1008863D01*
X514350Y315983D02*
X521723Y308610D01*
X429521Y315983D02*
X514350D01*
X411480Y297942D02*
X429521Y315983D01*
X354584Y297942D02*
X411480D01*
X312928Y339598D02*
X354584Y297942D01*
X312928Y339598D02*
Y363728D01*
X1342644Y228346D02*
X1363980Y207010D01*
X1216660Y228346D02*
X1342644D01*
X1208786Y236220D02*
X1216660Y228346D01*
X179324Y357378D02*
X185674Y363728D01*
X179324Y185166D02*
Y357378D01*
Y185166D02*
X186436Y178054D01*
X484378D01*
X527812Y134620D01*
X662686D01*
X687334Y159268D01*
X757004D01*
X758275Y157997D01*
X995426Y381000D02*
X1338580D01*
X978154Y363728D02*
X995426Y381000D01*
X288290Y483616D02*
X312166Y507492D01*
X288290Y388366D02*
Y483616D01*
Y388366D02*
X312928Y363728D01*
D15*
X384048Y567944D02*
X413512Y538480D01*
X433832D01*
X450208Y554856D01*
X683197D01*
X724720Y513334D01*
X799953D01*
X970493Y342793D01*
X1143361D01*
X1145540Y340614D01*
X1284986D01*
X1363980Y261620D01*
X369697Y617601D02*
X375666Y611632D01*
X312166Y614172D02*
X369697Y617601D01*
X127000Y650240D02*
X142494Y634746D01*
X301752D01*
X317246Y650240D01*
X332740Y665734D01*
X383540D01*
X429768Y619506D01*
X962628D01*
X980440Y637318D01*
Y650240D01*
X1131570Y676910D02*
X1158240Y650240D01*
X1007110Y676910D02*
X1131570D01*
X980440Y650240D02*
X1007110Y676910D01*
X1324102Y596138D02*
X1361440Y558800D01*
X1148291Y596138D02*
X1324102D01*
X1137272Y607157D02*
X1148291Y596138D01*
X1082370Y607157D02*
X1137272D01*
X1071351Y596138D02*
X1082370Y607157D01*
X968248Y596138D02*
X1071351D01*
X962152Y602234D02*
X968248Y596138D01*
X738886Y602234D02*
X962152D01*
X731266Y594614D02*
X738886Y602234D01*
X202184Y594614D02*
X731266D01*
X185166Y611632D02*
X202184Y594614D01*
X1112520Y132080D02*
X1186180Y205740D01*
X1023620Y132080D02*
X1112520D01*
X939800Y215900D02*
X1023620Y132080D01*
X927100Y215900D02*
X939800D01*
X889000Y177800D02*
X927100Y215900D01*
X482600Y675640D02*
X503174Y696214D01*
X675894D01*
X680974Y691134D01*
X1295146D01*
X1348740Y637540D01*
X629920Y177800D02*
X889000D01*
X625602Y182118D02*
X629920Y177800D01*
X552450Y182118D02*
X625602D01*
X489204Y245364D02*
X552450Y182118D01*
X438658Y245364D02*
X489204D01*
X388620Y195326D02*
X438658Y245364D01*
X1340866Y520954D02*
X1361440Y500380D01*
X1168400Y520954D02*
X1340866D01*
X1096264Y593090D02*
X1168400Y520954D01*
X223520Y195326D02*
X388620D01*
X192278Y226568D02*
X223520Y195326D01*
X1168146Y611632D02*
X1233932D01*
X121666D02*
X185166D01*
X977646D02*
X1041146D01*
D16*
X787400Y586740D02*
D03*
X457200Y675640D02*
D03*
X1310640Y558800D02*
D03*
X1234694Y470408D02*
D03*
X1168654D02*
D03*
X1041654D02*
D03*
X978154D02*
D03*
X812800Y586740D02*
D03*
X1236980Y205740D02*
D03*
X939800Y177800D02*
D03*
X376174Y470408D02*
D03*
X312928D02*
D03*
X185674D02*
D03*
X122174D02*
D03*
X243078Y226568D02*
D03*
X439420Y195326D02*
D03*
X1234440Y650240D02*
D03*
X1031240D02*
D03*
X368046D02*
D03*
X177800D02*
D03*
X482600D02*
D03*
X914400Y177800D02*
D03*
X889000D02*
D03*
X217678Y226568D02*
D03*
X192278D02*
D03*
X127000Y650240D02*
D03*
X152400D02*
D03*
X980440D02*
D03*
X1005840D02*
D03*
X1209040D02*
D03*
X1158240D02*
D03*
X1183640D02*
D03*
X317246D02*
D03*
X342646D02*
D03*
X1186180Y205740D02*
D03*
X1211580D02*
D03*
X388620Y195326D02*
D03*
X414020D02*
D03*
X1363980Y261620D02*
D03*
X1338580D02*
D03*
X1363980Y322580D02*
D03*
X1338580D02*
D03*
X1363980Y207010D02*
D03*
X1338580D02*
D03*
X1363980Y441960D02*
D03*
X1338580D02*
D03*
X1363980Y381000D02*
D03*
X1338580D02*
D03*
X1361440Y500380D02*
D03*
X1310640D02*
D03*
X1336040D02*
D03*
X1361440Y558800D02*
D03*
X1336040D02*
D03*
X1041146Y504952D02*
D03*
X1041400Y543560D02*
D03*
X1041146Y611632D02*
D03*
X1168146D02*
D03*
Y504952D02*
D03*
X1168400Y543560D02*
D03*
X1234694Y363728D02*
D03*
X1234440Y431800D02*
D03*
X762000Y675640D02*
D03*
X736600D02*
D03*
X533400D02*
D03*
X838200D02*
D03*
X533400Y650240D02*
D03*
X508000Y675640D02*
D03*
Y650240D02*
D03*
X863600D02*
D03*
Y675640D02*
D03*
X482600D02*
D03*
X558800D02*
D03*
X584200D02*
D03*
X609600D02*
D03*
X635000D02*
D03*
X660400D02*
D03*
X685800D02*
D03*
X711200D02*
D03*
X787400D02*
D03*
X812800D02*
D03*
X558800Y650240D02*
D03*
X584200D02*
D03*
X609600D02*
D03*
X635000D02*
D03*
X660400D02*
D03*
X685800D02*
D03*
X711200D02*
D03*
X736600D02*
D03*
X762000D02*
D03*
X787400D02*
D03*
X812800D02*
D03*
X838200D02*
D03*
X1104900Y431800D02*
D03*
X1105154Y363728D02*
D03*
Y470408D02*
D03*
X911860Y431800D02*
D03*
X912114Y363728D02*
D03*
Y470408D02*
D03*
X312928Y363728D02*
D03*
X312674Y431800D02*
D03*
X121666Y504952D02*
D03*
Y611632D02*
D03*
X121920Y543560D02*
D03*
X185166Y611632D02*
D03*
X185420Y543560D02*
D03*
X185166Y504952D02*
D03*
X248920Y431800D02*
D03*
X249174Y470408D02*
D03*
Y363728D02*
D03*
X439420Y431800D02*
D03*
X439674Y470408D02*
D03*
Y363728D02*
D03*
X312166Y614172D02*
D03*
X312420Y546100D02*
D03*
X312166Y507492D02*
D03*
X977646Y504952D02*
D03*
Y611632D02*
D03*
X977900Y543560D02*
D03*
Y431800D02*
D03*
X978154Y363728D02*
D03*
X375666Y611632D02*
D03*
X375920Y543560D02*
D03*
X375666Y504952D02*
D03*
X375920Y431800D02*
D03*
X376174Y363728D02*
D03*
X185420Y431800D02*
D03*
X185674Y363728D02*
D03*
X121920Y431800D02*
D03*
X122174Y363728D02*
D03*
X1041400Y431800D02*
D03*
X1041654Y363728D02*
D03*
X1234186Y543560D02*
D03*
X1233932Y504952D02*
D03*
Y611632D02*
D03*
X1168400Y431800D02*
D03*
X1168654Y363728D02*
D03*
D17*
X457200Y650240D02*
D03*
D18*
X254000Y108350D02*
D03*
X1374140Y637540D02*
D03*
X1270000Y108350D02*
D03*
X254000Y158350D02*
D03*
X279000Y133350D02*
D03*
X229000D02*
D03*
X254000D02*
D03*
X1348740Y637540D02*
D03*
X1424940D02*
D03*
Y662940D02*
D03*
X1348740D02*
D03*
X1374140D02*
D03*
X1399540D02*
D03*
Y637540D02*
D03*
X762000Y133350D02*
D03*
X750527Y111222D02*
D03*
X779500Y115600D02*
D03*
X784289Y144509D02*
D03*
X1270000Y133350D02*
D03*
X1295000D02*
D03*
X1245000D02*
D03*
X1270000Y158350D02*
D03*
D19*
X737409Y137424D02*
D03*
X758275Y157997D02*
D03*
D20*
X1452118Y158750D02*
D03*
Y482600D02*
D03*
X72898D02*
D03*
Y158750D02*
D03*
D21*
X858520Y398780D02*
D03*
X299847Y445335D02*
D03*
X429895Y554301D02*
D03*
X1089787Y510213D02*
D03*
X546100Y235966D02*
D03*
X416560Y125476D02*
D03*
X906145Y322199D02*
D03*
X1363980Y301244D02*
D03*
X690880Y446786D02*
D03*
X571500Y521716D02*
D03*
X220472Y317754D02*
D03*
X495300Y304038D02*
D03*
X967740Y328422D02*
D03*
X810260Y476250D02*
D03*
X384048Y567944D02*
D03*
X838708Y524510D02*
D03*
X526288Y633476D02*
D03*
X943102Y641858D02*
D03*
X1320038Y213360D02*
D03*
X721106Y419608D02*
D03*
X705612Y500126D02*
D03*
X953770Y670052D02*
D03*
X118364Y274066D02*
D03*
X764540Y76200D02*
D03*
X839470Y71120D02*
D03*
X866140Y22860D02*
D03*
X514350Y292100D02*
D03*
X630428Y444246D02*
D03*
X774700Y334264D02*
D03*
X637540Y525780D02*
D03*
X774700Y497332D02*
D03*
X439928Y656336D02*
D03*
X490220Y144780D02*
D03*
X1208786Y236220D02*
D03*
X1291336Y200152D02*
D03*
X812800Y249682D02*
D03*
X972820Y231140D02*
D03*
X535940Y408686D02*
D03*
X571500Y387858D02*
D03*
X548640Y419608D02*
D03*
X751332Y486918D02*
D03*
X795020Y476701D02*
D03*
X379222Y216408D02*
D03*
X543052Y525272D02*
D03*
X609854Y540766D02*
D03*
X662940Y485648D02*
D03*
X591820Y527460D02*
D03*
X666242Y506222D02*
D03*
X571500Y488442D02*
D03*
X482600Y393446D02*
D03*
X525780Y435460D02*
D03*
X612140Y403606D02*
D03*
X599440Y485648D02*
D03*
X702564Y497078D02*
D03*
X591820Y343108D02*
D03*
X934720Y200660D02*
D03*
X1054100Y205740D02*
D03*
X1079500Y277622D02*
D03*
X823214Y293878D02*
D03*
X858520Y294640D02*
D03*
X881126Y326390D02*
D03*
X900176Y345440D02*
D03*
X823214Y434340D02*
D03*
X955040Y292100D02*
D03*
X923290Y245110D02*
D03*
X612140Y223468D02*
D03*
X960247Y543887D02*
D03*
X805180Y568700D02*
D03*
X1259840Y309880D02*
D03*
X1024636Y398780D02*
D03*
X1096264Y593090D02*
D03*
X546100Y20320D02*
D03*
X596900Y251108D02*
D03*
Y435460D02*
D03*
X756920Y218440D02*
D03*
X738124Y416481D02*
D03*
X754380Y401320D02*
D03*
X723900Y568700D02*
D03*
X39878Y318262D02*
D03*
X336296Y274066D02*
D03*
X384302Y269748D02*
D03*
X485140Y11430D02*
D03*
X523240Y66040D02*
D03*
X535940Y218388D02*
D03*
X579120Y53340D02*
D03*
X599440Y25400D02*
D03*
X520700Y251108D02*
D03*
X657860Y20320D02*
D03*
X707390Y60960D02*
D03*
X828040Y218440D02*
D03*
X861060Y76200D02*
D03*
X800100Y386328D02*
D03*
X919480Y55880D02*
D03*
X883920Y68580D02*
D03*
X993140Y287020D02*
D03*
X1008380Y459740D02*
D03*
X1155700Y287020D02*
D03*
X1249680Y256540D02*
D03*
X39878Y264922D02*
D03*
X148844Y329946D02*
D03*
X212598Y264922D02*
D03*
X244602Y318262D02*
D03*
X166116Y403860D02*
D03*
X202184Y403606D02*
D03*
X361696Y329946D02*
D03*
X152400Y462280D02*
D03*
X457708Y262128D02*
D03*
X404368Y312166D02*
D03*
X215900Y462280D02*
D03*
X356362Y403860D02*
D03*
X482600Y218388D02*
D03*
X566420Y88900D02*
D03*
X423418Y403606D02*
D03*
X342646Y462026D02*
D03*
X409702Y460756D02*
D03*
X632460Y20320D02*
D03*
X520700Y343108D02*
D03*
X624840Y146050D02*
D03*
X619760Y165100D02*
D03*
X707390Y26670D02*
D03*
X520700Y527460D02*
D03*
X769620Y22860D02*
D03*
X839470Y26670D02*
D03*
X774700Y218440D02*
D03*
X800100Y294329D02*
D03*
X919480Y30480D02*
D03*
X883920Y119380D02*
D03*
X863600Y248920D02*
D03*
X805180Y403860D02*
D03*
X975360Y30480D02*
D03*
X939800Y119380D02*
D03*
X1017270Y30480D02*
D03*
X958596Y403606D02*
D03*
X942340Y459740D02*
D03*
X1064260Y307340D02*
D03*
X1008380Y513080D02*
D03*
X1130300Y231140D02*
D03*
X1149096Y401066D02*
D03*
X1135380Y457200D02*
D03*
X1217676Y401320D02*
D03*
X1201420Y457200D02*
D03*
X533400Y292348D02*
D03*
X558800Y218388D02*
D03*
Y403606D02*
D03*
X533400Y476701D02*
D03*
X703580Y218440D02*
D03*
X723900Y294329D02*
D03*
X701040Y401320D02*
D03*
X723900Y476701D02*
D03*
X787400Y345088D02*
D03*
Y527460D02*
D03*
M02*
