G04*
G04 #@! TF.GenerationSoftware,Altium Limited,Altium Designer,24.2.2 (26)*
G04*
G04 Layer_Physical_Order=4*
G04 Layer_Color=16711680*
%FSLAX44Y44*%
%MOMM*%
G71*
G04*
G04 #@! TF.SameCoordinates,6AE4F847-9EFA-45B8-A2EA-998FC1DA7BFA*
G04*
G04*
G04 #@! TF.FilePolarity,Positive*
G04*
G01*
G75*
%ADD10C,0.2540*%
%ADD14C,0.5080*%
%ADD15C,1.0160*%
%ADD16C,1.5748*%
G04:AMPARAMS|DCode=17|XSize=1.5748mm|YSize=1.5748mm|CornerRadius=0mm|HoleSize=0mm|Usage=FLASHONLY|Rotation=0.000|XOffset=0mm|YOffset=0mm|HoleType=Round|Shape=Octagon|*
%AMOCTAGOND17*
4,1,8,0.7874,-0.3937,0.7874,0.3937,0.3937,0.7874,-0.3937,0.7874,-0.7874,0.3937,-0.7874,-0.3937,-0.3937,-0.7874,0.3937,-0.7874,0.7874,-0.3937,0.0*
%
%ADD17OCTAGOND17*%

%ADD18C,2.0320*%
%ADD19C,1.8288*%
%ADD20C,5.7150*%
%ADD21C,1.2700*%
%ADD29O,0.8000X2.6000*%
%ADD30R,1.5240X1.2700*%
%ADD31R,1.2700X1.5240*%
%ADD32R,0.9144X0.9144*%
%ADD33R,1.2192X0.9144*%
%ADD34R,2.2860X1.9050*%
%ADD35O,2.0320X0.6096*%
%ADD36O,0.6096X2.0320*%
%ADD37R,1.9050X2.2860*%
%ADD38R,0.8000X2.6000*%
%ADD39R,0.9144X1.2700*%
D10*
X685800Y417576D02*
Y441706D01*
X480568Y538988D02*
X495300D01*
X361696Y201676D02*
Y243078D01*
X108204Y263906D02*
X110744D01*
X1005840Y299720D02*
X1036320D01*
X553720Y114300D02*
Y127000D01*
Y111760D02*
Y114300D01*
X620160Y527196D02*
Y614280D01*
Y434209D02*
Y527196D01*
Y614280D02*
X620268Y614172D01*
X584200Y650240D02*
X620160Y614280D01*
Y527196D02*
X620268Y527304D01*
X604520Y511556D02*
X620160Y527196D01*
X523240Y99060D02*
X538480D01*
X705612Y500126D02*
X736600Y531114D01*
X702564Y497078D02*
X705612Y500126D01*
X652780Y492833D02*
X704596Y544649D01*
Y544576D02*
Y544649D01*
X1035050Y561340D02*
X1071880D01*
X299847Y445335D02*
Y477393D01*
X289560Y487680D02*
X299847Y477393D01*
X429895Y554301D02*
Y566547D01*
X419608Y576834D02*
X429895Y566547D01*
X1089787Y497967D02*
Y510213D01*
X1079500Y487680D02*
X1089787Y497967D01*
X546100Y142240D02*
Y235966D01*
X533400Y129540D02*
X546100Y142240D01*
X523240Y129540D02*
X533400D01*
X749300Y273708D02*
Y304852D01*
X685800Y368352D02*
X749300Y304852D01*
X685800Y441706D02*
X690880Y446786D01*
X571500Y521716D02*
Y548080D01*
X685800Y368352D02*
Y417576D01*
X701040Y432816D01*
X741680D01*
X749300Y440436D01*
Y456080D01*
X750527Y111222D02*
X778436Y83312D01*
X844550D01*
X850900Y76962D01*
Y20320D02*
Y76962D01*
Y20320D02*
X858520Y12700D01*
X1235456D01*
X1401064Y178308D01*
Y535940D01*
X1366520Y570484D02*
X1401064Y535940D01*
X1356360Y570484D02*
X1366520D01*
X1349756Y563880D02*
X1356360Y570484D01*
X1349756Y539496D02*
Y563880D01*
X1310640Y500380D02*
X1349756Y539496D01*
X212598Y303022D02*
X220472D01*
Y317754D01*
X495300Y304038D02*
Y363728D01*
X205740Y303022D02*
X212598D01*
X202438Y299720D02*
X205740Y303022D01*
X202438Y295910D02*
Y299720D01*
X196088Y295910D02*
X202438D01*
X196088Y288290D02*
Y295910D01*
X187960Y280162D02*
X196088Y288290D01*
X179578Y280162D02*
X187960D01*
X442468Y312166D02*
Y337820D01*
X458111Y353463D01*
Y481225D01*
X508000Y531114D01*
Y548080D01*
X967740Y304800D02*
Y328422D01*
X810260Y476250D02*
X812800Y473710D01*
Y456080D02*
Y473710D01*
X1079500Y233680D02*
Y256540D01*
Y233680D02*
X1087120Y231140D01*
X1102360Y215900D01*
Y205740D02*
Y215900D01*
X279400Y496570D02*
Y535940D01*
X270510Y487680D02*
X279400Y496570D01*
X1071880Y499110D02*
Y538480D01*
X1060450Y487680D02*
X1071880Y499110D01*
X170688Y303022D02*
X179578D01*
X170688Y291338D02*
Y303022D01*
X153670Y274320D02*
X170688Y291338D01*
X141224Y274320D02*
X153670D01*
X136144Y269240D02*
X141224Y274320D01*
X136144Y256286D02*
Y269240D01*
X363982Y289306D02*
X385318D01*
X348996Y274320D02*
X363982Y289306D01*
X348996Y256286D02*
Y274320D01*
X1178560Y294640D02*
X1214120D01*
X1168400Y304800D02*
X1178560Y294640D01*
X279000Y133350D02*
Y234842D01*
X277622Y236220D02*
X279000Y234842D01*
X277622Y236220D02*
Y358140D01*
X306324Y386842D01*
X375920D01*
X387858Y398780D01*
Y477774D01*
X383540Y482092D02*
X387858Y477774D01*
X380238Y482092D02*
X383540D01*
X344170Y518160D02*
X380238Y482092D01*
X344170Y518160D02*
Y599948D01*
X367538Y623316D01*
X457200D01*
X469900Y636016D01*
Y655320D01*
X477520Y662940D01*
X513080D01*
X519684Y669544D01*
Y687324D01*
X535940Y703580D01*
X835660D01*
X863600Y675640D01*
X838708Y625348D02*
X863600Y650240D01*
X838708Y524510D02*
Y625348D01*
X546100Y340360D02*
Y363728D01*
Y340360D02*
X558800Y327660D01*
X607060D01*
X640588Y361188D01*
Y508508D01*
X685800Y553720D01*
Y650240D01*
X526288Y594868D02*
Y633476D01*
Y594868D02*
X546100Y575056D01*
Y548080D02*
Y575056D01*
X558800Y675640D02*
X570484Y687324D01*
X589280D01*
X595884Y680720D01*
Y670560D02*
Y680720D01*
Y670560D02*
X603504Y662940D01*
X693420D01*
X697484Y658876D01*
Y557784D02*
Y658876D01*
X647700Y508000D02*
X697484Y557784D01*
X647700Y361115D02*
Y508000D01*
X594758Y308174D02*
X647700Y361115D01*
X558800Y308174D02*
X594758D01*
X546100Y295474D02*
X558800Y308174D01*
X546100Y271728D02*
Y295474D01*
X774700Y365708D02*
Y389890D01*
X800100Y415290D01*
X833628D01*
X871982Y453644D01*
Y570738D01*
X943102Y641858D01*
X1320038Y213360D02*
X1350264Y243586D01*
Y310896D01*
X1338580Y322580D02*
X1350264Y310896D01*
X736600Y351282D02*
Y365708D01*
X734060Y348742D02*
X736600Y351282D01*
X718820Y348742D02*
X734060D01*
X716026Y351536D02*
X718820Y348742D01*
X716026Y351536D02*
Y371094D01*
X690880Y396240D02*
X716026Y371094D01*
X690880Y396240D02*
Y406400D01*
X704088Y419608D01*
X721106D01*
X736600Y531114D02*
Y548080D01*
X571500Y271728D02*
Y285496D01*
X578612Y292608D01*
X586377D01*
X652780Y359011D01*
Y492833D01*
X704596Y544649D02*
Y643636D01*
X1000760Y563880D02*
Y571500D01*
X1003300Y561340D02*
X1035050D01*
Y588010D01*
X1023620Y599440D02*
X1035050Y588010D01*
X971042Y599440D02*
X1023620D01*
X965962Y604520D02*
X971042Y599440D01*
X965962Y604520D02*
Y616472D01*
X992124Y642634D01*
Y656082D01*
X978154Y670052D02*
X992124Y656082D01*
X953770Y670052D02*
X978154D01*
X332740Y568960D02*
Y578612D01*
X322580Y558800D02*
X332740Y568960D01*
X279400Y558800D02*
X322580D01*
X110744Y256286D02*
Y263906D01*
X108204D02*
Y276860D01*
X104902Y280162D02*
X108204Y276860D01*
X84836Y280162D02*
X104902D01*
X891286Y147320D02*
X998220D01*
X873760Y129794D02*
X891286Y147320D01*
X873760Y91440D02*
Y129794D01*
Y91440D02*
X883920Y81280D01*
X901700D01*
X861060Y27940D02*
X866140Y22860D01*
X861060Y27940D02*
Y38100D01*
X1270000Y133350D02*
X1290828Y154178D01*
Y159258D01*
X1338580Y207010D01*
X361696Y201676D02*
X379730Y183642D01*
X402336D01*
X414020Y195326D01*
X442468Y298704D02*
Y312166D01*
X431038Y287274D02*
X442468Y298704D01*
X431038Y251968D02*
Y287274D01*
X422148Y243078D02*
X431038Y251968D01*
X361696Y243078D02*
X422148D01*
X361696D02*
Y256286D01*
X508000Y298450D02*
Y363728D01*
Y298450D02*
X514350Y292100D01*
X148844Y256286D02*
X187960D01*
X217678Y226568D01*
X701040Y486918D02*
X751332D01*
X680720Y466598D02*
X701040Y486918D01*
X680720Y270510D02*
Y466598D01*
Y270510D02*
X697230Y254000D01*
X756920D01*
X762000Y259080D01*
Y273708D01*
X609600Y650240D02*
X627380Y632460D01*
Y447294D02*
Y632460D01*
Y447294D02*
X630428Y444246D01*
X774700Y273708D02*
Y334264D01*
X635000Y528320D02*
Y650240D01*
Y528320D02*
X637540Y525780D01*
X774700Y456080D02*
Y497332D01*
X571500Y548080D02*
Y583438D01*
X547116Y607822D02*
X571500Y583438D01*
X547116Y607822D02*
Y680720D01*
X563880Y697484D01*
X808482D01*
X825246Y680720D01*
Y663194D02*
Y680720D01*
Y663194D02*
X838200Y650240D01*
X332740Y578612D02*
Y602705D01*
X358431Y628396D01*
X411988D01*
X439928Y656336D01*
X1102360Y256540D02*
Y270510D01*
X1090930Y281940D02*
X1102360Y270510D01*
X1090930Y281940D02*
Y318770D01*
X1140460D01*
X1143000Y316230D01*
Y304800D02*
Y316230D01*
X487680Y144780D02*
X490220D01*
X485140Y142240D02*
X487680Y144780D01*
X485140Y129540D02*
Y142240D01*
X1291336Y200152D02*
Y514096D01*
X1336040Y558800D01*
X812800Y249682D02*
Y273708D01*
X967740Y236220D02*
X972820Y231140D01*
X967740Y236220D02*
Y248920D01*
X571500Y363728D02*
Y387858D01*
X620160Y434209D02*
X622300Y432069D01*
Y368148D02*
Y432069D01*
X601980Y347828D02*
X622300Y368148D01*
X601980Y335488D02*
Y347828D01*
X599440Y332948D02*
X601980Y335488D01*
X560878Y332948D02*
X599440D01*
X558800Y335026D02*
X560878Y332948D01*
X558800Y335026D02*
Y363728D01*
Y383286D01*
X548640Y393446D02*
X558800Y383286D01*
X548640Y393446D02*
Y419608D01*
X751332Y486918D02*
X762000Y476250D01*
Y456080D02*
Y476250D01*
X795020Y476701D02*
X800100Y471621D01*
Y456080D02*
Y471621D01*
X379222Y216408D02*
X384302Y221488D01*
Y231648D01*
X558800Y516636D02*
Y548080D01*
Y516636D02*
X563880Y511556D01*
X604520D01*
X620268Y527304D02*
Y614172D01*
X546100Y456080D02*
Y522224D01*
X543052Y525272D02*
X546100Y522224D01*
X609854Y540766D02*
Y557784D01*
X572516Y595122D02*
X609854Y557784D01*
X572516Y595122D02*
Y663956D01*
X584200Y675640D01*
X750316Y661924D02*
X762000Y650240D01*
X730504Y661924D02*
X750316D01*
X723900Y655320D02*
X730504Y661924D01*
X723900Y606806D02*
Y655320D01*
X711708Y594614D02*
X723900Y606806D01*
X711708Y530860D02*
Y594614D01*
X674878Y494030D02*
X711708Y530860D01*
X674878Y237998D02*
Y494030D01*
X609092Y172212D02*
X674878Y237998D01*
X609092Y121920D02*
Y172212D01*
X598932Y111760D02*
X609092Y121920D01*
X556260Y111760D02*
X598932D01*
X553720Y114300D02*
X556260Y111760D01*
X584200Y242316D02*
Y271728D01*
Y242316D02*
X589280Y237236D01*
X619760D01*
X662940Y280416D01*
Y485648D01*
X901700Y272796D02*
Y304800D01*
Y272796D02*
X914400Y260096D01*
Y177800D02*
Y260096D01*
X591820Y527460D02*
X596900Y532540D01*
Y548080D01*
X704596Y643636D02*
X711200Y650240D01*
X666242Y506222D02*
X704596Y544576D01*
X571500Y456080D02*
Y488442D01*
X609600Y675640D02*
X626364Y692404D01*
X762000D01*
X774700Y679704D01*
Y669544D02*
Y679704D01*
Y669544D02*
X782320Y661924D01*
X792480D01*
X799084Y655320D01*
Y645160D02*
Y655320D01*
X774700Y620776D02*
X799084Y645160D01*
X774700Y548080D02*
Y620776D01*
X711200Y650240D02*
X724916Y663956D01*
Y680720D01*
X731520Y687324D01*
X741680D01*
X748284Y680720D01*
Y672592D02*
Y680720D01*
Y672592D02*
X758952Y661924D01*
X767080D01*
X773684Y655320D01*
Y645160D02*
Y655320D01*
X749300Y620776D02*
X773684Y645160D01*
X749300Y548080D02*
Y620776D01*
X482600Y393446D02*
Y398526D01*
X487680Y403606D01*
X497840D01*
X749300Y365708D02*
Y381000D01*
X792330Y424030D01*
X828040D01*
X833374Y429364D01*
Y476250D01*
X792734Y516890D02*
X833374Y476250D01*
X760730Y516890D02*
X792734D01*
X749300Y528320D02*
X760730Y516890D01*
X749300Y528320D02*
Y548080D01*
X596900Y403606D02*
X612140D01*
X584200Y456080D02*
Y470408D01*
X599440Y485648D01*
X591820Y343108D02*
X596900Y348188D01*
Y363728D01*
X934720Y200660D02*
X939800Y205740D01*
Y215900D01*
X1054100Y205740D02*
X1079500D01*
Y256540D02*
Y277622D01*
X823214Y293878D02*
X825500Y291592D01*
Y273708D02*
Y291592D01*
X858520Y294640D02*
X868680Y304800D01*
X878840D01*
X929640Y345440D02*
X939800Y335280D01*
X881126Y326390D02*
X890270Y317246D01*
Y251460D02*
Y317246D01*
Y251460D02*
X892810Y248920D01*
X901700D01*
X939800Y304800D02*
Y335280D01*
X900176Y345440D02*
X929640D01*
X823214Y434340D02*
X825500Y436626D01*
Y456080D01*
X967740Y292100D02*
Y304800D01*
X955040Y292100D02*
X967740D01*
X923290Y186690D02*
Y245110D01*
X914400Y177800D02*
X923290Y186690D01*
X1005840Y299720D02*
Y304800D01*
X980440Y287020D02*
Y304800D01*
X975360Y281940D02*
X980440Y287020D01*
X939800Y281940D02*
X975360D01*
X607060Y218388D02*
X612140Y223468D01*
X596900Y218388D02*
X607060D01*
X960247Y543887D02*
Y561213D01*
X949960Y571500D02*
X960247Y561213D01*
X355600Y570472D02*
Y578612D01*
Y570472D02*
X368288Y557784D01*
X391160D01*
X400558Y567182D01*
Y576834D01*
X1254760Y309880D02*
X1259840D01*
X1249680Y304800D02*
X1254760Y309880D01*
X1249680Y294640D02*
Y304800D01*
X1019556Y403860D02*
X1024636Y398780D01*
X1010920Y403860D02*
X1019556D01*
X1016000Y276860D02*
X1036320D01*
X1005840Y266700D02*
X1016000Y276860D01*
X1005840Y248920D02*
Y266700D01*
X553720Y71120D02*
Y83820D01*
X538480Y99060D02*
X553720Y83820D01*
X523240Y99060D02*
Y106680D01*
X323596Y256286D02*
Y274320D01*
X317754Y280162D02*
X323596Y274320D01*
X295402Y280162D02*
X317754D01*
X1198880Y218440D02*
X1211580Y205740D01*
X1125220Y218440D02*
X1198880D01*
X1120140Y223520D02*
X1125220Y218440D01*
X1120140Y223520D02*
Y262890D01*
X1130300Y273050D01*
Y304800D01*
X419608Y262128D02*
Y288290D01*
X406400Y301498D02*
X419608Y288290D01*
X385318Y301498D02*
X406400D01*
X385318D02*
Y312166D01*
X244602Y253492D02*
Y280162D01*
X217678Y226568D02*
X244602Y253492D01*
X1178560Y271780D02*
X1214120D01*
X1168400Y261620D02*
X1178560Y271780D01*
X1168400Y248920D02*
Y261620D01*
X495300Y538988D02*
Y548080D01*
X451358Y509778D02*
X480568Y538988D01*
X451358Y358140D02*
Y509778D01*
X420878Y327660D02*
X451358Y358140D01*
X391160Y327660D02*
X420878D01*
X385318Y321818D02*
X391160Y327660D01*
X385318Y312166D02*
Y321818D01*
X912114Y470408D02*
Y489966D01*
X940562Y518414D01*
Y551180D01*
X439674Y470408D02*
Y497840D01*
X410210Y527304D02*
X439674Y497840D01*
X410210Y527304D02*
Y556514D01*
X591820Y50800D02*
Y71120D01*
X581660Y40640D02*
X591820Y50800D01*
X542290Y40640D02*
X581660D01*
X541020Y39370D02*
X542290Y40640D01*
X485140Y39370D02*
X541020D01*
X485140D02*
Y49530D01*
X546100Y20320D02*
X551180Y25400D01*
X561340D01*
X553720Y111760D02*
X566420Y99060D01*
X580898D01*
X598678Y81280D01*
Y40640D02*
Y81280D01*
X593598Y35560D02*
X598678Y40640D01*
X546862Y35560D02*
X593598D01*
X539242Y27940D02*
X546862Y35560D01*
X523240Y27940D02*
X539242D01*
X1000760Y563880D02*
X1003300Y561340D01*
X1023620Y571500D02*
Y579120D01*
X1011682Y591058D02*
X1023620Y579120D01*
X950468Y591058D02*
X1011682D01*
X930910Y571500D02*
X950468Y591058D01*
X1117600Y304800D02*
X1130300D01*
X1115060Y307340D02*
X1117600Y304800D01*
X1102360Y307340D02*
X1115060D01*
X1336040Y472440D02*
Y500380D01*
Y472440D02*
X1338580Y469900D01*
Y441960D02*
Y469900D01*
X266192Y467360D02*
X280162D01*
X263144Y470408D02*
X266192Y467360D01*
X249174Y470408D02*
X263144D01*
X1089152D02*
X1105154D01*
X1086104Y467360D02*
X1089152Y470408D01*
X1070102Y467360D02*
X1086104D01*
X102362Y312166D02*
X110744D01*
X93218Y303022D02*
X102362Y312166D01*
X84836Y303022D02*
X93218D01*
X313944Y312166D02*
X323596D01*
X304800Y303022D02*
X313944Y312166D01*
X295402Y303022D02*
X304800D01*
X957580Y55880D02*
Y68580D01*
X485140Y106680D02*
X523240D01*
X736600Y548080D02*
Y650240D01*
X596900Y251108D02*
Y271728D01*
Y435460D02*
Y456080D01*
X741680Y218440D02*
X756920D01*
X727964Y406321D02*
X738124Y416481D01*
X727964Y386365D02*
Y406321D01*
X723900Y382300D02*
X727964Y386365D01*
X723900Y365708D02*
Y382300D01*
X739140Y401320D02*
X754380D01*
X723900Y548080D02*
Y568700D01*
X39878Y264922D02*
Y280162D01*
X148844Y312166D02*
Y329946D01*
X212598Y264922D02*
Y280162D01*
X244602Y303022D02*
Y318262D01*
X152400Y403860D02*
X166116D01*
X202184Y403606D02*
X215900D01*
X361696Y312166D02*
Y329946D01*
X152400Y462280D02*
Y477520D01*
X442468Y262128D02*
X457708D01*
X404368Y312166D02*
X419608D01*
X215900Y462280D02*
Y477520D01*
X342646Y403860D02*
X356362D01*
X482600Y218388D02*
X497840D01*
X566420Y71120D02*
Y88900D01*
X409702Y403606D02*
X423418D01*
X342646Y462026D02*
Y477266D01*
X409702Y460756D02*
Y475996D01*
X632460Y20320D02*
Y38100D01*
X520700Y343108D02*
Y363728D01*
X624840Y127000D02*
Y146050D01*
X619760Y165100D02*
X635000D01*
X707390Y26670D02*
X726440D01*
X520700Y527460D02*
Y548080D01*
X769620Y22860D02*
Y38100D01*
X820420Y26670D02*
X839470D01*
X774700Y218440D02*
X789940D01*
X800100Y273708D02*
Y294329D01*
X901700Y30480D02*
X919480D01*
X883920Y119380D02*
X901700D01*
X863600Y248920D02*
X878840D01*
X805180Y403860D02*
X820420D01*
X957580Y30480D02*
X975360D01*
X939800Y119380D02*
X957580D01*
X998220Y30480D02*
X1017270D01*
X944880Y403606D02*
X958596D01*
X942340Y459740D02*
Y474980D01*
X1064260Y307340D02*
X1079500D01*
X1008380Y497840D02*
Y513080D01*
X1130300Y231140D02*
Y248920D01*
X1135380Y401066D02*
X1149096D01*
X1135380Y457200D02*
Y472440D01*
X1203960Y401320D02*
X1217676D01*
X1201420Y457200D02*
Y472440D01*
X533400Y271728D02*
Y292348D01*
X558800Y218388D02*
X574040D01*
X558800Y403606D02*
X574040D01*
X533400Y456080D02*
Y476701D01*
X703580Y218440D02*
X718820D01*
X723900Y273708D02*
Y294329D01*
X701040Y401320D02*
X716280D01*
X723900Y456080D02*
Y476701D01*
X787400Y345088D02*
Y365708D01*
Y527460D02*
Y548080D01*
D14*
X383286Y370840D02*
X403352D01*
X401320Y491744D02*
X409702D01*
X952754Y167640D02*
Y215900D01*
X1221486Y492506D02*
X1224280Y495300D01*
X1295000Y145203D02*
X1302173D01*
X1249934Y214376D02*
Y215646D01*
Y141478D02*
Y192786D01*
X1245000Y141478D02*
X1249934D01*
X1245000D02*
Y187852D01*
Y133350D02*
Y141478D01*
X1176273Y371348D02*
X1181608Y376682D01*
X1168654Y363728D02*
X1176273Y371348D01*
X144018Y493268D02*
X152400D01*
X129540Y371094D02*
X144780D01*
X348996Y312166D02*
Y371094D01*
X985520D02*
X991108Y376682D01*
X978154Y363728D02*
X985520Y371094D01*
X215900Y370840D02*
X242062D01*
X249174Y363728D01*
X192786Y370840D02*
X215900D01*
X185674Y363728D02*
X192786Y370840D01*
X381762Y498856D02*
X409702D01*
X375666Y504952D02*
X381762Y498856D01*
X336296Y312166D02*
Y325120D01*
X333248Y328168D02*
X336296Y325120D01*
X294640Y328168D02*
X333248D01*
X283972Y317500D02*
X294640Y328168D01*
X283972Y258064D02*
Y317500D01*
Y258064D02*
X416560Y125476D01*
X376174Y363728D02*
X383286Y370840D01*
X409702D02*
X432562D01*
X439674Y363728D01*
X919226Y370840D02*
X944880D01*
X912114Y363728D02*
X919226Y370840D01*
X939800Y238760D02*
Y254508D01*
X923923Y259588D02*
X939800Y254508D01*
X915924Y267587D02*
X923923Y259588D01*
X915924Y267587D02*
Y312420D01*
X906145Y322199D02*
X915924Y312420D01*
X993140Y233680D02*
Y248920D01*
X975360Y215900D02*
X993140Y233680D01*
X952754Y215900D02*
X975360D01*
X952754D02*
Y234696D01*
X939800Y238760D02*
X952754Y234696D01*
X1201420Y495300D02*
X1224280D01*
X1233932Y504952D01*
X1363980Y301244D02*
X1376934Y288290D01*
Y219964D02*
Y288290D01*
X1363980Y207010D02*
X1376934Y219964D01*
X1135380Y495300D02*
X1158494D01*
X1168146Y504952D01*
X122174Y363728D02*
X129540Y371094D01*
X342646D02*
X348996D01*
X320294D02*
X342646D01*
X312928Y363728D02*
X320294Y371094D01*
X319532Y500126D02*
X342646D01*
X312166Y507492D02*
X319532Y500126D01*
X977646Y504952D02*
X991108Y491490D01*
Y376682D02*
Y491490D01*
X942340Y497840D02*
X970534D01*
X977646Y504952D01*
X136144Y312166D02*
Y349758D01*
X122174Y363728D02*
X136144Y349758D01*
X1302173Y145203D02*
X1363980Y207010D01*
X1295000Y133350D02*
Y145203D01*
X1231900Y233680D02*
X1249934Y215646D01*
X1231900Y233680D02*
Y303276D01*
X1219454Y315722D02*
X1231900Y303276D01*
X1219454Y315722D02*
Y363220D01*
X1214120Y368554D02*
X1219454Y363220D01*
X1203960Y368554D02*
X1214120D01*
X376174Y328422D02*
Y363728D01*
X373888Y326136D02*
X376174Y328422D01*
X373888Y304800D02*
Y326136D01*
X366014Y296926D02*
X373888Y304800D01*
X339090Y296926D02*
X366014D01*
X336296Y299720D02*
X339090Y296926D01*
X336296Y299720D02*
Y312166D01*
X1206246Y233680D02*
X1208786Y236220D01*
X1158240Y233680D02*
X1206246D01*
X1155700Y236220D02*
X1158240Y233680D01*
X1155700Y236220D02*
Y248920D01*
X737409Y137424D02*
Y167950D01*
X741680Y172221D01*
X772414D01*
X779789Y164846D01*
X949960D01*
X952754Y167640D01*
X948690Y238760D02*
X952754Y234696D01*
X939800Y238760D02*
X948690D01*
X933704Y497840D02*
X942340D01*
X925068Y489204D02*
X933704Y497840D01*
X925068Y413766D02*
Y489204D01*
X899160Y387858D02*
X925068Y413766D01*
X899160Y367284D02*
Y387858D01*
X888746Y356870D02*
X899160Y367284D01*
X888746Y339226D02*
Y356870D01*
Y339226D02*
X894080Y333892D01*
X910708D01*
X928370Y316230D01*
Y271780D02*
Y316230D01*
Y271780D02*
X932166Y267984D01*
X974584D01*
X980440Y262128D01*
Y248920D02*
Y262128D01*
X249174Y363728D02*
X261874Y376428D01*
Y443230D01*
X254000Y451104D02*
X261874Y443230D01*
X242316Y451104D02*
X254000D01*
X236220Y457200D02*
X242316Y451104D01*
X236220Y457200D02*
Y487680D01*
X223520Y500380D02*
X236220Y487680D01*
X215900Y500380D02*
X223520D01*
X1245000Y187852D02*
X1249934Y192786D01*
Y214376D01*
X1239520Y224790D02*
X1249934Y214376D01*
X1148080Y224790D02*
X1239520D01*
X1143000Y229870D02*
X1148080Y224790D01*
X1143000Y229870D02*
Y248920D01*
X123444Y299720D02*
Y312166D01*
Y299720D02*
X126238Y296926D01*
X162560D01*
X164338Y298704D01*
Y342392D01*
X185674Y363728D01*
X985520Y371094D02*
X1010920D01*
X1024890Y346964D02*
X1041654Y363728D01*
X975360Y346964D02*
X1024890D01*
X951484Y370840D02*
X975360Y346964D01*
X944880Y370840D02*
X951484D01*
X1179067Y368554D02*
X1203960D01*
X1176273Y371348D02*
X1179067Y368554D01*
X1234694Y363728D02*
Y410210D01*
X1221486Y423418D02*
X1234694Y410210D01*
X1221486Y423418D02*
Y492506D01*
X1168146Y504952D02*
X1181608Y491490D01*
Y376682D02*
Y491490D01*
X1041654Y363728D02*
Y410718D01*
X1028446Y423926D02*
X1041654Y410718D01*
X1028446Y423926D02*
Y492252D01*
X1041146Y504952D01*
X152400Y493268D02*
Y500380D01*
X140970Y490220D02*
X144018Y493268D01*
X140970Y374904D02*
Y490220D01*
Y374904D02*
X144780Y371094D01*
X152400D01*
X409702Y491744D02*
Y498856D01*
X398272Y488696D02*
X401320Y491744D01*
X398272Y375920D02*
Y488696D01*
Y375920D02*
X403352Y370840D01*
X409702D01*
X202692Y500380D02*
X215900D01*
X198120Y504952D02*
X202692Y500380D01*
X185166Y504952D02*
X198120D01*
X1122426Y368300D02*
X1135380D01*
X1117854Y363728D02*
X1122426Y368300D01*
X1105154Y363728D02*
X1117854D01*
X139192Y500380D02*
X152400D01*
X134620Y504952D02*
X139192Y500380D01*
X121666Y504952D02*
X134620D01*
D15*
X964692Y43180D02*
Y44450D01*
X837184Y328422D02*
Y335788D01*
Y229616D02*
Y328422D01*
X650240Y113030D02*
X659130D01*
X853440Y403860D02*
X858520Y398780D01*
X843280Y403860D02*
X853440D01*
X1209040Y636524D02*
Y650240D01*
Y636524D02*
X1233932Y611632D01*
X1323086Y277114D02*
X1338580Y261620D01*
X1323086Y277114D02*
Y396240D01*
X1335278Y408432D01*
X1356106D01*
X1379474Y431800D01*
Y449834D01*
X1361440Y467868D02*
X1379474Y449834D01*
X1361440Y467868D02*
Y500380D01*
X1005840Y639826D02*
Y650240D01*
X977646Y611632D02*
X1005840Y639826D01*
X375666Y611632D02*
X384048Y603250D01*
Y567944D02*
Y603250D01*
X657860Y147320D02*
Y165100D01*
Y147320D02*
X659130Y127000D01*
X825500Y529844D02*
Y548080D01*
X824484Y528828D02*
X825500Y529844D01*
X824484Y518160D02*
Y528828D01*
Y518160D02*
X832358Y510286D01*
X844296D01*
X862330Y528320D01*
Y599186D01*
X918972Y655828D01*
X965454D01*
X971042Y650240D01*
X980440D01*
X118364Y274066D02*
X123444Y268986D01*
Y256286D02*
Y268986D01*
X1320546Y665734D02*
X1348740Y637540D01*
X1136142Y665734D02*
X1320546D01*
X1120648Y650240D02*
X1136142Y665734D01*
X1120648Y415036D02*
Y650240D01*
X1050290Y344678D02*
X1120648Y415036D01*
X1050290Y236220D02*
Y344678D01*
X1040130Y226060D02*
X1050290Y236220D01*
X1040130Y138430D02*
Y226060D01*
X1026160Y124460D02*
X1040130Y138430D01*
X998220Y124460D02*
X1026160D01*
X764540Y76200D02*
X769620Y71120D01*
Y60960D02*
Y71120D01*
X839470Y66040D02*
Y71120D01*
X834390Y60960D02*
X839470Y66040D01*
X820420Y60960D02*
X834390D01*
X1363980Y322580D02*
X1392174Y350774D01*
Y528066D01*
X1361440Y558800D02*
X1392174Y528066D01*
X495300Y271728D02*
Y287274D01*
X492760Y289814D02*
X495300Y287274D01*
X483616Y289814D02*
X492760D01*
X468630Y304800D02*
X483616Y289814D01*
X468630Y304800D02*
Y408940D01*
X495300Y435610D01*
Y456080D01*
X837184Y229616D02*
X889000Y177800D01*
X837184Y328422D02*
X884428Y375666D01*
Y554228D01*
X980440Y650240D01*
X1270000Y158350D02*
Y292100D01*
X1273810Y295910D01*
Y571754D01*
X1233932Y611632D02*
X1273810Y571754D01*
X785885Y177800D02*
X889000D01*
X781304Y182381D02*
X785885Y177800D01*
X665480Y182381D02*
X781304D01*
X657860Y174761D02*
X665480Y182381D01*
X657860Y165100D02*
Y174761D01*
X530860Y403606D02*
X535940Y408686D01*
X520700Y403606D02*
X530860D01*
X520700Y440540D02*
X525780Y435460D01*
X520700Y440540D02*
Y456080D01*
X802640Y568700D02*
X805180D01*
X800100Y566160D02*
X802640Y568700D01*
X800100Y548080D02*
Y566160D01*
X659130Y113030D02*
Y127000D01*
X645160Y107950D02*
X650240Y113030D01*
X645160Y93980D02*
Y107950D01*
X1059688Y593090D02*
X1096264D01*
X1041146Y611632D02*
X1059688Y593090D01*
X957580Y43180D02*
X964692D01*
Y44450D02*
X971550D01*
X977900Y50800D01*
Y57150D01*
X985520Y64770D01*
X998220D01*
X326898Y634492D02*
X342646Y650240D01*
X326898Y628904D02*
Y634492D01*
X312166Y614172D02*
X326898Y628904D01*
X142240Y640080D02*
X152400Y650240D01*
X142240Y632206D02*
Y640080D01*
X121666Y611632D02*
X142240Y632206D01*
X388620Y195326D02*
X438404Y245110D01*
X487680D01*
X495300Y252730D01*
Y271728D01*
X825500Y347472D02*
X837184Y335788D01*
X825500Y347472D02*
Y365708D01*
X998220Y64770D02*
Y124460D01*
X39878Y303022D02*
Y318262D01*
X336296Y256286D02*
Y274066D01*
X384302Y254508D02*
Y269748D01*
X485140Y11430D02*
Y26670D01*
X523240Y50800D02*
Y66040D01*
X520700Y218388D02*
X535940D01*
X579120Y53340D02*
Y71120D01*
X584200Y25400D02*
X599440D01*
X520700Y251108D02*
Y271728D01*
X657860Y20320D02*
Y38100D01*
X707390Y60960D02*
X726440D01*
X812800Y218440D02*
X828040D01*
X861060Y60960D02*
Y76200D01*
X800100Y365708D02*
Y386328D01*
X901700Y55880D02*
X919480D01*
X883920Y68580D02*
X901700D01*
X993140Y287020D02*
Y304800D01*
X1008380Y459740D02*
Y474980D01*
X1155700Y287020D02*
Y304800D01*
X1249680Y256540D02*
Y271780D01*
D16*
X787400Y586740D02*
D03*
X457200Y675640D02*
D03*
X1310640Y558800D02*
D03*
X1234694Y470408D02*
D03*
X1168654D02*
D03*
X1041654D02*
D03*
X978154D02*
D03*
X812800Y586740D02*
D03*
X1236980Y205740D02*
D03*
X939800Y177800D02*
D03*
X376174Y470408D02*
D03*
X312928D02*
D03*
X185674D02*
D03*
X122174D02*
D03*
X243078Y226568D02*
D03*
X439420Y195326D02*
D03*
X1234440Y650240D02*
D03*
X1031240D02*
D03*
X368046D02*
D03*
X177800D02*
D03*
X482600D02*
D03*
X914400Y177800D02*
D03*
X889000D02*
D03*
X217678Y226568D02*
D03*
X192278D02*
D03*
X127000Y650240D02*
D03*
X152400D02*
D03*
X980440D02*
D03*
X1005840D02*
D03*
X1209040D02*
D03*
X1158240D02*
D03*
X1183640D02*
D03*
X317246D02*
D03*
X342646D02*
D03*
X1186180Y205740D02*
D03*
X1211580D02*
D03*
X388620Y195326D02*
D03*
X414020D02*
D03*
X1363980Y261620D02*
D03*
X1338580D02*
D03*
X1363980Y322580D02*
D03*
X1338580D02*
D03*
X1363980Y207010D02*
D03*
X1338580D02*
D03*
X1363980Y441960D02*
D03*
X1338580D02*
D03*
X1363980Y381000D02*
D03*
X1338580D02*
D03*
X1361440Y500380D02*
D03*
X1310640D02*
D03*
X1336040D02*
D03*
X1361440Y558800D02*
D03*
X1336040D02*
D03*
X1041146Y504952D02*
D03*
X1041400Y543560D02*
D03*
X1041146Y611632D02*
D03*
X1168146D02*
D03*
Y504952D02*
D03*
X1168400Y543560D02*
D03*
X1234694Y363728D02*
D03*
X1234440Y431800D02*
D03*
X762000Y675640D02*
D03*
X736600D02*
D03*
X533400D02*
D03*
X838200D02*
D03*
X533400Y650240D02*
D03*
X508000Y675640D02*
D03*
Y650240D02*
D03*
X863600D02*
D03*
Y675640D02*
D03*
X482600D02*
D03*
X558800D02*
D03*
X584200D02*
D03*
X609600D02*
D03*
X635000D02*
D03*
X660400D02*
D03*
X685800D02*
D03*
X711200D02*
D03*
X787400D02*
D03*
X812800D02*
D03*
X558800Y650240D02*
D03*
X584200D02*
D03*
X609600D02*
D03*
X635000D02*
D03*
X660400D02*
D03*
X685800D02*
D03*
X711200D02*
D03*
X736600D02*
D03*
X762000D02*
D03*
X787400D02*
D03*
X812800D02*
D03*
X838200D02*
D03*
X1104900Y431800D02*
D03*
X1105154Y363728D02*
D03*
Y470408D02*
D03*
X911860Y431800D02*
D03*
X912114Y363728D02*
D03*
Y470408D02*
D03*
X312928Y363728D02*
D03*
X312674Y431800D02*
D03*
X121666Y504952D02*
D03*
Y611632D02*
D03*
X121920Y543560D02*
D03*
X185166Y611632D02*
D03*
X185420Y543560D02*
D03*
X185166Y504952D02*
D03*
X248920Y431800D02*
D03*
X249174Y470408D02*
D03*
Y363728D02*
D03*
X439420Y431800D02*
D03*
X439674Y470408D02*
D03*
Y363728D02*
D03*
X312166Y614172D02*
D03*
X312420Y546100D02*
D03*
X312166Y507492D02*
D03*
X977646Y504952D02*
D03*
Y611632D02*
D03*
X977900Y543560D02*
D03*
Y431800D02*
D03*
X978154Y363728D02*
D03*
X375666Y611632D02*
D03*
X375920Y543560D02*
D03*
X375666Y504952D02*
D03*
X375920Y431800D02*
D03*
X376174Y363728D02*
D03*
X185420Y431800D02*
D03*
X185674Y363728D02*
D03*
X121920Y431800D02*
D03*
X122174Y363728D02*
D03*
X1041400Y431800D02*
D03*
X1041654Y363728D02*
D03*
X1234186Y543560D02*
D03*
X1233932Y504952D02*
D03*
Y611632D02*
D03*
X1168400Y431800D02*
D03*
X1168654Y363728D02*
D03*
D17*
X457200Y650240D02*
D03*
D18*
X254000Y108350D02*
D03*
X1374140Y637540D02*
D03*
X1270000Y108350D02*
D03*
X254000Y158350D02*
D03*
X279000Y133350D02*
D03*
X229000D02*
D03*
X254000D02*
D03*
X1348740Y637540D02*
D03*
X1424940D02*
D03*
Y662940D02*
D03*
X1348740D02*
D03*
X1374140D02*
D03*
X1399540D02*
D03*
Y637540D02*
D03*
X762000Y133350D02*
D03*
X750527Y111222D02*
D03*
X779500Y115600D02*
D03*
X784289Y144509D02*
D03*
X1270000Y133350D02*
D03*
X1295000D02*
D03*
X1245000D02*
D03*
X1270000Y158350D02*
D03*
D19*
X737409Y137424D02*
D03*
X758275Y157997D02*
D03*
D20*
X1452118Y158750D02*
D03*
Y482600D02*
D03*
X72898D02*
D03*
Y158750D02*
D03*
D21*
X858520Y398780D02*
D03*
X299847Y445335D02*
D03*
X429895Y554301D02*
D03*
X1089787Y510213D02*
D03*
X546100Y235966D02*
D03*
X416560Y125476D02*
D03*
X906145Y322199D02*
D03*
X1363980Y301244D02*
D03*
X690880Y446786D02*
D03*
X571500Y521716D02*
D03*
X220472Y317754D02*
D03*
X495300Y304038D02*
D03*
X967740Y328422D02*
D03*
X810260Y476250D02*
D03*
X384048Y567944D02*
D03*
X838708Y524510D02*
D03*
X526288Y633476D02*
D03*
X943102Y641858D02*
D03*
X1320038Y213360D02*
D03*
X721106Y419608D02*
D03*
X705612Y500126D02*
D03*
X953770Y670052D02*
D03*
X118364Y274066D02*
D03*
X764540Y76200D02*
D03*
X839470Y71120D02*
D03*
X866140Y22860D02*
D03*
X514350Y292100D02*
D03*
X630428Y444246D02*
D03*
X774700Y334264D02*
D03*
X637540Y525780D02*
D03*
X774700Y497332D02*
D03*
X439928Y656336D02*
D03*
X490220Y144780D02*
D03*
X1208786Y236220D02*
D03*
X1291336Y200152D02*
D03*
X812800Y249682D02*
D03*
X972820Y231140D02*
D03*
X535940Y408686D02*
D03*
X571500Y387858D02*
D03*
X548640Y419608D02*
D03*
X751332Y486918D02*
D03*
X795020Y476701D02*
D03*
X379222Y216408D02*
D03*
X543052Y525272D02*
D03*
X609854Y540766D02*
D03*
X662940Y485648D02*
D03*
X591820Y527460D02*
D03*
X666242Y506222D02*
D03*
X571500Y488442D02*
D03*
X482600Y393446D02*
D03*
X525780Y435460D02*
D03*
X612140Y403606D02*
D03*
X599440Y485648D02*
D03*
X702564Y497078D02*
D03*
X591820Y343108D02*
D03*
X934720Y200660D02*
D03*
X1054100Y205740D02*
D03*
X1079500Y277622D02*
D03*
X823214Y293878D02*
D03*
X858520Y294640D02*
D03*
X881126Y326390D02*
D03*
X900176Y345440D02*
D03*
X823214Y434340D02*
D03*
X955040Y292100D02*
D03*
X923290Y245110D02*
D03*
X612140Y223468D02*
D03*
X960247Y543887D02*
D03*
X805180Y568700D02*
D03*
X1259840Y309880D02*
D03*
X1024636Y398780D02*
D03*
X1096264Y593090D02*
D03*
X546100Y20320D02*
D03*
X596900Y251108D02*
D03*
Y435460D02*
D03*
X756920Y218440D02*
D03*
X738124Y416481D02*
D03*
X754380Y401320D02*
D03*
X723900Y568700D02*
D03*
X39878Y318262D02*
D03*
X336296Y274066D02*
D03*
X384302Y269748D02*
D03*
X485140Y11430D02*
D03*
X523240Y66040D02*
D03*
X535940Y218388D02*
D03*
X579120Y53340D02*
D03*
X599440Y25400D02*
D03*
X520700Y251108D02*
D03*
X657860Y20320D02*
D03*
X707390Y60960D02*
D03*
X828040Y218440D02*
D03*
X861060Y76200D02*
D03*
X800100Y386328D02*
D03*
X919480Y55880D02*
D03*
X883920Y68580D02*
D03*
X993140Y287020D02*
D03*
X1008380Y459740D02*
D03*
X1155700Y287020D02*
D03*
X1249680Y256540D02*
D03*
X39878Y264922D02*
D03*
X148844Y329946D02*
D03*
X212598Y264922D02*
D03*
X244602Y318262D02*
D03*
X166116Y403860D02*
D03*
X202184Y403606D02*
D03*
X361696Y329946D02*
D03*
X152400Y462280D02*
D03*
X457708Y262128D02*
D03*
X404368Y312166D02*
D03*
X215900Y462280D02*
D03*
X356362Y403860D02*
D03*
X482600Y218388D02*
D03*
X566420Y88900D02*
D03*
X423418Y403606D02*
D03*
X342646Y462026D02*
D03*
X409702Y460756D02*
D03*
X632460Y20320D02*
D03*
X520700Y343108D02*
D03*
X624840Y146050D02*
D03*
X619760Y165100D02*
D03*
X707390Y26670D02*
D03*
X520700Y527460D02*
D03*
X769620Y22860D02*
D03*
X839470Y26670D02*
D03*
X774700Y218440D02*
D03*
X800100Y294329D02*
D03*
X919480Y30480D02*
D03*
X883920Y119380D02*
D03*
X863600Y248920D02*
D03*
X805180Y403860D02*
D03*
X975360Y30480D02*
D03*
X939800Y119380D02*
D03*
X1017270Y30480D02*
D03*
X958596Y403606D02*
D03*
X942340Y459740D02*
D03*
X1064260Y307340D02*
D03*
X1008380Y513080D02*
D03*
X1130300Y231140D02*
D03*
X1149096Y401066D02*
D03*
X1135380Y457200D02*
D03*
X1217676Y401320D02*
D03*
X1201420Y457200D02*
D03*
X533400Y292348D02*
D03*
X558800Y218388D02*
D03*
Y403606D02*
D03*
X533400Y476701D02*
D03*
X703580Y218440D02*
D03*
X723900Y294329D02*
D03*
X701040Y401320D02*
D03*
X723900Y476701D02*
D03*
X787400Y345088D02*
D03*
Y527460D02*
D03*
D29*
Y548080D02*
D03*
X723900Y456080D02*
D03*
X596900Y548080D02*
D03*
X787400Y365708D02*
D03*
X723900Y273708D02*
D03*
X596900Y363728D02*
D03*
X533400Y456080D02*
D03*
Y271728D02*
D03*
X800100Y456080D02*
D03*
Y273708D02*
D03*
X520700Y548080D02*
D03*
Y363728D02*
D03*
X800100Y365708D02*
D03*
Y548080D02*
D03*
X520700Y456080D02*
D03*
Y271728D02*
D03*
X723900Y548080D02*
D03*
Y365708D02*
D03*
X596900Y456080D02*
D03*
Y271728D02*
D03*
X508000Y363728D02*
D03*
X558800Y271728D02*
D03*
X584200Y363728D02*
D03*
X508000Y271728D02*
D03*
X533400Y363728D02*
D03*
X495300Y271728D02*
D03*
X546100D02*
D03*
X558800Y363728D02*
D03*
X546100D02*
D03*
X571500Y271728D02*
D03*
X584200D02*
D03*
X571500Y363728D02*
D03*
X812800Y548080D02*
D03*
X736600Y456080D02*
D03*
X762000Y548080D02*
D03*
X812800Y456080D02*
D03*
X749300D02*
D03*
X736600Y548080D02*
D03*
X749300D02*
D03*
X774700Y456080D02*
D03*
X762000D02*
D03*
X774700Y548080D02*
D03*
X825500D02*
D03*
X787400Y456080D02*
D03*
X571500Y548080D02*
D03*
X584200Y456080D02*
D03*
X571500D02*
D03*
X546100Y548080D02*
D03*
X558800D02*
D03*
X546100Y456080D02*
D03*
X495300D02*
D03*
X533400Y548080D02*
D03*
X508000Y456080D02*
D03*
X584200Y548080D02*
D03*
X558800Y456080D02*
D03*
X508000Y548080D02*
D03*
X749300Y273708D02*
D03*
X736600Y365708D02*
D03*
X749300D02*
D03*
X774700Y273708D02*
D03*
X762000D02*
D03*
X774700Y365708D02*
D03*
X825500D02*
D03*
X787400Y273708D02*
D03*
X812800Y365708D02*
D03*
X736600Y273708D02*
D03*
X762000Y365708D02*
D03*
X812800Y273708D02*
D03*
D30*
X574040Y403606D02*
D03*
X716280Y401320D02*
D03*
X718820Y218440D02*
D03*
X574040Y218388D02*
D03*
X1079500Y307340D02*
D03*
X878840Y304800D02*
D03*
X820420Y403860D02*
D03*
X1079500Y205740D02*
D03*
X635000Y165100D02*
D03*
X878840Y248920D02*
D03*
X789940Y218440D02*
D03*
X561340Y25400D02*
D03*
X497840Y403606D02*
D03*
X419608Y312166D02*
D03*
X442468Y262128D02*
D03*
X497840Y218388D02*
D03*
X843280Y403860D02*
D03*
X812800Y218440D02*
D03*
X584200Y25400D02*
D03*
X520700Y403606D02*
D03*
Y218388D02*
D03*
X739140Y401320D02*
D03*
X741680Y218440D02*
D03*
X596900Y403606D02*
D03*
Y218388D02*
D03*
X657860Y165100D02*
D03*
X332740Y578612D02*
D03*
X355600D02*
D03*
X1000760Y571500D02*
D03*
X1023620D02*
D03*
X1079500Y256540D02*
D03*
X1102360D02*
D03*
X419608Y262128D02*
D03*
X442468Y312166D02*
D03*
X901700Y248920D02*
D03*
Y304800D02*
D03*
X1102360Y205740D02*
D03*
Y307340D02*
D03*
D31*
X1201420Y472440D02*
D03*
X1135380D02*
D03*
X1249680Y294640D02*
D03*
X1008380Y497840D02*
D03*
X942340Y474980D02*
D03*
X861060Y38100D02*
D03*
X769620D02*
D03*
X939800Y215900D02*
D03*
X485140Y129540D02*
D03*
X409702Y475996D02*
D03*
X342646Y477266D02*
D03*
X384302Y231648D02*
D03*
X215900Y477520D02*
D03*
X152400D02*
D03*
X244602Y303022D02*
D03*
X212598Y280162D02*
D03*
X39878D02*
D03*
X1008380Y474980D02*
D03*
X1249680Y271780D02*
D03*
X769620Y60960D02*
D03*
X861060D02*
D03*
X523240Y50800D02*
D03*
X485140Y26670D02*
D03*
X39878Y303022D02*
D03*
X384302Y254508D02*
D03*
X998220Y147320D02*
D03*
Y124460D02*
D03*
X523240Y27940D02*
D03*
X485140Y49530D02*
D03*
Y106680D02*
D03*
X523240Y129540D02*
D03*
Y106680D02*
D03*
X1036320Y299720D02*
D03*
Y276860D02*
D03*
X212598Y303022D02*
D03*
X179578Y280162D02*
D03*
Y303022D02*
D03*
X244602Y280162D02*
D03*
X84836Y303022D02*
D03*
Y280162D02*
D03*
X279400Y535940D02*
D03*
Y558800D02*
D03*
X152400Y500380D02*
D03*
X215900D02*
D03*
X385318Y312166D02*
D03*
Y289306D02*
D03*
X939800Y304800D02*
D03*
Y281940D02*
D03*
X1071880Y561340D02*
D03*
Y538480D02*
D03*
X295402Y303022D02*
D03*
Y280162D02*
D03*
X1214120Y271780D02*
D03*
Y294640D02*
D03*
X409702Y498856D02*
D03*
X342646Y500126D02*
D03*
X939800Y238760D02*
D03*
X942340Y497840D02*
D03*
X1201420Y495300D02*
D03*
X1135380D02*
D03*
D32*
X1079500Y487680D02*
D03*
X949960Y571500D02*
D03*
X419608Y576834D02*
D03*
X289560Y487680D02*
D03*
X270510D02*
D03*
X400558Y576834D02*
D03*
X930910Y571500D02*
D03*
X1060450Y487680D02*
D03*
D33*
X1203960Y401320D02*
D03*
X1135380Y401066D02*
D03*
X1010920Y403860D02*
D03*
X944880Y403606D02*
D03*
X409702D02*
D03*
X342646Y403860D02*
D03*
X215900Y403606D02*
D03*
X152400Y403860D02*
D03*
Y371094D02*
D03*
X215900Y370840D02*
D03*
X342646Y371094D02*
D03*
X409702Y370840D02*
D03*
X1010920Y371094D02*
D03*
X944880Y370840D02*
D03*
X1203960Y368554D02*
D03*
X1135380Y368300D02*
D03*
D34*
X998220Y30480D02*
D03*
X820420Y26670D02*
D03*
X726440D02*
D03*
X820420Y60960D02*
D03*
X726440D02*
D03*
X998220Y64770D02*
D03*
D35*
X957580Y119380D02*
D03*
X901700D02*
D03*
Y30480D02*
D03*
X957580D02*
D03*
X901700Y68580D02*
D03*
Y55880D02*
D03*
X957580Y81280D02*
D03*
X901700D02*
D03*
X957580Y68580D02*
D03*
Y55880D02*
D03*
Y43180D02*
D03*
X901700D02*
D03*
Y93980D02*
D03*
Y106680D02*
D03*
X957580D02*
D03*
Y93980D02*
D03*
D36*
X1130300Y248920D02*
D03*
X967740D02*
D03*
X566420Y71120D02*
D03*
X632460Y38100D02*
D03*
X361696Y312166D02*
D03*
X148844D02*
D03*
X1155700Y304800D02*
D03*
X993140D02*
D03*
X579120Y71120D02*
D03*
X657860Y38100D02*
D03*
X336296Y256286D02*
D03*
X123444D02*
D03*
X632460Y93980D02*
D03*
X645160D02*
D03*
X670560Y38100D02*
D03*
Y93980D02*
D03*
X657860D02*
D03*
X645160Y38100D02*
D03*
X566420Y127000D02*
D03*
X591820Y71120D02*
D03*
Y127000D02*
D03*
X579120D02*
D03*
X553720Y71120D02*
D03*
Y127000D02*
D03*
X136144Y312166D02*
D03*
X123444D02*
D03*
X110744Y256286D02*
D03*
Y312166D02*
D03*
X136144Y256286D02*
D03*
X148844D02*
D03*
X348996Y312166D02*
D03*
X336296D02*
D03*
X323596Y256286D02*
D03*
Y312166D02*
D03*
X348996Y256286D02*
D03*
X361696D02*
D03*
X980440Y248920D02*
D03*
X993140D02*
D03*
X1005840Y304800D02*
D03*
Y248920D02*
D03*
X980440Y304800D02*
D03*
X967740D02*
D03*
X1143000Y248920D02*
D03*
X1155700D02*
D03*
X1168400Y304800D02*
D03*
Y248920D02*
D03*
X1143000Y304800D02*
D03*
X1130300D02*
D03*
D37*
X624840Y127000D02*
D03*
X659130D02*
D03*
D38*
X495300Y363728D02*
D03*
X825500Y456080D02*
D03*
X495300Y548080D02*
D03*
X825500Y273708D02*
D03*
D39*
X280162Y467360D02*
D03*
X410210Y556514D02*
D03*
X940562Y551180D02*
D03*
X1070102Y467360D02*
D03*
M02*
