G04*
G04 #@! TF.GenerationSoftware,Altium Limited,Altium Designer,24.2.2 (26)*
G04*
G04 Layer_Color=65535*
%FSLAX44Y44*%
%MOMM*%
G71*
G04*
G04 #@! TF.SameCoordinates,6AE4F847-9EFA-45B8-A2EA-998FC1DA7BFA*
G04*
G04*
G04 #@! TF.FilePolarity,Positive*
G04*
G01*
G75*
%ADD10C,0.2540*%
%ADD11C,0.3048*%
%ADD12C,0.2032*%
%ADD13C,0.1270*%
D10*
X299720Y133350D02*
G03*
X299720Y133350I-45720J0D01*
G01*
X218440Y158750D02*
G03*
X233680Y173990I5080J10160D01*
G01*
X807000Y133350D02*
G03*
X807000Y133350I-45000J0D01*
G01*
X727710Y162560D02*
G03*
X741532Y173891I6350J6350D01*
G01*
X1315720Y133350D02*
G03*
X1315720Y133350I-45720J0D01*
G01*
X1234440Y158750D02*
G03*
X1249680Y173990I5080J10160D01*
G01*
X1323340Y617220D02*
Y642620D01*
Y637540D02*
Y662940D01*
X1348740Y688340D02*
Y703580D01*
X1323340Y662940D02*
Y688340D01*
Y617220D02*
X1348740D01*
X1424940D02*
X1450340D01*
X1348740D02*
X1424940D01*
X1450340D02*
Y642620D01*
X1323340Y688340D02*
X1348740D01*
X1363980Y718820D02*
X1409700D01*
Y703580D02*
Y718820D01*
X1363980Y703580D02*
Y718820D01*
X1424940Y688340D02*
X1450340D01*
Y637540D02*
Y662940D01*
Y688340D01*
X1348740Y703580D02*
X1424940D01*
Y688340D02*
Y703580D01*
X767080Y144780D02*
Y149860D01*
X792480Y175260D01*
X800100D01*
X1306830Y170180D02*
X1315720D01*
X1278255Y141605D02*
X1306830Y170180D01*
X1278255Y141605D02*
X1278890Y142240D01*
X291592Y406400D02*
X276357D01*
Y414017D01*
X278896Y416557D01*
X283974D01*
X286514Y414017D01*
Y406400D01*
Y411478D02*
X291592Y416557D01*
Y431792D02*
Y421635D01*
X281435Y431792D01*
X278896D01*
X276357Y429253D01*
Y424174D01*
X278896Y421635D01*
Y436870D02*
X276357Y439409D01*
Y444488D01*
X278896Y447027D01*
X289053D01*
X291592Y444488D01*
Y439409D01*
X289053Y436870D01*
X278896D01*
X97282Y581152D02*
X82047D01*
Y588769D01*
X84586Y591309D01*
X89664D01*
X92204Y588769D01*
Y581152D01*
Y586230D02*
X97282Y591309D01*
Y596387D02*
Y601465D01*
Y598926D01*
X82047D01*
X84586Y596387D01*
X97282Y616701D02*
X82047D01*
X89664Y609083D01*
Y619240D01*
X160782Y581152D02*
X145547D01*
Y588769D01*
X148086Y591309D01*
X153165D01*
X155704Y588769D01*
Y581152D01*
Y586230D02*
X160782Y591309D01*
Y596387D02*
Y601465D01*
Y598926D01*
X145547D01*
X148086Y596387D01*
X145547Y619240D02*
Y609083D01*
X153165D01*
X150625Y614161D01*
Y616701D01*
X153165Y619240D01*
X158243D01*
X160782Y616701D01*
Y611622D01*
X158243Y609083D01*
X99060Y406400D02*
X83825D01*
Y414017D01*
X86364Y416557D01*
X91442D01*
X93982Y414017D01*
Y406400D01*
Y411478D02*
X99060Y416557D01*
Y421635D02*
Y426713D01*
Y424174D01*
X83825D01*
X86364Y421635D01*
X83825Y444488D02*
X86364Y439409D01*
X91442Y434331D01*
X96521D01*
X99060Y436870D01*
Y441949D01*
X96521Y444488D01*
X93982D01*
X91442Y441949D01*
Y434331D01*
X164338Y406400D02*
X149103D01*
Y414017D01*
X151642Y416557D01*
X156721D01*
X159260Y414017D01*
Y406400D01*
Y411478D02*
X164338Y416557D01*
Y421635D02*
Y426713D01*
Y424174D01*
X149103D01*
X151642Y421635D01*
X149103Y434331D02*
Y444488D01*
X151642D01*
X161799Y434331D01*
X164338D01*
X287782Y583692D02*
X272547D01*
Y591310D01*
X275086Y593849D01*
X280165D01*
X282704Y591310D01*
Y583692D01*
Y588770D02*
X287782Y593849D01*
Y598927D02*
Y604005D01*
Y601466D01*
X272547D01*
X275086Y598927D01*
Y611623D02*
X272547Y614162D01*
Y619240D01*
X275086Y621780D01*
X277625D01*
X280165Y619240D01*
X282704Y621780D01*
X285243D01*
X287782Y619240D01*
Y614162D01*
X285243Y611623D01*
X282704D01*
X280165Y614162D01*
X277625Y611623D01*
X275086D01*
X280165Y614162D02*
Y619240D01*
X351282Y581152D02*
X336047D01*
Y588769D01*
X338586Y591309D01*
X343665D01*
X346204Y588769D01*
Y581152D01*
Y586230D02*
X351282Y591309D01*
Y596387D02*
Y601465D01*
Y598926D01*
X336047D01*
X338586Y596387D01*
X348743Y609083D02*
X351282Y611622D01*
Y616701D01*
X348743Y619240D01*
X338586D01*
X336047Y616701D01*
Y611622D01*
X338586Y609083D01*
X341125D01*
X343665Y611622D01*
Y619240D01*
X354838Y406400D02*
X339603D01*
Y414017D01*
X342142Y416557D01*
X347220D01*
X349760Y414017D01*
Y406400D01*
Y411478D02*
X354838Y416557D01*
Y431792D02*
Y421635D01*
X344681Y431792D01*
X342142D01*
X339603Y429253D01*
Y424174D01*
X342142Y421635D01*
X354838Y436870D02*
Y441949D01*
Y439409D01*
X339603D01*
X342142Y436870D01*
X953262Y577342D02*
X938027D01*
Y584959D01*
X940566Y587499D01*
X945645D01*
X948184Y584959D01*
Y577342D01*
Y582420D02*
X953262Y587499D01*
Y602734D02*
Y592577D01*
X943105Y602734D01*
X940566D01*
X938027Y600195D01*
Y595116D01*
X940566Y592577D01*
X953262Y617969D02*
Y607812D01*
X943105Y617969D01*
X940566D01*
X938027Y615430D01*
Y610351D01*
X940566Y607812D01*
X956818Y406400D02*
X941583D01*
Y414017D01*
X944122Y416557D01*
X949201D01*
X951740Y414017D01*
Y406400D01*
Y411478D02*
X956818Y416557D01*
Y431792D02*
Y421635D01*
X946661Y431792D01*
X944122D01*
X941583Y429253D01*
Y424174D01*
X944122Y421635D01*
X956818Y444488D02*
X941583D01*
X949201Y436870D01*
Y447027D01*
X1020318Y406400D02*
X1005083D01*
Y414017D01*
X1007622Y416557D01*
X1012701D01*
X1015240Y414017D01*
Y406400D01*
Y411478D02*
X1020318Y416557D01*
Y431792D02*
Y421635D01*
X1010161Y431792D01*
X1007622D01*
X1005083Y429253D01*
Y424174D01*
X1007622Y421635D01*
X1005083Y447027D02*
Y436870D01*
X1012701D01*
X1010161Y441949D01*
Y444488D01*
X1012701Y447027D01*
X1017779D01*
X1020318Y444488D01*
Y439409D01*
X1017779Y436870D01*
X1209548Y578612D02*
X1194313D01*
Y586230D01*
X1196852Y588769D01*
X1201930D01*
X1204470Y586230D01*
Y578612D01*
Y583690D02*
X1209548Y588769D01*
Y604004D02*
Y593847D01*
X1199391Y604004D01*
X1196852D01*
X1194313Y601465D01*
Y596386D01*
X1196852Y593847D01*
X1194313Y609082D02*
Y619239D01*
X1196852D01*
X1207009Y609082D01*
X1209548D01*
X1147318Y406400D02*
X1132083D01*
Y414017D01*
X1134622Y416557D01*
X1139700D01*
X1142240Y414017D01*
Y406400D01*
Y411478D02*
X1147318Y416557D01*
Y431792D02*
Y421635D01*
X1137161Y431792D01*
X1134622D01*
X1132083Y429253D01*
Y424174D01*
X1134622Y421635D01*
Y436870D02*
X1132083Y439409D01*
Y444488D01*
X1134622Y447027D01*
X1137161D01*
X1139700Y444488D01*
X1142240Y447027D01*
X1144779D01*
X1147318Y444488D01*
Y439409D01*
X1144779Y436870D01*
X1142240D01*
X1139700Y439409D01*
X1137161Y436870D01*
X1134622D01*
X1139700Y439409D02*
Y444488D01*
X227838Y406400D02*
X212603D01*
Y414017D01*
X215142Y416557D01*
X220221D01*
X222760Y414017D01*
Y406400D01*
Y411478D02*
X227838Y416557D01*
Y421635D02*
Y429253D01*
X225299Y431792D01*
X222760Y429253D01*
Y424174D01*
X220221Y421635D01*
X217681Y424174D01*
Y431792D01*
X227838Y436870D02*
Y441949D01*
Y439409D01*
X212603D01*
X215142Y436870D01*
X418338Y406400D02*
X403103D01*
Y414017D01*
X405642Y416557D01*
X410720D01*
X413260Y414017D01*
Y406400D01*
Y411478D02*
X418338Y416557D01*
Y421635D02*
Y429253D01*
X415799Y431792D01*
X413260Y429253D01*
Y424174D01*
X410720Y421635D01*
X408181Y424174D01*
Y431792D01*
X418338Y447027D02*
Y436870D01*
X408181Y447027D01*
X405642D01*
X403103Y444488D01*
Y439409D01*
X405642Y436870D01*
X890778Y406400D02*
X875543D01*
Y414017D01*
X878082Y416557D01*
X883160D01*
X885700Y414017D01*
Y406400D01*
Y411478D02*
X890778Y416557D01*
Y421635D02*
Y429253D01*
X888239Y431792D01*
X885700Y429253D01*
Y424174D01*
X883160Y421635D01*
X880621Y424174D01*
Y431792D01*
X878082Y436870D02*
X875543Y439409D01*
Y444488D01*
X878082Y447027D01*
X880621D01*
X883160Y444488D01*
Y441949D01*
Y444488D01*
X885700Y447027D01*
X888239D01*
X890778Y444488D01*
Y439409D01*
X888239Y436870D01*
X1082040Y406400D02*
X1066805D01*
Y414017D01*
X1069344Y416557D01*
X1074423D01*
X1076962Y414017D01*
Y406400D01*
Y411478D02*
X1082040Y416557D01*
Y421635D02*
Y429253D01*
X1079501Y431792D01*
X1076962Y429253D01*
Y424174D01*
X1074423Y421635D01*
X1071883Y424174D01*
Y431792D01*
X1082040Y444488D02*
X1066805D01*
X1074423Y436870D01*
Y447027D01*
X937257Y688335D02*
X932178D01*
X934717D01*
Y675639D01*
X932178Y673100D01*
X929639D01*
X927100Y675639D01*
X949953Y673100D02*
Y688335D01*
X942335Y680717D01*
X952492D01*
X1201417Y203195D02*
X1196338D01*
X1198877D01*
Y190499D01*
X1196338Y187960D01*
X1193799D01*
X1191260Y190499D01*
X1216652Y187960D02*
X1206495D01*
X1216652Y198117D01*
Y200656D01*
X1214113Y203195D01*
X1209034D01*
X1206495Y200656D01*
X690877Y203195D02*
X685798D01*
X688337D01*
Y190499D01*
X685798Y187960D01*
X683259D01*
X680720Y190499D01*
X695955Y187960D02*
X701033D01*
X698494D01*
Y203195D01*
X695955Y200656D01*
X1480817Y688335D02*
X1475738D01*
X1478277D01*
Y675639D01*
X1475738Y673100D01*
X1473199D01*
X1470660Y675639D01*
X1496052Y688335D02*
X1485895D01*
Y680717D01*
X1490973Y683257D01*
X1493513D01*
X1496052Y680717D01*
Y675639D01*
X1493513Y673100D01*
X1488434D01*
X1485895Y675639D01*
X185417Y203195D02*
X180338D01*
X182878D01*
Y190499D01*
X180338Y187960D01*
X177799D01*
X175260Y190499D01*
X190495Y200656D02*
X193034Y203195D01*
X198113D01*
X200652Y200656D01*
Y198117D01*
X198113Y195578D01*
X195573D01*
X198113D01*
X200652Y193038D01*
Y190499D01*
X198113Y187960D01*
X193034D01*
X190495Y190499D01*
X1213358Y406400D02*
X1198123D01*
Y414017D01*
X1200662Y416557D01*
X1205741D01*
X1208280Y414017D01*
Y406400D01*
Y411478D02*
X1213358Y416557D01*
Y431792D02*
Y421635D01*
X1203201Y431792D01*
X1200662D01*
X1198123Y429253D01*
Y424174D01*
X1200662Y421635D01*
X1210819Y436870D02*
X1213358Y439409D01*
Y444488D01*
X1210819Y447027D01*
X1200662D01*
X1198123Y444488D01*
Y439409D01*
X1200662Y436870D01*
X1203201D01*
X1205741Y439409D01*
Y447027D01*
X1143762Y578612D02*
X1128527D01*
Y586230D01*
X1131066Y588769D01*
X1136144D01*
X1138684Y586230D01*
Y578612D01*
Y583690D02*
X1143762Y588769D01*
Y604004D02*
Y593847D01*
X1133605Y604004D01*
X1131066D01*
X1128527Y601465D01*
Y596386D01*
X1131066Y593847D01*
X1128527Y619239D02*
X1131066Y614160D01*
X1136144Y609082D01*
X1141223D01*
X1143762Y611621D01*
Y616700D01*
X1141223Y619239D01*
X1138684D01*
X1136144Y616700D01*
Y609082D01*
X1016762Y578612D02*
X1001527D01*
Y586230D01*
X1004066Y588769D01*
X1009145D01*
X1011684Y586230D01*
Y578612D01*
Y583690D02*
X1016762Y588769D01*
Y604004D02*
Y593847D01*
X1006605Y604004D01*
X1004066D01*
X1001527Y601465D01*
Y596386D01*
X1004066Y593847D01*
Y609082D02*
X1001527Y611621D01*
Y616700D01*
X1004066Y619239D01*
X1006605D01*
X1009145Y616700D01*
Y614160D01*
Y616700D01*
X1011684Y619239D01*
X1014223D01*
X1016762Y616700D01*
Y611621D01*
X1014223Y609082D01*
D11*
X1041146Y588772D02*
Y598932D01*
Y517652D02*
Y527812D01*
X1051306D02*
Y588772D01*
X1030986Y527812D02*
Y588772D01*
X1051306D01*
X1030986Y527812D02*
X1051306D01*
X1157986D02*
X1178306D01*
X1157986Y588772D02*
X1178306D01*
X1157986Y527812D02*
Y588772D01*
X1178306Y527812D02*
Y588772D01*
X1168146Y517652D02*
Y527812D01*
Y588772D02*
Y598932D01*
X1234694Y376428D02*
Y386588D01*
Y447548D02*
Y457708D01*
X1224534Y386588D02*
Y447548D01*
X1244854Y386588D02*
Y447548D01*
X1224534Y386588D02*
X1244854D01*
X1224534Y447548D02*
X1244854D01*
X1094994D02*
X1115314D01*
X1094994Y386588D02*
X1115314D01*
Y447548D01*
X1094994Y386588D02*
Y447548D01*
X1105154D02*
Y457708D01*
Y376428D02*
Y386588D01*
X901954Y447548D02*
X922274D01*
X901954Y386588D02*
X922274D01*
Y447548D01*
X901954Y386588D02*
Y447548D01*
X912114D02*
Y457708D01*
Y376428D02*
Y386588D01*
X312928Y376428D02*
Y386588D01*
Y447548D02*
Y457708D01*
X302768Y386588D02*
Y447548D01*
X323088Y386588D02*
Y447548D01*
X302768Y386588D02*
X323088D01*
X302768Y447548D02*
X323088D01*
X121666Y588772D02*
Y598932D01*
Y517652D02*
Y527812D01*
X131826D02*
Y588772D01*
X111506Y527812D02*
Y588772D01*
X131826D01*
X111506Y527812D02*
X131826D01*
X175006D02*
X195326D01*
X175006Y588772D02*
X195326D01*
X175006Y527812D02*
Y588772D01*
X195326Y527812D02*
Y588772D01*
X185166Y517652D02*
Y527812D01*
Y588772D02*
Y598932D01*
X249174Y376428D02*
Y386588D01*
Y447548D02*
Y457708D01*
X239014Y386588D02*
Y447548D01*
X259334Y386588D02*
Y447548D01*
X239014Y386588D02*
X259334D01*
X239014Y447548D02*
X259334D01*
X439674Y376428D02*
Y386588D01*
Y447548D02*
Y457708D01*
X429514Y386588D02*
Y447548D01*
X449834Y386588D02*
Y447548D01*
X429514Y386588D02*
X449834D01*
X429514Y447548D02*
X449834D01*
X312166Y591312D02*
Y601472D01*
Y520192D02*
Y530352D01*
X322326D02*
Y591312D01*
X302006Y530352D02*
Y591312D01*
X322326D01*
X302006Y530352D02*
X322326D01*
X977646Y588772D02*
Y598932D01*
Y517652D02*
Y527812D01*
X987806D02*
Y588772D01*
X967486Y527812D02*
Y588772D01*
X987806D01*
X967486Y527812D02*
X987806D01*
X967994Y447548D02*
X988314D01*
X967994Y386588D02*
X988314D01*
Y447548D01*
X967994Y386588D02*
Y447548D01*
X978154D02*
Y457708D01*
Y376428D02*
Y386588D01*
X365506Y527812D02*
X385826D01*
X365506Y588772D02*
X385826D01*
X365506Y527812D02*
Y588772D01*
X385826Y527812D02*
Y588772D01*
X375666Y517652D02*
Y527812D01*
Y588772D02*
Y598932D01*
X366014Y447548D02*
X386334D01*
X366014Y386588D02*
X386334D01*
Y447548D01*
X366014Y386588D02*
Y447548D01*
X376174D02*
Y457708D01*
Y376428D02*
Y386588D01*
X175514Y447548D02*
X195834D01*
X175514Y386588D02*
X195834D01*
Y447548D01*
X175514Y386588D02*
Y447548D01*
X185674D02*
Y457708D01*
Y376428D02*
Y386588D01*
X112014Y447548D02*
X132334D01*
X112014Y386588D02*
X132334D01*
Y447548D01*
X112014Y386588D02*
Y447548D01*
X122174D02*
Y457708D01*
Y376428D02*
Y386588D01*
X1031494Y447548D02*
X1051814D01*
X1031494Y386588D02*
X1051814D01*
Y447548D01*
X1031494Y386588D02*
Y447548D01*
X1041654D02*
Y457708D01*
Y376428D02*
Y386588D01*
X1233932Y588772D02*
Y598932D01*
Y517652D02*
Y527812D01*
X1244092D02*
Y588772D01*
X1223772Y527812D02*
Y588772D01*
X1244092D01*
X1223772Y527812D02*
X1244092D01*
X1158494Y447548D02*
X1178814D01*
X1158494Y386588D02*
X1178814D01*
Y447548D01*
X1158494Y386588D02*
Y447548D01*
X1168654D02*
Y457708D01*
Y376428D02*
Y386588D01*
D12*
X1028446Y489712D02*
Y565912D01*
X1053846Y489712D02*
Y565912D01*
X1028446Y489712D02*
X1053846D01*
X1028446Y565912D02*
X1053846D01*
X1155446D02*
X1180846D01*
X1155446Y489712D02*
X1180846D01*
Y565912D01*
X1155446Y489712D02*
Y565912D01*
X1247394Y409448D02*
Y485648D01*
X1221994Y409448D02*
Y485648D01*
X1247394D01*
X1221994Y409448D02*
X1247394D01*
X444500Y637540D02*
X876300D01*
X444500Y688340D02*
X876300D01*
X444500Y637540D02*
Y688340D01*
X876300Y637540D02*
Y688340D01*
X1092454Y409448D02*
X1117854D01*
X1092454Y485648D02*
X1117854D01*
X1092454Y409448D02*
Y485648D01*
X1117854Y409448D02*
Y485648D01*
X899414Y409448D02*
X924814D01*
X899414Y485648D02*
X924814D01*
X899414Y409448D02*
Y485648D01*
X924814Y409448D02*
Y485648D01*
X325628Y409448D02*
Y485648D01*
X300228Y409448D02*
Y485648D01*
X325628D01*
X300228Y409448D02*
X325628D01*
X108966Y489712D02*
Y565912D01*
X134366Y489712D02*
Y565912D01*
X108966Y489712D02*
X134366D01*
X108966Y565912D02*
X134366D01*
X172466D02*
X197866D01*
X172466Y489712D02*
X197866D01*
Y565912D01*
X172466Y489712D02*
Y565912D01*
X261874Y409448D02*
Y485648D01*
X236474Y409448D02*
Y485648D01*
X261874D01*
X236474Y409448D02*
X261874D01*
X452374D02*
Y485648D01*
X426974Y409448D02*
Y485648D01*
X452374D01*
X426974Y409448D02*
X452374D01*
X299466Y492252D02*
Y568452D01*
X324866Y492252D02*
Y568452D01*
X299466Y492252D02*
X324866D01*
X299466Y568452D02*
X324866D01*
X964946Y489712D02*
Y565912D01*
X990346Y489712D02*
Y565912D01*
X964946Y489712D02*
X990346D01*
X964946Y565912D02*
X990346D01*
X965454Y409448D02*
X990854D01*
X965454Y485648D02*
X990854D01*
X965454Y409448D02*
Y485648D01*
X990854Y409448D02*
Y485648D01*
X362966Y565912D02*
X388366D01*
X362966Y489712D02*
X388366D01*
Y565912D01*
X362966Y489712D02*
Y565912D01*
X363474Y409448D02*
X388874D01*
X363474Y485648D02*
X388874D01*
X363474Y409448D02*
Y485648D01*
X388874Y409448D02*
Y485648D01*
X172974Y409448D02*
X198374D01*
X172974Y485648D02*
X198374D01*
X172974Y409448D02*
Y485648D01*
X198374Y409448D02*
Y485648D01*
X109474Y409448D02*
X134874D01*
X109474Y485648D02*
X134874D01*
X109474Y409448D02*
Y485648D01*
X134874Y409448D02*
Y485648D01*
X1028954Y409448D02*
X1054354D01*
X1028954Y485648D02*
X1054354D01*
X1028954Y409448D02*
Y485648D01*
X1054354Y409448D02*
Y485648D01*
X1221232Y489712D02*
Y565912D01*
X1246632Y489712D02*
Y565912D01*
X1221232Y489712D02*
X1246632D01*
X1221232Y565912D02*
X1246632D01*
X1155954Y409448D02*
X1181354D01*
X1155954Y485648D02*
X1181354D01*
X1155954Y409448D02*
Y485648D01*
X1181354Y409448D02*
Y485648D01*
X878840Y681140D02*
X880956Y683256D01*
X885188D01*
X887304Y681140D01*
Y679024D01*
X885188Y676908D01*
X883072D01*
X885188D01*
X887304Y674792D01*
Y672676D01*
X885188Y670560D01*
X880956D01*
X878840Y672676D01*
X897884Y670560D02*
Y683256D01*
X891536Y676908D01*
X900000D01*
X878840Y655740D02*
X880956Y657856D01*
X885188D01*
X887304Y655740D01*
Y653624D01*
X885188Y651508D01*
X883072D01*
X885188D01*
X887304Y649392D01*
Y647276D01*
X885188Y645160D01*
X880956D01*
X878840Y647276D01*
X891536Y655740D02*
X893652Y657856D01*
X897884D01*
X900000Y655740D01*
Y653624D01*
X897884Y651508D01*
X895768D01*
X897884D01*
X900000Y649392D01*
Y647276D01*
X897884Y645160D01*
X893652D01*
X891536Y647276D01*
X426720Y645160D02*
X430952D01*
X428836D01*
Y657856D01*
X426720Y655740D01*
X435184Y670560D02*
X426720D01*
X435184Y679024D01*
Y681140D01*
X433068Y683256D01*
X428836D01*
X426720Y681140D01*
D13*
X144780Y138427D02*
X150705D01*
X147742D01*
Y129540D01*
X159592Y138427D02*
X153667D01*
Y129540D01*
X159592D01*
X153667Y133984D02*
X156629D01*
X162554Y129540D02*
Y138427D01*
X165517Y135465D01*
X168479Y138427D01*
Y129540D01*
X171441D02*
Y138427D01*
X175885D01*
X177366Y136946D01*
Y133984D01*
X175885Y132502D01*
X171441D01*
X180329Y128059D02*
X186253D01*
X189216Y138427D02*
Y129540D01*
X193659D01*
X195140Y131021D01*
Y136946D01*
X193659Y138427D01*
X189216D01*
X309880Y135887D02*
X315805D01*
X312842D01*
Y127000D01*
X324692Y135887D02*
X318767D01*
Y127000D01*
X324692D01*
X318767Y131444D02*
X321730D01*
X327654Y127000D02*
Y135887D01*
X330617Y132925D01*
X333579Y135887D01*
Y127000D01*
X336541D02*
Y135887D01*
X340985D01*
X342466Y134406D01*
Y131444D01*
X340985Y129962D01*
X336541D01*
X345429Y125519D02*
X351353D01*
X360240Y134406D02*
X358759Y135887D01*
X355797D01*
X354316Y134406D01*
Y128481D01*
X355797Y127000D01*
X358759D01*
X360240Y128481D01*
X363203Y135887D02*
Y127000D01*
X369128D01*
X372090Y135887D02*
Y127000D01*
Y129962D01*
X378015Y135887D01*
X373571Y131444D01*
X378015Y127000D01*
X241300Y80007D02*
Y71120D01*
X245744D01*
X247225Y72601D01*
Y78526D01*
X245744Y80007D01*
X241300D01*
X256112Y78526D02*
X254631Y80007D01*
X251668D01*
X250187Y78526D01*
Y72601D01*
X251668Y71120D01*
X254631D01*
X256112Y72601D01*
Y75564D01*
X253150D01*
X259074Y71120D02*
Y80007D01*
X264999Y71120D01*
Y80007D01*
X267961D02*
Y71120D01*
X272405D01*
X273886Y72601D01*
Y78526D01*
X272405Y80007D01*
X267961D01*
X241300Y192404D02*
X247225D01*
X244262Y195366D02*
Y189441D01*
X256112Y196847D02*
X250187D01*
Y192404D01*
X253150Y193885D01*
X254631D01*
X256112Y192404D01*
Y189441D01*
X254631Y187960D01*
X251668D01*
X250187Y189441D01*
X259074Y196847D02*
Y187960D01*
X263518D01*
X264999Y189441D01*
Y195366D01*
X263518Y196847D01*
X259074D01*
X668020Y132080D02*
Y138005D01*
X670982Y140967D01*
X673945Y138005D01*
Y132080D01*
Y136524D01*
X668020D01*
X676907Y139486D02*
X678388Y140967D01*
X681351D01*
X682832Y139486D01*
Y138005D01*
X681351Y136524D01*
X679870D01*
X681351D01*
X682832Y135042D01*
Y133561D01*
X681351Y132080D01*
X678388D01*
X676907Y133561D01*
X688757Y132080D02*
X685794Y135042D01*
Y138005D01*
X688757Y140967D01*
X699125Y132080D02*
X693200D01*
X699125Y138005D01*
Y139486D01*
X697644Y140967D01*
X694681D01*
X693200Y139486D01*
X702087Y132080D02*
X705050Y135042D01*
Y138005D01*
X702087Y140967D01*
X655320Y97787D02*
Y88900D01*
X659764D01*
X661245Y90381D01*
Y91862D01*
X659764Y93344D01*
X655320D01*
X659764D01*
X661245Y94825D01*
Y96306D01*
X659764Y97787D01*
X655320D01*
X670132Y88900D02*
X664207D01*
X670132Y94825D01*
Y96306D01*
X668651Y97787D01*
X665688D01*
X664207Y96306D01*
X673094Y88900D02*
X679019Y94825D01*
X681981Y93344D02*
X687906D01*
X684944Y96306D02*
Y90381D01*
X690869Y96306D02*
X692350Y97787D01*
X695312D01*
X696793Y96306D01*
Y94825D01*
X695312Y93344D01*
X693831D01*
X695312D01*
X696793Y91862D01*
Y90381D01*
X695312Y88900D01*
X692350D01*
X690869Y90381D01*
X702718Y88900D02*
X699756Y91862D01*
Y94825D01*
X702718Y97787D01*
X707162Y96306D02*
X708643Y97787D01*
X711605D01*
X713086Y96306D01*
Y94825D01*
X711605Y93344D01*
X710124D01*
X711605D01*
X713086Y91862D01*
Y90381D01*
X711605Y88900D01*
X708643D01*
X707162Y90381D01*
X716049Y88900D02*
X719011Y91862D01*
Y94825D01*
X716049Y97787D01*
X805180Y170180D02*
Y176105D01*
X808142Y179067D01*
X811105Y176105D01*
Y170180D01*
Y174624D01*
X805180D01*
X819992Y170180D02*
X814067D01*
X819992Y176105D01*
Y177586D01*
X818511Y179067D01*
X815548D01*
X814067Y177586D01*
X825917Y170180D02*
X822954Y173142D01*
Y176105D01*
X825917Y179067D01*
X836285D02*
X833323Y177586D01*
X830360Y174624D01*
Y171661D01*
X831841Y170180D01*
X834804D01*
X836285Y171661D01*
Y173142D01*
X834804Y174624D01*
X830360D01*
X839247Y170180D02*
X842210Y173142D01*
Y176105D01*
X839247Y179067D01*
X815340Y103504D02*
X821265D01*
X818302Y106466D02*
Y100541D01*
X830152Y99060D02*
X824227D01*
X830152Y104985D01*
Y106466D01*
X828671Y107947D01*
X825708D01*
X824227Y106466D01*
X836077Y99060D02*
X833114Y102022D01*
Y104985D01*
X836077Y107947D01*
X844964Y99060D02*
Y107947D01*
X840520Y103504D01*
X846445D01*
X849407Y99060D02*
X852370Y102022D01*
Y104985D01*
X849407Y107947D01*
X817880Y139700D02*
Y145625D01*
X820842Y148587D01*
X823805Y145625D01*
Y139700D01*
Y144144D01*
X817880D01*
X832692Y147106D02*
X831211Y148587D01*
X828248D01*
X826767Y147106D01*
Y141181D01*
X828248Y139700D01*
X831211D01*
X832692Y141181D01*
Y144144D01*
X829730D01*
X835654Y139700D02*
Y148587D01*
X841579Y139700D01*
Y148587D01*
X844541D02*
Y139700D01*
X848985D01*
X850466Y141181D01*
Y147106D01*
X848985Y148587D01*
X844541D01*
X853428Y139700D02*
X859353Y145625D01*
X862316Y144144D02*
X868240D01*
X865278Y147106D02*
Y141181D01*
X871203Y139700D02*
X874165D01*
X872684D01*
Y148587D01*
X871203Y147106D01*
X881571Y139700D02*
X878609Y142662D01*
Y145625D01*
X881571Y148587D01*
X891939D02*
X886015D01*
Y144144D01*
X888977Y145625D01*
X890458D01*
X891939Y144144D01*
Y141181D01*
X890458Y139700D01*
X887496D01*
X886015Y141181D01*
X894902Y139700D02*
X897864Y142662D01*
Y145625D01*
X894902Y148587D01*
X1249680Y192404D02*
X1255605D01*
X1252642Y195366D02*
Y189441D01*
X1263011Y187960D02*
Y196847D01*
X1258567Y192404D01*
X1264492D01*
X1270417Y187960D02*
X1267454Y190922D01*
Y193885D01*
X1270417Y196847D01*
X1274860Y187960D02*
X1277823D01*
X1276341D01*
Y196847D01*
X1274860Y195366D01*
X1282266Y187960D02*
X1285228Y190922D01*
Y193885D01*
X1282266Y196847D01*
X1249680Y68580D02*
Y74505D01*
X1252642Y77467D01*
X1255605Y74505D01*
Y68580D01*
Y73024D01*
X1249680D01*
X1264492Y75986D02*
X1263011Y77467D01*
X1260048D01*
X1258567Y75986D01*
Y70061D01*
X1260048Y68580D01*
X1263011D01*
X1264492Y70061D01*
Y73024D01*
X1261529D01*
X1267454Y68580D02*
Y77467D01*
X1273379Y68580D01*
Y77467D01*
X1276341D02*
Y68580D01*
X1280785D01*
X1282266Y70061D01*
Y75986D01*
X1280785Y77467D01*
X1276341D01*
X1288191Y68580D02*
X1285228Y71542D01*
Y74505D01*
X1288191Y77467D01*
X1292634Y75986D02*
X1294116Y77467D01*
X1297078D01*
X1298559Y75986D01*
Y74505D01*
X1297078Y73024D01*
X1295597D01*
X1297078D01*
X1298559Y71542D01*
Y70061D01*
X1297078Y68580D01*
X1294116D01*
X1292634Y70061D01*
X1301522Y68580D02*
X1304484Y71542D01*
Y74505D01*
X1301522Y77467D01*
X1320800Y172506D02*
X1322281Y173987D01*
X1325244D01*
X1326725Y172506D01*
Y171025D01*
X1325244Y169544D01*
X1323762D01*
X1325244D01*
X1326725Y168062D01*
Y166581D01*
X1325244Y165100D01*
X1322281D01*
X1320800Y166581D01*
X1329687Y165100D02*
Y173987D01*
X1334131D01*
X1335612Y172506D01*
Y169544D01*
X1334131Y168062D01*
X1329687D01*
X1332650D02*
X1335612Y165100D01*
X1338574Y173987D02*
Y165100D01*
X1343018D01*
X1344499Y166581D01*
Y172506D01*
X1343018Y173987D01*
X1338574D01*
X1350424Y165100D02*
X1347461Y168062D01*
Y171025D01*
X1350424Y173987D01*
X1360792D02*
X1354867D01*
Y169544D01*
X1357830Y171025D01*
X1359311D01*
X1360792Y169544D01*
Y166581D01*
X1359311Y165100D01*
X1356349D01*
X1354867Y166581D01*
X1363754Y165100D02*
X1366717Y168062D01*
Y171025D01*
X1363754Y173987D01*
X1173480Y135887D02*
Y127000D01*
X1177924D01*
X1179405Y128481D01*
Y129962D01*
X1177924Y131444D01*
X1173480D01*
X1177924D01*
X1179405Y132925D01*
Y134406D01*
X1177924Y135887D01*
X1173480D01*
X1186811Y127000D02*
Y135887D01*
X1182367Y131444D01*
X1188292D01*
X1194217Y127000D02*
X1191254Y129962D01*
Y132925D01*
X1194217Y135887D01*
X1204585Y127000D02*
X1198660D01*
X1204585Y132925D01*
Y134406D01*
X1203104Y135887D01*
X1200141D01*
X1198660Y134406D01*
X1207547Y127000D02*
X1210510Y129962D01*
Y132925D01*
X1207547Y135887D01*
X466093Y675640D02*
X474980D01*
Y680084D01*
X473499Y681565D01*
X467574D01*
X466093Y680084D01*
Y675640D01*
X467574Y690452D02*
X466093Y688971D01*
Y686008D01*
X467574Y684527D01*
X473499D01*
X474980Y686008D01*
Y688971D01*
X473499Y690452D01*
X470536D01*
Y687489D01*
X474980Y693414D02*
X466093D01*
X474980Y699339D01*
X466093D01*
Y702301D02*
X474980D01*
Y706745D01*
X473499Y708226D01*
X467574D01*
X466093Y706745D01*
Y702301D01*
X488953Y665480D02*
X494878D01*
X497840Y668442D01*
X494878Y671405D01*
X488953D01*
Y674367D02*
X497840D01*
Y678811D01*
X496359Y680292D01*
X494878D01*
X493396Y678811D01*
Y674367D01*
Y678811D01*
X491915Y680292D01*
X490434D01*
X488953Y678811D01*
Y674367D01*
X497840Y683254D02*
X491915D01*
X488953Y686217D01*
X491915Y689179D01*
X497840D01*
X493396D01*
Y683254D01*
X488953Y692141D02*
Y698066D01*
Y695104D01*
X497840D01*
X488953Y701029D02*
Y706953D01*
Y703991D01*
X497840D01*
X453393Y601980D02*
X462280D01*
Y606424D01*
X460799Y607905D01*
X454874D01*
X453393Y606424D01*
Y601980D01*
X454874Y616792D02*
X453393Y615311D01*
Y612348D01*
X454874Y610867D01*
X460799D01*
X462280Y612348D01*
Y615311D01*
X460799Y616792D01*
X457836D01*
Y613829D01*
X462280Y619754D02*
X453393D01*
X462280Y625679D01*
X453393D01*
Y628641D02*
X462280D01*
Y633085D01*
X460799Y634566D01*
X454874D01*
X453393Y633085D01*
Y628641D01*
X483236Y609600D02*
Y615525D01*
X480274Y612562D02*
X486199D01*
X478793Y624412D02*
Y618487D01*
X483236D01*
X481755Y621450D01*
Y622931D01*
X483236Y624412D01*
X486199D01*
X487680Y622931D01*
Y619968D01*
X486199Y618487D01*
X478793Y627374D02*
X487680D01*
Y631818D01*
X486199Y633299D01*
X480274D01*
X478793Y631818D01*
Y627374D01*
X542293Y665480D02*
X551180D01*
Y669924D01*
X549699Y671405D01*
X543774D01*
X542293Y669924D01*
Y665480D01*
X551180Y674367D02*
X542293D01*
Y678811D01*
X543774Y680292D01*
X546736D01*
X548218Y678811D01*
Y674367D01*
Y677329D02*
X551180Y680292D01*
X542293Y683254D02*
X551180D01*
Y687698D01*
X549699Y689179D01*
X543774D01*
X542293Y687698D01*
Y683254D01*
Y692141D02*
X543774D01*
X546736Y695104D01*
X543774Y698066D01*
X542293D01*
X546736Y695104D02*
X551180D01*
X543774Y701029D02*
X542293Y702510D01*
Y705472D01*
X543774Y706953D01*
X549699D01*
X551180Y705472D01*
Y702510D01*
X549699Y701029D01*
X543774D01*
X567693Y665480D02*
X576580D01*
Y669924D01*
X575099Y671405D01*
X569174D01*
X567693Y669924D01*
Y665480D01*
X576580Y674367D02*
X567693D01*
Y678811D01*
X569174Y680292D01*
X572136D01*
X573618Y678811D01*
Y674367D01*
Y677329D02*
X576580Y680292D01*
X567693Y683254D02*
X576580D01*
Y687698D01*
X575099Y689179D01*
X569174D01*
X567693Y687698D01*
Y683254D01*
Y692141D02*
X569174D01*
X572136Y695104D01*
X569174Y698066D01*
X567693D01*
X572136Y695104D02*
X576580D01*
Y701029D02*
Y703991D01*
Y702510D01*
X567693D01*
X569174Y701029D01*
X581874Y605365D02*
X580393Y603884D01*
Y600921D01*
X581874Y599440D01*
X583355D01*
X584836Y600921D01*
Y603884D01*
X586318Y605365D01*
X587799D01*
X589280Y603884D01*
Y600921D01*
X587799Y599440D01*
X580393Y608327D02*
X581874D01*
X584836Y611289D01*
X581874Y614252D01*
X580393D01*
X584836Y611289D02*
X589280D01*
Y617214D02*
X580393D01*
X589280Y623139D01*
X580393D01*
X581874Y632026D02*
X580393Y630545D01*
Y627583D01*
X581874Y626101D01*
X587799D01*
X589280Y627583D01*
Y630545D01*
X587799Y632026D01*
X607274Y612985D02*
X605793Y611504D01*
Y608541D01*
X607274Y607060D01*
X613199D01*
X614680Y608541D01*
Y611504D01*
X613199Y612985D01*
X607274Y621872D02*
X605793Y620391D01*
Y617428D01*
X607274Y615947D01*
X608755D01*
X610236Y617428D01*
Y620391D01*
X611718Y621872D01*
X613199D01*
X614680Y620391D01*
Y617428D01*
X613199Y615947D01*
X607274Y624834D02*
X605793Y626315D01*
Y629278D01*
X607274Y630759D01*
X608755D01*
X610236Y629278D01*
Y627797D01*
Y629278D01*
X611718Y630759D01*
X613199D01*
X614680Y629278D01*
Y626315D01*
X613199Y624834D01*
X556474Y597745D02*
X554993Y596264D01*
Y593301D01*
X556474Y591820D01*
X557955D01*
X559436Y593301D01*
Y596264D01*
X560918Y597745D01*
X562399D01*
X563880Y596264D01*
Y593301D01*
X562399Y591820D01*
X554993Y600707D02*
X563880D01*
X559436D01*
Y606632D01*
X554993D01*
X563880D01*
X554993Y609594D02*
X562399D01*
X563880Y611075D01*
Y614038D01*
X562399Y615519D01*
X554993D01*
X563880Y618481D02*
X554993D01*
X563880Y624406D01*
X554993D01*
Y627369D02*
Y633293D01*
Y630331D01*
X563880D01*
X593093Y665480D02*
X601980D01*
Y669924D01*
X600499Y671405D01*
X594574D01*
X593093Y669924D01*
Y665480D01*
X601980Y674367D02*
X593093D01*
Y678811D01*
X594574Y680292D01*
X597536D01*
X599018Y678811D01*
Y674367D01*
Y677329D02*
X601980Y680292D01*
X593093Y683254D02*
X601980D01*
Y687698D01*
X600499Y689179D01*
X594574D01*
X593093Y687698D01*
Y683254D01*
Y692141D02*
X594574D01*
X597536Y695104D01*
X594574Y698066D01*
X593093D01*
X597536Y695104D02*
X601980D01*
Y706953D02*
Y701029D01*
X596055Y706953D01*
X594574D01*
X593093Y705472D01*
Y702510D01*
X594574Y701029D01*
X618493Y665480D02*
X627380D01*
Y669924D01*
X625899Y671405D01*
X619974D01*
X618493Y669924D01*
Y665480D01*
X627380Y674367D02*
X618493D01*
Y678811D01*
X619974Y680292D01*
X622936D01*
X624418Y678811D01*
Y674367D01*
Y677329D02*
X627380Y680292D01*
X618493Y683254D02*
X627380D01*
Y687698D01*
X625899Y689179D01*
X619974D01*
X618493Y687698D01*
Y683254D01*
Y692141D02*
X619974D01*
X622936Y695104D01*
X619974Y698066D01*
X618493D01*
X622936Y695104D02*
X627380D01*
X619974Y701029D02*
X618493Y702510D01*
Y705472D01*
X619974Y706953D01*
X621455D01*
X622936Y705472D01*
Y703991D01*
Y705472D01*
X624418Y706953D01*
X625899D01*
X627380Y705472D01*
Y702510D01*
X625899Y701029D01*
X652780Y665480D02*
X643893D01*
Y669924D01*
X645374Y671405D01*
X648336D01*
X649818Y669924D01*
Y665480D01*
Y668442D02*
X652780Y671405D01*
X643893Y680292D02*
Y674367D01*
X652780D01*
Y680292D01*
X648336Y674367D02*
Y677329D01*
X645374Y689179D02*
X643893Y687698D01*
Y684735D01*
X645374Y683254D01*
X646855D01*
X648336Y684735D01*
Y687698D01*
X649818Y689179D01*
X651299D01*
X652780Y687698D01*
Y684735D01*
X651299Y683254D01*
X643893Y698066D02*
Y692141D01*
X652780D01*
Y698066D01*
X648336Y692141D02*
Y695104D01*
X643893Y701029D02*
Y706953D01*
Y703991D01*
X652780D01*
X678180Y675640D02*
X669293D01*
X672255Y678602D01*
X669293Y681565D01*
X678180D01*
X669293Y688971D02*
Y686008D01*
X670774Y684527D01*
X676699D01*
X678180Y686008D01*
Y688971D01*
X676699Y690452D01*
X670774D01*
X669293Y688971D01*
X670774Y699339D02*
X669293Y697858D01*
Y694895D01*
X670774Y693414D01*
X672255D01*
X673736Y694895D01*
Y697858D01*
X675218Y699339D01*
X676699D01*
X678180Y697858D01*
Y694895D01*
X676699Y693414D01*
X669293Y702301D02*
Y705264D01*
Y703783D01*
X678180D01*
Y702301D01*
Y705264D01*
X703580Y675640D02*
X694693D01*
X697655Y678602D01*
X694693Y681565D01*
X703580D01*
X694693Y684527D02*
Y687489D01*
Y686008D01*
X703580D01*
Y684527D01*
Y687489D01*
X696174Y697858D02*
X694693Y696377D01*
Y693414D01*
X696174Y691933D01*
X697655D01*
X699136Y693414D01*
Y696377D01*
X700618Y697858D01*
X702099D01*
X703580Y696377D01*
Y693414D01*
X702099Y691933D01*
X694693Y705264D02*
Y702301D01*
X696174Y700820D01*
X702099D01*
X703580Y702301D01*
Y705264D01*
X702099Y706745D01*
X696174D01*
X694693Y705264D01*
X632674Y612985D02*
X631193Y611504D01*
Y608541D01*
X632674Y607060D01*
X638599D01*
X640080Y608541D01*
Y611504D01*
X638599Y612985D01*
X632674Y621872D02*
X631193Y620391D01*
Y617428D01*
X632674Y615947D01*
X634155D01*
X635636Y617428D01*
Y620391D01*
X637118Y621872D01*
X638599D01*
X640080Y620391D01*
Y617428D01*
X638599Y615947D01*
X640080Y630759D02*
Y624834D01*
X634155Y630759D01*
X632674D01*
X631193Y629278D01*
Y626315D01*
X632674Y624834D01*
X658074Y615525D02*
X656593Y614044D01*
Y611081D01*
X658074Y609600D01*
X663999D01*
X665480Y611081D01*
Y614044D01*
X663999Y615525D01*
X658074Y624412D02*
X656593Y622931D01*
Y619968D01*
X658074Y618487D01*
X659555D01*
X661036Y619968D01*
Y622931D01*
X662518Y624412D01*
X663999D01*
X665480Y622931D01*
Y619968D01*
X663999Y618487D01*
X665480Y627374D02*
Y630337D01*
Y628855D01*
X656593D01*
X658074Y627374D01*
X683474Y612985D02*
X681993Y611504D01*
Y608541D01*
X683474Y607060D01*
X689399D01*
X690880Y608541D01*
Y611504D01*
X689399Y612985D01*
X683474Y621872D02*
X681993Y620391D01*
Y617428D01*
X683474Y615947D01*
X684955D01*
X686436Y617428D01*
Y620391D01*
X687918Y621872D01*
X689399D01*
X690880Y620391D01*
Y617428D01*
X689399Y615947D01*
X683474Y624834D02*
X681993Y626315D01*
Y629278D01*
X683474Y630759D01*
X689399D01*
X690880Y629278D01*
Y626315D01*
X689399Y624834D01*
X683474D01*
X708874Y605365D02*
X707393Y603884D01*
Y600921D01*
X708874Y599440D01*
X710355D01*
X711836Y600921D01*
Y603884D01*
X713318Y605365D01*
X714799D01*
X716280Y603884D01*
Y600921D01*
X714799Y599440D01*
X707393Y608327D02*
X716280D01*
Y612771D01*
X714799Y614252D01*
X708874D01*
X707393Y612771D01*
Y608327D01*
Y617214D02*
Y620177D01*
Y618695D01*
X716280D01*
Y617214D01*
Y620177D01*
X707393Y629064D02*
Y626101D01*
X708874Y624620D01*
X714799D01*
X716280Y626101D01*
Y629064D01*
X714799Y630545D01*
X708874D01*
X707393Y629064D01*
X721574Y671405D02*
X720093Y669924D01*
Y666961D01*
X721574Y665480D01*
X723055D01*
X724536Y666961D01*
Y669924D01*
X726018Y671405D01*
X727499D01*
X728980Y669924D01*
Y666961D01*
X727499Y665480D01*
X721574Y680292D02*
X720093Y678811D01*
Y675848D01*
X721574Y674367D01*
X727499D01*
X728980Y675848D01*
Y678811D01*
X727499Y680292D01*
X720093Y683254D02*
X728980D01*
X726018D01*
X720093Y689179D01*
X724536Y684735D01*
X728980Y689179D01*
X730461Y692141D02*
Y698066D01*
X728980Y701029D02*
X723055D01*
X720093Y703991D01*
X723055Y706953D01*
X728980D01*
X724536D01*
Y701029D01*
X746974Y671405D02*
X745493Y669924D01*
Y666961D01*
X746974Y665480D01*
X748455D01*
X749936Y666961D01*
Y669924D01*
X751418Y671405D01*
X752899D01*
X754380Y669924D01*
Y666961D01*
X752899Y665480D01*
X746974Y680292D02*
X745493Y678811D01*
Y675848D01*
X746974Y674367D01*
X752899D01*
X754380Y675848D01*
Y678811D01*
X752899Y680292D01*
X745493Y683254D02*
X754380D01*
X751418D01*
X745493Y689179D01*
X749936Y684735D01*
X754380Y689179D01*
X755861Y692141D02*
Y698066D01*
X745493Y701029D02*
X754380D01*
Y705472D01*
X752899Y706953D01*
X746974D01*
X745493Y705472D01*
Y701029D01*
X796293Y683260D02*
Y689185D01*
Y686222D01*
X805180D01*
X796293Y692147D02*
X805180D01*
Y696591D01*
X803699Y698072D01*
X797774D01*
X796293Y696591D01*
Y692147D01*
Y705478D02*
Y702515D01*
X797774Y701034D01*
X803699D01*
X805180Y702515D01*
Y705478D01*
X803699Y706959D01*
X797774D01*
X796293Y705478D01*
X822960Y702307D02*
X828885D01*
X825922D01*
Y693420D01*
X837772Y702307D02*
X831847D01*
Y693420D01*
X837772D01*
X831847Y697864D02*
X834809D01*
X840734Y693420D02*
Y702307D01*
X843697Y699345D01*
X846659Y702307D01*
Y693420D01*
X849621D02*
Y702307D01*
X854065D01*
X855546Y700826D01*
Y697864D01*
X854065Y696382D01*
X849621D01*
X858509Y691939D02*
X864433D01*
X873320Y700826D02*
X871839Y702307D01*
X868877D01*
X867396Y700826D01*
Y694901D01*
X868877Y693420D01*
X871839D01*
X873320Y694901D01*
X876283Y702307D02*
Y693420D01*
X882207D01*
X885170Y702307D02*
Y693420D01*
Y696382D01*
X891095Y702307D01*
X886651Y697864D01*
X891095Y693420D01*
X845820Y571500D02*
X839895D01*
X836933Y574462D01*
X839895Y577425D01*
X845820D01*
X841376D01*
Y571500D01*
X836933Y580387D02*
X844339D01*
X845820Y581868D01*
Y584831D01*
X844339Y586312D01*
X836933D01*
Y589274D02*
X845820Y595199D01*
X836933D02*
X845820Y589274D01*
X847301Y598161D02*
Y604086D01*
X838414Y612973D02*
X836933Y611492D01*
Y608530D01*
X838414Y607048D01*
X844339D01*
X845820Y608530D01*
Y611492D01*
X844339Y612973D01*
X836933Y615936D02*
X845820D01*
Y621860D01*
X836933Y624823D02*
X845820D01*
X842858D01*
X836933Y630747D01*
X841376Y626304D01*
X845820Y630747D01*
X808993Y607060D02*
Y612985D01*
Y610022D01*
X817880D01*
Y615947D02*
X808993D01*
X811955Y618909D01*
X808993Y621872D01*
X817880D01*
X810474Y630759D02*
X808993Y629278D01*
Y626315D01*
X810474Y624834D01*
X811955D01*
X813436Y626315D01*
Y629278D01*
X814918Y630759D01*
X816399D01*
X817880Y629278D01*
Y626315D01*
X816399Y624834D01*
X783593Y609600D02*
Y615525D01*
Y612562D01*
X792480D01*
X783593Y618487D02*
X792480D01*
Y622931D01*
X790999Y624412D01*
X785074D01*
X783593Y622931D01*
Y618487D01*
Y627374D02*
Y630337D01*
Y628855D01*
X792480D01*
Y627374D01*
Y630337D01*
X762000Y591820D02*
X753113D01*
Y596264D01*
X754594Y597745D01*
X757556D01*
X759038Y596264D01*
Y591820D01*
X753113Y606632D02*
Y600707D01*
X757556D01*
Y603670D01*
Y600707D01*
X762000D01*
Y609594D02*
X756075D01*
X753113Y612557D01*
X756075Y615519D01*
X762000D01*
X757556D01*
Y609594D01*
X753113Y618481D02*
Y621444D01*
Y619963D01*
X762000D01*
Y618481D01*
Y621444D01*
X753113Y625887D02*
X762000D01*
Y631812D01*
X734274Y605365D02*
X732793Y603884D01*
Y600921D01*
X734274Y599440D01*
X735755D01*
X737236Y600921D01*
Y603884D01*
X738718Y605365D01*
X740199D01*
X741680Y603884D01*
Y600921D01*
X740199Y599440D01*
X734274Y614252D02*
X732793Y612771D01*
Y609808D01*
X734274Y608327D01*
X740199D01*
X741680Y609808D01*
Y612771D01*
X740199Y614252D01*
X732793Y617214D02*
X741680D01*
Y623139D01*
X732793Y626101D02*
X741680D01*
X738718D01*
X732793Y632026D01*
X737236Y627583D01*
X741680Y632026D01*
X859793Y579120D02*
Y585045D01*
Y582082D01*
X868680D01*
X859793Y593932D02*
Y588007D01*
X868680D01*
Y593932D01*
X864236Y588007D02*
Y590970D01*
X868680Y596894D02*
X859793D01*
X862755Y599857D01*
X859793Y602819D01*
X868680D01*
Y605781D02*
X859793D01*
Y610225D01*
X861274Y611706D01*
X864236D01*
X865718Y610225D01*
Y605781D01*
X870161Y614669D02*
Y620593D01*
X859793Y623556D02*
X868680D01*
Y627999D01*
X867199Y629480D01*
X861274D01*
X859793Y627999D01*
Y623556D01*
X770893Y683260D02*
Y689185D01*
Y686222D01*
X779780D01*
X772374Y698072D02*
X770893Y696591D01*
Y693628D01*
X772374Y692147D01*
X778299D01*
X779780Y693628D01*
Y696591D01*
X778299Y698072D01*
X770893Y701034D02*
X779780D01*
X776818D01*
X770893Y706959D01*
X775336Y702515D01*
X779780Y706959D01*
X1344933Y571500D02*
X1350858D01*
X1353820Y574462D01*
X1350858Y577425D01*
X1344933D01*
Y580387D02*
X1353820D01*
Y584831D01*
X1352339Y586312D01*
X1350858D01*
X1349376Y584831D01*
Y580387D01*
Y584831D01*
X1347895Y586312D01*
X1346414D01*
X1344933Y584831D01*
Y580387D01*
X1353820Y589274D02*
X1347895D01*
X1344933Y592237D01*
X1347895Y595199D01*
X1353820D01*
X1349376D01*
Y589274D01*
X1344933Y598161D02*
Y604086D01*
Y601124D01*
X1353820D01*
X1344933Y607048D02*
Y612973D01*
Y610011D01*
X1353820D01*
X1379220Y581660D02*
X1373295D01*
X1370333Y584622D01*
X1373295Y587585D01*
X1379220D01*
X1374776D01*
Y581660D01*
X1371814Y596472D02*
X1370333Y594991D01*
Y592028D01*
X1371814Y590547D01*
X1377739D01*
X1379220Y592028D01*
Y594991D01*
X1377739Y596472D01*
X1374776D01*
Y593509D01*
X1379220Y599434D02*
X1370333D01*
X1379220Y605359D01*
X1370333D01*
Y608321D02*
X1379220D01*
Y612765D01*
X1377739Y614246D01*
X1371814D01*
X1370333Y612765D01*
Y608321D01*
X1395733Y563880D02*
X1401658D01*
X1404620Y566842D01*
X1401658Y569805D01*
X1395733D01*
Y572767D02*
Y578692D01*
Y575729D01*
X1404620D01*
Y581654D02*
X1395733D01*
Y586098D01*
X1397214Y587579D01*
X1400176D01*
X1401658Y586098D01*
Y581654D01*
Y584617D02*
X1404620Y587579D01*
Y590541D02*
X1398695D01*
X1395733Y593504D01*
X1398695Y596466D01*
X1404620D01*
X1400176D01*
Y590541D01*
X1404620Y599428D02*
X1395733D01*
X1404620Y605353D01*
X1395733D01*
X1397214Y614240D02*
X1395733Y612759D01*
Y609797D01*
X1397214Y608316D01*
X1398695D01*
X1400176Y609797D01*
Y612759D01*
X1401658Y614240D01*
X1403139D01*
X1404620Y612759D01*
Y609797D01*
X1403139Y608316D01*
X746760Y187960D02*
Y193885D01*
X749722Y196847D01*
X752685Y193885D01*
Y187960D01*
Y192404D01*
X746760D01*
X755647Y187960D02*
X758609D01*
X757128D01*
Y196847D01*
X755647Y195366D01*
X766015Y187960D02*
X763053Y190922D01*
Y193885D01*
X766015Y196847D01*
X770459Y187960D02*
X773421D01*
X771940D01*
Y196847D01*
X770459Y195366D01*
X777865Y187960D02*
X780827Y190922D01*
Y193885D01*
X777865Y196847D01*
X1328420Y127000D02*
Y132925D01*
X1331382Y135887D01*
X1334345Y132925D01*
Y127000D01*
Y131444D01*
X1328420D01*
X1341751Y127000D02*
Y135887D01*
X1337307Y131444D01*
X1343232D01*
X1349157Y127000D02*
X1346194Y129962D01*
Y132925D01*
X1349157Y135887D01*
X1358044Y127000D02*
Y135887D01*
X1353600Y131444D01*
X1359525D01*
X1362487Y127000D02*
X1365450Y129962D01*
Y132925D01*
X1362487Y135887D01*
M02*
