G04*
G04 #@! TF.GenerationSoftware,Altium Limited,Altium Designer,24.2.2 (26)*
G04*
G04 Layer_Color=32896*
%FSLAX44Y44*%
%MOMM*%
G71*
G04*
G04 #@! TF.SameCoordinates,6AE4F847-9EFA-45B8-A2EA-998FC1DA7BFA*
G04*
G04*
G04 #@! TF.FilePolarity,Positive*
G04*
G01*
G75*
%ADD10C,0.2540*%
%ADD11C,0.3048*%
%ADD12C,0.2032*%
%ADD40C,0.2000*%
D10*
X935990Y24130D02*
G03*
X923290Y24130I-6350J0D01*
G01*
X676910Y72390D02*
G03*
X676910Y59690I0J-6350D01*
G01*
X598170Y105410D02*
G03*
X598170Y92710I0J-6350D01*
G01*
X104394Y277876D02*
G03*
X104394Y290576I0J6350D01*
G01*
X317246Y277876D02*
G03*
X317246Y290576I0J6350D01*
G01*
X1174750Y283210D02*
G03*
X1174750Y270510I0J-6350D01*
G01*
X1012190Y283210D02*
G03*
X1012190Y270510I0J-6350D01*
G01*
X916940Y24130D02*
Y125730D01*
X942340D01*
Y24130D02*
Y125730D01*
X935990Y24130D02*
X942340D01*
X916940D02*
X923290D01*
X626110Y53340D02*
X676910D01*
X626110D02*
Y78740D01*
X676910D01*
Y72390D02*
Y78740D01*
Y53340D02*
Y59690D01*
X547370Y86360D02*
X598170D01*
X547370D02*
Y111760D01*
X598170D01*
Y105410D02*
Y111760D01*
Y86360D02*
Y92710D01*
X873760Y187960D02*
X955040D01*
Y167640D02*
Y187960D01*
X873760Y167640D02*
X955040D01*
X873760D02*
Y177800D01*
Y187960D01*
X177038Y236728D02*
X258318D01*
Y216408D02*
Y236728D01*
X177038Y216408D02*
X258318D01*
X177038D02*
Y226568D01*
Y236728D01*
X104394Y296926D02*
X155194D01*
Y271526D02*
Y296926D01*
X104394Y271526D02*
X155194D01*
X104394D02*
Y277876D01*
Y290576D02*
Y296926D01*
X111760Y650240D02*
Y660400D01*
Y640080D02*
Y650240D01*
Y640080D02*
X193040D01*
Y660400D01*
X111760D02*
X193040D01*
X142240Y360934D02*
X162560D01*
X142240Y355854D02*
X162560D01*
Y416814D01*
X142240D02*
X162560D01*
X142240Y355854D02*
Y416814D01*
X205740Y360680D02*
X226060D01*
X205740Y355600D02*
X226060D01*
Y416560D01*
X205740D02*
X226060D01*
X205740Y355600D02*
Y416560D01*
X934720Y360680D02*
X955040D01*
X934720Y355600D02*
X955040D01*
Y416560D01*
X934720D02*
X955040D01*
X934720Y355600D02*
Y416560D01*
X1000760Y360934D02*
X1021080D01*
X1000760Y355854D02*
X1021080D01*
Y416814D01*
X1000760D02*
X1021080D01*
X1000760Y355854D02*
Y416814D01*
X399542Y360680D02*
X419862D01*
X399542Y355600D02*
X419862D01*
Y416560D01*
X399542D02*
X419862D01*
X399542Y355600D02*
Y416560D01*
X332486Y360934D02*
X352806D01*
X332486Y355854D02*
X352806D01*
Y416814D01*
X332486D02*
X352806D01*
X332486Y355854D02*
Y416814D01*
X317246Y290576D02*
Y296926D01*
Y271526D02*
Y277876D01*
Y271526D02*
X368046D01*
Y296926D01*
X317246D02*
X368046D01*
X1125220Y358140D02*
X1145540D01*
X1125220Y353060D02*
X1145540D01*
Y414020D01*
X1125220D02*
X1145540D01*
X1125220Y353060D02*
Y414020D01*
X1193800Y358394D02*
X1214120D01*
X1193800Y353314D02*
X1214120D01*
Y414274D01*
X1193800D02*
X1214120D01*
X1193800Y353314D02*
Y414274D01*
X1174750Y264160D02*
Y270510D01*
Y283210D02*
Y289560D01*
X1123950D02*
X1174750D01*
X1123950Y264160D02*
Y289560D01*
Y264160D02*
X1174750D01*
X1012190D02*
Y270510D01*
Y283210D02*
Y289560D01*
X961390D02*
X1012190D01*
X961390Y264160D02*
Y289560D01*
Y264160D02*
X1012190D01*
X965200Y650240D02*
Y660400D01*
Y640080D02*
Y650240D01*
Y640080D02*
X1046480D01*
Y660400D01*
X965200D02*
X1046480D01*
X1148080D02*
X1173480D01*
X1148080Y640080D02*
Y660400D01*
Y640080D02*
X1173480D01*
X1244600D02*
Y660400D01*
X1219200Y640080D02*
X1244600D01*
X1198880D02*
X1219200D01*
X1173480D02*
X1198880D01*
X1173480Y660400D02*
X1244600D01*
X302006Y650240D02*
Y660400D01*
Y640080D02*
Y650240D01*
Y640080D02*
X383286D01*
Y660400D01*
X302006D02*
X383286D01*
X1170940Y205740D02*
Y215900D01*
Y195580D02*
Y205740D01*
Y195580D02*
X1252220D01*
Y215900D01*
X1170940D02*
X1252220D01*
X373380Y195326D02*
Y205486D01*
Y185166D02*
Y195326D01*
Y185166D02*
X454660D01*
Y205486D01*
X373380D02*
X454660D01*
X825500Y576580D02*
Y586740D01*
X774700Y576580D02*
Y596900D01*
X779780D01*
X825500D01*
Y586740D02*
Y596900D01*
X774700Y576580D02*
X825500D01*
X1325880Y261620D02*
Y271780D01*
X1376680Y251460D02*
Y271780D01*
X1371600Y251460D02*
X1376680D01*
X1325880D02*
X1371600D01*
X1325880D02*
Y261620D01*
Y271780D02*
X1376680D01*
X1325880Y322580D02*
Y332740D01*
X1376680Y312420D02*
Y332740D01*
X1371600Y312420D02*
X1376680D01*
X1325880D02*
X1371600D01*
X1325880D02*
Y322580D01*
Y332740D02*
X1376680D01*
X1325880Y207010D02*
Y217170D01*
X1376680Y196850D02*
Y217170D01*
X1371600Y196850D02*
X1376680D01*
X1325880D02*
X1371600D01*
X1325880D02*
Y207010D01*
Y217170D02*
X1376680D01*
X1325880Y441960D02*
Y452120D01*
X1376680Y431800D02*
Y452120D01*
X1371600Y431800D02*
X1376680D01*
X1325880D02*
X1371600D01*
X1325880D02*
Y441960D01*
Y452120D02*
X1376680D01*
X1325880Y381000D02*
Y391160D01*
X1376680Y370840D02*
Y391160D01*
X1371600Y370840D02*
X1376680D01*
X1325880D02*
X1371600D01*
X1325880D02*
Y381000D01*
Y391160D02*
X1376680D01*
X1295400Y500380D02*
Y510540D01*
Y490220D02*
Y500380D01*
Y490220D02*
X1376680D01*
Y510540D01*
X1295400D02*
X1376680D01*
X1295400Y558800D02*
Y568960D01*
Y548640D02*
Y558800D01*
Y548640D02*
X1376680D01*
Y568960D01*
X1295400D02*
X1376680D01*
X1113784Y274322D02*
Y289557D01*
X1106166D01*
X1103627Y287018D01*
Y281940D01*
X1106166Y279401D01*
X1113784D01*
X1108706D02*
X1103627Y274322D01*
X1098549D02*
X1093470D01*
X1096010D01*
Y289557D01*
X1098549Y287018D01*
X1075696Y274322D02*
X1085853D01*
X1075696Y284479D01*
Y287018D01*
X1078235Y289557D01*
X1083314D01*
X1085853Y287018D01*
X712465Y375866D02*
Y363170D01*
X709926Y360631D01*
X704847D01*
X702308Y363170D01*
Y375866D01*
X697230Y360631D02*
X692151D01*
X694690D01*
Y375866D01*
X697230Y373326D01*
X684534Y360631D02*
X679455D01*
X681994D01*
Y375866D01*
X684534Y373326D01*
X712464Y558746D02*
Y546050D01*
X709925Y543511D01*
X704846D01*
X702307Y546050D01*
Y558746D01*
X697229Y543511D02*
X692150D01*
X694690D01*
Y558746D01*
X697229Y556207D01*
X684533D02*
X681994Y558746D01*
X676915D01*
X674376Y556207D01*
Y546050D01*
X676915Y543511D01*
X681994D01*
X684533Y546050D01*
Y556207D01*
X634996Y561286D02*
Y548590D01*
X632457Y546051D01*
X627378D01*
X624839Y548590D01*
Y561286D01*
X619761Y548590D02*
X617222Y546051D01*
X612143D01*
X609604Y548590D01*
Y558746D01*
X612143Y561286D01*
X617222D01*
X619761Y558746D01*
Y556207D01*
X617222Y553668D01*
X609604D01*
X632456Y375866D02*
Y363170D01*
X629917Y360631D01*
X624838D01*
X622299Y363170D01*
Y375866D01*
X617221Y373326D02*
X614682Y375866D01*
X609603D01*
X607064Y373326D01*
Y370787D01*
X609603Y368248D01*
X607064Y365709D01*
Y363170D01*
X609603Y360631D01*
X614682D01*
X617221Y363170D01*
Y365709D01*
X614682Y368248D01*
X617221Y370787D01*
Y373326D01*
X614682Y368248D02*
X609603D01*
X1173480Y338831D02*
Y326135D01*
X1170941Y323596D01*
X1165863D01*
X1163323Y326135D01*
Y338831D01*
X1158245D02*
X1148088D01*
Y336292D01*
X1158245Y326135D01*
Y323596D01*
X1010920Y338831D02*
Y326135D01*
X1008381Y323596D01*
X1003303D01*
X1000763Y326135D01*
Y338831D01*
X985528D02*
X990607Y336292D01*
X995685Y331213D01*
Y326135D01*
X993146Y323596D01*
X988067D01*
X985528Y326135D01*
Y328674D01*
X988067Y331213D01*
X995685D01*
X366776Y346197D02*
Y333501D01*
X364237Y330962D01*
X359159D01*
X356619Y333501D01*
Y346197D01*
X341384D02*
X351541D01*
Y338579D01*
X346463Y341119D01*
X343923D01*
X341384Y338579D01*
Y333501D01*
X343923Y330962D01*
X349002D01*
X351541Y333501D01*
X153924Y346197D02*
Y333501D01*
X151385Y330962D01*
X146306D01*
X143767Y333501D01*
Y346197D01*
X131071Y330962D02*
Y346197D01*
X138689Y338579D01*
X128532D01*
X596900Y161031D02*
Y148335D01*
X594361Y145796D01*
X589282D01*
X586743Y148335D01*
Y161031D01*
X581665Y158492D02*
X579126Y161031D01*
X574047D01*
X571508Y158492D01*
Y155953D01*
X574047Y153413D01*
X576587D01*
X574047D01*
X571508Y150874D01*
Y148335D01*
X574047Y145796D01*
X579126D01*
X581665Y148335D01*
X966216Y149855D02*
Y137159D01*
X963677Y134620D01*
X958598D01*
X956059Y137159D01*
Y149855D01*
X940824Y134620D02*
X950981D01*
X940824Y144777D01*
Y147316D01*
X943363Y149855D01*
X948442D01*
X950981Y147316D01*
X673097Y22857D02*
Y10162D01*
X670557Y7623D01*
X665479D01*
X662940Y10162D01*
Y22857D01*
X657862Y7623D02*
X652783D01*
X655322D01*
Y22857D01*
X657862Y20318D01*
X1224534Y321564D02*
Y336799D01*
X1216917D01*
X1214377Y334260D01*
Y329182D01*
X1216917Y326642D01*
X1224534D01*
X1219456D02*
X1214377Y321564D01*
X1204221Y316486D02*
X1201681D01*
X1199142Y319025D01*
Y331721D01*
X1206760D01*
X1209299Y329182D01*
Y324103D01*
X1206760Y321564D01*
X1199142D01*
X1186446D02*
Y336799D01*
X1194064Y329182D01*
X1183907D01*
X1061713Y322582D02*
Y337817D01*
X1054096D01*
X1051557Y335277D01*
Y330199D01*
X1054096Y327660D01*
X1061713D01*
X1056635D02*
X1051557Y322582D01*
X1041400Y317503D02*
X1038861D01*
X1036322Y320042D01*
Y332738D01*
X1043939D01*
X1046478Y330199D01*
Y325121D01*
X1043939Y322582D01*
X1036322D01*
X1031243Y335277D02*
X1028704Y337817D01*
X1023626D01*
X1021087Y335277D01*
Y332738D01*
X1023626Y330199D01*
X1026165D01*
X1023626D01*
X1021087Y327660D01*
Y325121D01*
X1023626Y322582D01*
X1028704D01*
X1031243Y325121D01*
X305816Y329946D02*
Y345181D01*
X298199D01*
X295659Y342642D01*
Y337564D01*
X298199Y335024D01*
X305816D01*
X300738D02*
X295659Y329946D01*
X285503Y324868D02*
X282963D01*
X280424Y327407D01*
Y340103D01*
X288042D01*
X290581Y337564D01*
Y332485D01*
X288042Y329946D01*
X280424D01*
X265189D02*
X275346D01*
X265189Y340103D01*
Y342642D01*
X267728Y345181D01*
X272807D01*
X275346Y342642D01*
X95250Y329946D02*
Y345181D01*
X87633D01*
X85093Y342642D01*
Y337564D01*
X87633Y335024D01*
X95250D01*
X90172D02*
X85093Y329946D01*
X74937Y324868D02*
X72397D01*
X69858Y327407D01*
Y340103D01*
X77476D01*
X80015Y337564D01*
Y332485D01*
X77476Y329946D01*
X69858D01*
X64780D02*
X59701D01*
X62241D01*
Y345181D01*
X64780Y342642D01*
X1099566Y583184D02*
Y598419D01*
X1091948D01*
X1089409Y595880D01*
Y590802D01*
X1091948Y588262D01*
X1099566D01*
X1094488D02*
X1089409Y583184D01*
X1084331D02*
X1079253D01*
X1081792D01*
Y598419D01*
X1084331Y595880D01*
X1071635D02*
X1069096Y598419D01*
X1064017D01*
X1061478Y595880D01*
Y593341D01*
X1064017Y590802D01*
X1066557D01*
X1064017D01*
X1061478Y588262D01*
Y585723D01*
X1064017Y583184D01*
X1069096D01*
X1071635Y585723D01*
X1024885Y589282D02*
Y604518D01*
X1017267D01*
X1014728Y601978D01*
Y596900D01*
X1017267Y594361D01*
X1024885D01*
X1019806D02*
X1014728Y589282D01*
X1009650D02*
X1004571D01*
X1007110D01*
Y604518D01*
X1009650Y601978D01*
X996954Y589282D02*
X991875D01*
X994415D01*
Y604518D01*
X996954Y601978D01*
X967486Y326644D02*
Y341879D01*
X959868D01*
X957329Y339340D01*
Y334262D01*
X959868Y331722D01*
X967486D01*
X962408D02*
X957329Y326644D01*
X952251D02*
X947173D01*
X949712D01*
Y341879D01*
X952251Y339340D01*
X939555D02*
X937016Y341879D01*
X931937D01*
X929398Y339340D01*
Y329183D01*
X931937Y326644D01*
X937016D01*
X939555Y329183D01*
Y339340D01*
X354834Y595125D02*
Y610359D01*
X347216D01*
X344677Y607820D01*
Y602742D01*
X347216Y600203D01*
X354834D01*
X349756D02*
X344677Y595125D01*
X339599Y597664D02*
X337060Y595125D01*
X331981D01*
X329442Y597664D01*
Y607820D01*
X331981Y610359D01*
X337060D01*
X339599Y607820D01*
Y605281D01*
X337060Y602742D01*
X329442D01*
X400304Y334010D02*
Y349245D01*
X392687D01*
X390147Y346706D01*
Y341628D01*
X392687Y339088D01*
X400304D01*
X395226D02*
X390147Y334010D01*
X385069Y346706D02*
X382530Y349245D01*
X377451D01*
X374912Y346706D01*
Y344167D01*
X377451Y341628D01*
X374912Y339088D01*
Y336549D01*
X377451Y334010D01*
X382530D01*
X385069Y336549D01*
Y339088D01*
X382530Y341628D01*
X385069Y344167D01*
Y346706D01*
X382530Y341628D02*
X377451D01*
X294386Y580644D02*
Y595879D01*
X286768D01*
X284229Y593340D01*
Y588261D01*
X286768Y585722D01*
X294386D01*
X289308D02*
X284229Y580644D01*
X279151Y595879D02*
X268994D01*
Y593340D01*
X279151Y583183D01*
Y580644D01*
X189992Y324866D02*
Y340101D01*
X182374D01*
X179835Y337562D01*
Y332483D01*
X182374Y329944D01*
X189992D01*
X184914D02*
X179835Y324866D01*
X164600Y340101D02*
X169679Y337562D01*
X174757Y332483D01*
Y327405D01*
X172218Y324866D01*
X167139D01*
X164600Y327405D01*
Y329944D01*
X167139Y332483D01*
X174757D01*
X500126Y151384D02*
Y166619D01*
X492509D01*
X489969Y164080D01*
Y159002D01*
X492509Y156462D01*
X500126D01*
X495048D02*
X489969Y151384D01*
X474734Y166619D02*
X484891D01*
Y159002D01*
X479813Y161541D01*
X477273D01*
X474734Y159002D01*
Y153923D01*
X477273Y151384D01*
X482352D01*
X484891Y153923D01*
X535936Y147323D02*
Y162558D01*
X528318D01*
X525779Y160018D01*
Y154940D01*
X528318Y152401D01*
X535936D01*
X530858D02*
X525779Y147323D01*
X513083D02*
Y162558D01*
X520701Y154940D01*
X510544D01*
X500126Y71374D02*
Y86609D01*
X492509D01*
X489969Y84070D01*
Y78991D01*
X492509Y76452D01*
X500126D01*
X495048D02*
X489969Y71374D01*
X484891Y84070D02*
X482352Y86609D01*
X477273D01*
X474734Y84070D01*
Y81531D01*
X477273Y78991D01*
X479813D01*
X477273D01*
X474734Y76452D01*
Y73913D01*
X477273Y71374D01*
X482352D01*
X484891Y73913D01*
X538226Y72644D02*
Y87879D01*
X530608D01*
X528069Y85340D01*
Y80261D01*
X530608Y77722D01*
X538226D01*
X533148D02*
X528069Y72644D01*
X512834D02*
X522991D01*
X512834Y82801D01*
Y85340D01*
X515373Y87879D01*
X520452D01*
X522991Y85340D01*
X1008377Y165103D02*
Y180338D01*
X1000759D01*
X998220Y177798D01*
Y172720D01*
X1000759Y170181D01*
X1008377D01*
X1003298D02*
X998220Y165103D01*
X993142D02*
X988063D01*
X990602D01*
Y180338D01*
X993142Y177798D01*
X1073407Y503427D02*
Y513584D01*
X1075947Y516123D01*
X1081025D01*
X1083564Y513584D01*
Y503427D01*
X1081025Y500888D01*
X1075947D01*
X1078486Y505966D02*
X1073407Y500888D01*
X1075947D02*
X1073407Y503427D01*
X1060711Y500888D02*
Y516123D01*
X1068329Y508506D01*
X1058172D01*
X943867Y587247D02*
Y597404D01*
X946406Y599943D01*
X951485D01*
X954024Y597404D01*
Y587247D01*
X951485Y584708D01*
X946406D01*
X948946Y589786D02*
X943867Y584708D01*
X946406D02*
X943867Y587247D01*
X938789Y597404D02*
X936250Y599943D01*
X931171D01*
X928632Y597404D01*
Y594865D01*
X931171Y592326D01*
X933711D01*
X931171D01*
X928632Y589786D01*
Y587247D01*
X931171Y584708D01*
X936250D01*
X938789Y587247D01*
X413515Y592581D02*
Y602738D01*
X416054Y605277D01*
X421133D01*
X423672Y602738D01*
Y592581D01*
X421133Y590042D01*
X416054D01*
X418594Y595120D02*
X413515Y590042D01*
X416054D02*
X413515Y592581D01*
X398280Y590042D02*
X408437D01*
X398280Y600199D01*
Y602738D01*
X400819Y605277D01*
X405898D01*
X408437Y602738D01*
X276609Y503427D02*
Y513584D01*
X279149Y516123D01*
X284227D01*
X286766Y513584D01*
Y503427D01*
X284227Y500888D01*
X279149D01*
X281688Y505966D02*
X276609Y500888D01*
X279149D02*
X276609Y503427D01*
X271531Y500888D02*
X266453D01*
X268992D01*
Y516123D01*
X271531Y513584D01*
X814073Y621025D02*
X819152D01*
X816612D01*
Y608329D01*
X819152Y605790D01*
X821691D01*
X824230Y608329D01*
X808995Y605790D02*
Y621025D01*
X801377D01*
X798838Y618486D01*
Y613408D01*
X801377Y610868D01*
X808995D01*
X793760Y605790D02*
X788681D01*
X791221D01*
Y621025D01*
X793760Y618486D01*
X770907Y621025D02*
X775986Y618486D01*
X781064Y613408D01*
Y608329D01*
X778525Y605790D01*
X773446D01*
X770907Y608329D01*
Y610868D01*
X773446Y613408D01*
X781064D01*
X1365253Y241295D02*
X1370332D01*
X1367793D01*
Y228599D01*
X1370332Y226060D01*
X1372871D01*
X1375410Y228599D01*
X1360175Y226060D02*
Y241295D01*
X1352557D01*
X1350018Y238756D01*
Y233678D01*
X1352557Y231138D01*
X1360175D01*
X1344940Y226060D02*
X1339861D01*
X1342401D01*
Y241295D01*
X1344940Y238756D01*
X1322087Y241295D02*
X1332244D01*
Y233678D01*
X1327166Y236217D01*
X1324626D01*
X1322087Y233678D01*
Y228599D01*
X1324626Y226060D01*
X1329705D01*
X1332244Y228599D01*
X1365253Y295905D02*
X1370332D01*
X1367793D01*
Y283209D01*
X1370332Y280670D01*
X1372871D01*
X1375410Y283209D01*
X1360175Y280670D02*
Y295905D01*
X1352557D01*
X1350018Y293366D01*
Y288288D01*
X1352557Y285748D01*
X1360175D01*
X1344940Y280670D02*
X1339861D01*
X1342401D01*
Y295905D01*
X1344940Y293366D01*
X1324626Y280670D02*
Y295905D01*
X1332244Y288288D01*
X1322087D01*
X1365253Y356865D02*
X1370332D01*
X1367793D01*
Y344169D01*
X1370332Y341630D01*
X1372871D01*
X1375410Y344169D01*
X1360175Y341630D02*
Y356865D01*
X1352557D01*
X1350018Y354326D01*
Y349248D01*
X1352557Y346708D01*
X1360175D01*
X1344940Y341630D02*
X1339861D01*
X1342401D01*
Y356865D01*
X1344940Y354326D01*
X1332244D02*
X1329705Y356865D01*
X1324626D01*
X1322087Y354326D01*
Y351787D01*
X1324626Y349248D01*
X1327166D01*
X1324626D01*
X1322087Y346708D01*
Y344169D01*
X1324626Y341630D01*
X1329705D01*
X1332244Y344169D01*
X1365253Y415285D02*
X1370332D01*
X1367793D01*
Y402589D01*
X1370332Y400050D01*
X1372871D01*
X1375410Y402589D01*
X1360175Y400050D02*
Y415285D01*
X1352557D01*
X1350018Y412746D01*
Y407668D01*
X1352557Y405128D01*
X1360175D01*
X1344940Y400050D02*
X1339861D01*
X1342401D01*
Y415285D01*
X1344940Y412746D01*
X1322087Y400050D02*
X1332244D01*
X1322087Y410207D01*
Y412746D01*
X1324626Y415285D01*
X1329705D01*
X1332244Y412746D01*
X1365253Y476245D02*
X1370332D01*
X1367793D01*
Y463549D01*
X1370332Y461010D01*
X1372871D01*
X1375410Y463549D01*
X1360175Y461010D02*
Y476245D01*
X1352557D01*
X1350018Y473706D01*
Y468628D01*
X1352557Y466088D01*
X1360175D01*
X1344940Y461010D02*
X1339861D01*
X1342401D01*
Y476245D01*
X1344940Y473706D01*
X1332244Y461010D02*
X1327166D01*
X1329705D01*
Y476245D01*
X1332244Y473706D01*
X1233173Y684525D02*
X1238252D01*
X1235713D01*
Y671829D01*
X1238252Y669290D01*
X1240791D01*
X1243330Y671829D01*
X1228095Y669290D02*
Y684525D01*
X1220477D01*
X1217938Y681986D01*
Y676908D01*
X1220477Y674368D01*
X1228095D01*
X1212860Y669290D02*
X1207782D01*
X1210321D01*
Y684525D01*
X1212860Y681986D01*
X1200164D02*
X1197625Y684525D01*
X1192546D01*
X1190007Y681986D01*
Y671829D01*
X1192546Y669290D01*
X1197625D01*
X1200164Y671829D01*
Y681986D01*
X1240793Y240025D02*
X1245872D01*
X1243333D01*
Y227329D01*
X1245872Y224790D01*
X1248411D01*
X1250950Y227329D01*
X1235715Y224790D02*
Y240025D01*
X1228097D01*
X1225558Y237486D01*
Y232407D01*
X1228097Y229868D01*
X1235715D01*
X1220480Y227329D02*
X1217941Y224790D01*
X1212862D01*
X1210323Y227329D01*
Y237486D01*
X1212862Y240025D01*
X1217941D01*
X1220480Y237486D01*
Y234947D01*
X1217941Y232407D01*
X1210323D01*
X1035053Y684525D02*
X1040132D01*
X1037592D01*
Y671829D01*
X1040132Y669290D01*
X1042671D01*
X1045210Y671829D01*
X1029975Y669290D02*
Y684525D01*
X1022357D01*
X1019818Y681986D01*
Y676908D01*
X1022357Y674368D01*
X1029975D01*
X1014740Y681986D02*
X1012201Y684525D01*
X1007122D01*
X1004583Y681986D01*
Y679447D01*
X1007122Y676908D01*
X1004583Y674368D01*
Y671829D01*
X1007122Y669290D01*
X1012201D01*
X1014740Y671829D01*
Y674368D01*
X1012201Y676908D01*
X1014740Y679447D01*
Y681986D01*
X1012201Y676908D02*
X1007122D01*
X896617Y210818D02*
X901695D01*
X899156D01*
Y198122D01*
X901695Y195583D01*
X904234D01*
X906773Y198122D01*
X891538Y195583D02*
Y210818D01*
X883921D01*
X881382Y208278D01*
Y203200D01*
X883921Y200661D01*
X891538D01*
X876303Y210818D02*
X866147D01*
Y208278D01*
X876303Y198122D01*
Y195583D01*
X371859Y684525D02*
X376938D01*
X374398D01*
Y671829D01*
X376938Y669290D01*
X379477D01*
X382016Y671829D01*
X366781Y669290D02*
Y684525D01*
X359163D01*
X356624Y681986D01*
Y676908D01*
X359163Y674368D01*
X366781D01*
X341389Y684525D02*
X346468Y681986D01*
X351546Y676908D01*
Y671829D01*
X349007Y669290D01*
X343928D01*
X341389Y671829D01*
Y674368D01*
X343928Y676908D01*
X351546D01*
X443233Y229611D02*
X448312D01*
X445773D01*
Y216915D01*
X448312Y214376D01*
X450851D01*
X453390Y216915D01*
X438155Y214376D02*
Y229611D01*
X430537D01*
X427998Y227072D01*
Y221994D01*
X430537Y219454D01*
X438155D01*
X412763Y229611D02*
X422920D01*
Y221994D01*
X417841Y224533D01*
X415302D01*
X412763Y221994D01*
Y216915D01*
X415302Y214376D01*
X420381D01*
X422920Y216915D01*
X181613Y684525D02*
X186692D01*
X184153D01*
Y671829D01*
X186692Y669290D01*
X189231D01*
X191770Y671829D01*
X176535Y669290D02*
Y684525D01*
X168917D01*
X166378Y681986D01*
Y676908D01*
X168917Y674368D01*
X176535D01*
X153682Y669290D02*
Y684525D01*
X161300Y676908D01*
X151143D01*
X246891Y260853D02*
X251970D01*
X249431D01*
Y248157D01*
X251970Y245618D01*
X254509D01*
X257048Y248157D01*
X241813Y245618D02*
Y260853D01*
X234195D01*
X231656Y258314D01*
Y253235D01*
X234195Y250696D01*
X241813D01*
X226578Y258314D02*
X224039Y260853D01*
X218960D01*
X216421Y258314D01*
Y255775D01*
X218960Y253235D01*
X221500D01*
X218960D01*
X216421Y250696D01*
Y248157D01*
X218960Y245618D01*
X224039D01*
X226578Y248157D01*
X1365253Y534665D02*
X1370332D01*
X1367793D01*
Y521969D01*
X1370332Y519430D01*
X1372871D01*
X1375410Y521969D01*
X1360175Y519430D02*
Y534665D01*
X1352557D01*
X1350018Y532126D01*
Y527048D01*
X1352557Y524508D01*
X1360175D01*
X1334783Y519430D02*
X1344940D01*
X1334783Y529587D01*
Y532126D01*
X1337322Y534665D01*
X1342401D01*
X1344940Y532126D01*
X1365253Y593085D02*
X1370332D01*
X1367793D01*
Y580389D01*
X1370332Y577850D01*
X1372871D01*
X1375410Y580389D01*
X1360175Y577850D02*
Y593085D01*
X1352557D01*
X1350018Y590546D01*
Y585467D01*
X1352557Y582928D01*
X1360175D01*
X1344940Y577850D02*
X1339861D01*
X1342401D01*
Y593085D01*
X1344940Y590546D01*
X1144270Y438145D02*
Y422910D01*
X1136653D01*
X1134113Y425449D01*
Y435606D01*
X1136653Y438145D01*
X1144270D01*
X1129035Y435606D02*
X1126496Y438145D01*
X1121417D01*
X1118878Y435606D01*
Y433067D01*
X1121417Y430527D01*
X1118878Y427988D01*
Y425449D01*
X1121417Y422910D01*
X1126496D01*
X1129035Y425449D01*
Y427988D01*
X1126496Y430527D01*
X1129035Y433067D01*
Y435606D01*
X1126496Y430527D02*
X1121417D01*
X1212850Y438399D02*
Y423164D01*
X1205232D01*
X1202693Y425703D01*
Y435860D01*
X1205232Y438399D01*
X1212850D01*
X1197615D02*
X1187458D01*
Y435860D01*
X1197615Y425703D01*
Y423164D01*
X953770Y440685D02*
Y425450D01*
X946152D01*
X943613Y427989D01*
Y438146D01*
X946152Y440685D01*
X953770D01*
X928378D02*
X933457Y438146D01*
X938535Y433068D01*
Y427989D01*
X935996Y425450D01*
X930917D01*
X928378Y427989D01*
Y430528D01*
X930917Y433068D01*
X938535D01*
X1019810Y440939D02*
Y425704D01*
X1012193D01*
X1009653Y428243D01*
Y438400D01*
X1012193Y440939D01*
X1019810D01*
X994418D02*
X1004575D01*
Y433321D01*
X999497Y435861D01*
X996957D01*
X994418Y433321D01*
Y428243D01*
X996957Y425704D01*
X1002036D01*
X1004575Y428243D01*
X418592Y440685D02*
Y425450D01*
X410975D01*
X408435Y427989D01*
Y438146D01*
X410975Y440685D01*
X418592D01*
X395739Y425450D02*
Y440685D01*
X403357Y433068D01*
X393200D01*
X351536Y440939D02*
Y425704D01*
X343918D01*
X341379Y428243D01*
Y438400D01*
X343918Y440939D01*
X351536D01*
X336301Y438400D02*
X333762Y440939D01*
X328683D01*
X326144Y438400D01*
Y435861D01*
X328683Y433321D01*
X331223D01*
X328683D01*
X326144Y430782D01*
Y428243D01*
X328683Y425704D01*
X333762D01*
X336301Y428243D01*
X232410Y440685D02*
Y425450D01*
X224792D01*
X222253Y427989D01*
Y438146D01*
X224792Y440685D01*
X232410D01*
X207018Y425450D02*
X217175D01*
X207018Y435607D01*
Y438146D01*
X209557Y440685D01*
X214636D01*
X217175Y438146D01*
X161290Y440939D02*
Y425704D01*
X153673D01*
X151133Y428243D01*
Y438400D01*
X153673Y440939D01*
X161290D01*
X146055Y425704D02*
X140977D01*
X143516D01*
Y440939D01*
X146055Y438400D01*
X810257Y248918D02*
X812796Y251458D01*
X817874D01*
X820413Y248918D01*
Y238762D01*
X817874Y236222D01*
X812796D01*
X810257Y238762D01*
X805178Y248918D02*
X802639Y251458D01*
X797561D01*
X795022Y248918D01*
Y246379D01*
X797561Y243840D01*
X800100D01*
X797561D01*
X795022Y241301D01*
Y238762D01*
X797561Y236222D01*
X802639D01*
X805178Y238762D01*
X782326Y236222D02*
Y251458D01*
X789943Y243840D01*
X779787D01*
X744217Y248918D02*
X746756Y251458D01*
X751834D01*
X754373Y248918D01*
Y238762D01*
X751834Y236222D01*
X746756D01*
X744217Y238762D01*
X739138Y248918D02*
X736599Y251458D01*
X731521D01*
X728982Y248918D01*
Y246379D01*
X731521Y243840D01*
X734060D01*
X731521D01*
X728982Y241301D01*
Y238762D01*
X731521Y236222D01*
X736599D01*
X739138Y238762D01*
X723903Y248918D02*
X721364Y251458D01*
X716286D01*
X713747Y248918D01*
Y246379D01*
X716286Y243840D01*
X718825D01*
X716286D01*
X713747Y241301D01*
Y238762D01*
X716286Y236222D01*
X721364D01*
X723903Y238762D01*
X1140457Y528318D02*
X1142996Y530858D01*
X1148074D01*
X1150613Y528318D01*
Y518162D01*
X1148074Y515622D01*
X1142996D01*
X1140457Y518162D01*
X1135378Y528318D02*
X1132839Y530858D01*
X1127761D01*
X1125222Y528318D01*
Y525779D01*
X1127761Y523240D01*
X1130300D01*
X1127761D01*
X1125222Y520701D01*
Y518162D01*
X1127761Y515622D01*
X1132839D01*
X1135378Y518162D01*
X1109987Y515622D02*
X1120143D01*
X1109987Y525779D01*
Y528318D01*
X1112526Y530858D01*
X1117604D01*
X1120143Y528318D01*
X1206497Y525778D02*
X1209037Y528317D01*
X1214115D01*
X1216654Y525778D01*
Y515622D01*
X1214115Y513083D01*
X1209037D01*
X1206497Y515622D01*
X1201419Y525778D02*
X1198880Y528317D01*
X1193802D01*
X1191262Y525778D01*
Y523239D01*
X1193802Y520700D01*
X1196341D01*
X1193802D01*
X1191262Y518161D01*
Y515622D01*
X1193802Y513083D01*
X1198880D01*
X1201419Y515622D01*
X1186184Y513083D02*
X1181106D01*
X1183645D01*
Y528317D01*
X1186184Y525778D01*
X1269749Y329180D02*
X1272289Y331719D01*
X1277367D01*
X1279906Y329180D01*
Y319023D01*
X1277367Y316484D01*
X1272289D01*
X1269749Y319023D01*
X1264671Y329180D02*
X1262132Y331719D01*
X1257053D01*
X1254514Y329180D01*
Y326641D01*
X1257053Y324101D01*
X1259593D01*
X1257053D01*
X1254514Y321562D01*
Y319023D01*
X1257053Y316484D01*
X1262132D01*
X1264671Y319023D01*
X1249436Y329180D02*
X1246897Y331719D01*
X1241818D01*
X1239279Y329180D01*
Y319023D01*
X1241818Y316484D01*
X1246897D01*
X1249436Y319023D01*
Y329180D01*
X1107437Y337818D02*
X1109976Y340358D01*
X1115054D01*
X1117593Y337818D01*
Y327662D01*
X1115054Y325122D01*
X1109976D01*
X1107437Y327662D01*
X1092202Y325122D02*
X1102358D01*
X1092202Y335279D01*
Y337818D01*
X1094741Y340358D01*
X1099819D01*
X1102358Y337818D01*
X1087123Y327662D02*
X1084584Y325122D01*
X1079506D01*
X1076967Y327662D01*
Y337818D01*
X1079506Y340358D01*
X1084584D01*
X1087123Y337818D01*
Y335279D01*
X1084584Y332740D01*
X1076967D01*
X1104897Y236218D02*
X1107436Y238757D01*
X1112514D01*
X1115053Y236218D01*
Y226062D01*
X1112514Y223522D01*
X1107436D01*
X1104897Y226062D01*
X1089662Y223522D02*
X1099818D01*
X1089662Y233679D01*
Y236218D01*
X1092201Y238757D01*
X1097279D01*
X1099818Y236218D01*
X1084583D02*
X1082044Y238757D01*
X1076966D01*
X1074427Y236218D01*
Y233679D01*
X1076966Y231140D01*
X1074427Y228601D01*
Y226062D01*
X1076966Y223522D01*
X1082044D01*
X1084583Y226062D01*
Y228601D01*
X1082044Y231140D01*
X1084583Y233679D01*
Y236218D01*
X1082044Y231140D02*
X1076966D01*
X845817Y434338D02*
X848356Y436878D01*
X853434D01*
X855973Y434338D01*
Y424182D01*
X853434Y421642D01*
X848356D01*
X845817Y424182D01*
X830582Y421642D02*
X840738D01*
X830582Y431799D01*
Y434338D01*
X833121Y436878D01*
X838199D01*
X840738Y434338D01*
X825503Y436878D02*
X815347D01*
Y434338D01*
X825503Y424182D01*
Y421642D01*
X744217Y431798D02*
X746756Y434338D01*
X751834D01*
X754373Y431798D01*
Y421642D01*
X751834Y419103D01*
X746756D01*
X744217Y421642D01*
X728982Y419103D02*
X739138D01*
X728982Y429259D01*
Y431798D01*
X731521Y434338D01*
X736599D01*
X739138Y431798D01*
X713747Y434338D02*
X718825Y431798D01*
X723903Y426720D01*
Y421642D01*
X721364Y419103D01*
X716286D01*
X713747Y421642D01*
Y424181D01*
X716286Y426720D01*
X723903D01*
X1018537Y530858D02*
X1021076Y533397D01*
X1026154D01*
X1028693Y530858D01*
Y520702D01*
X1026154Y518162D01*
X1021076D01*
X1018537Y520702D01*
X1003302Y518162D02*
X1013458D01*
X1003302Y528319D01*
Y530858D01*
X1005841Y533397D01*
X1010919D01*
X1013458Y530858D01*
X988067Y533397D02*
X998223D01*
Y525780D01*
X993145Y528319D01*
X990606D01*
X988067Y525780D01*
Y520702D01*
X990606Y518162D01*
X995684D01*
X998223Y520702D01*
X944877Y530858D02*
X947416Y533397D01*
X952494D01*
X955033Y530858D01*
Y520702D01*
X952494Y518162D01*
X947416D01*
X944877Y520702D01*
X929642Y518162D02*
X939798D01*
X929642Y528319D01*
Y530858D01*
X932181Y533397D01*
X937259D01*
X939798Y530858D01*
X916946Y518162D02*
Y533397D01*
X924563Y525780D01*
X914407D01*
X990597Y218438D02*
X993136Y220977D01*
X998214D01*
X1000753Y218438D01*
Y208282D01*
X998214Y205742D01*
X993136D01*
X990597Y208282D01*
X975362Y205742D02*
X985518D01*
X975362Y215899D01*
Y218438D01*
X977901Y220977D01*
X982979D01*
X985518Y218438D01*
X970283D02*
X967744Y220977D01*
X962666D01*
X960127Y218438D01*
Y215899D01*
X962666Y213360D01*
X965205D01*
X962666D01*
X960127Y210821D01*
Y208282D01*
X962666Y205742D01*
X967744D01*
X970283Y208282D01*
X901697Y337818D02*
X904236Y340358D01*
X909314D01*
X911853Y337818D01*
Y327662D01*
X909314Y325122D01*
X904236D01*
X901697Y327662D01*
X886462Y325122D02*
X896618D01*
X886462Y335279D01*
Y337818D01*
X889001Y340358D01*
X894079D01*
X896618Y337818D01*
X871227Y325122D02*
X881383D01*
X871227Y335279D01*
Y337818D01*
X873766Y340358D01*
X878844D01*
X881383Y337818D01*
X901697Y279398D02*
X904237Y281938D01*
X909315D01*
X911854Y279398D01*
Y269242D01*
X909315Y266702D01*
X904237D01*
X901697Y269242D01*
X886462Y266702D02*
X896619D01*
X886462Y276859D01*
Y279398D01*
X889002Y281938D01*
X894080D01*
X896619Y279398D01*
X881384Y266702D02*
X876306D01*
X878845D01*
Y281938D01*
X881384Y279398D01*
X522729Y431798D02*
X525268Y434338D01*
X530346D01*
X532885Y431798D01*
Y421642D01*
X530346Y419103D01*
X525268D01*
X522729Y421642D01*
X507494Y419103D02*
X517650D01*
X507494Y429259D01*
Y431798D01*
X510033Y434338D01*
X515111D01*
X517650Y431798D01*
X502415D02*
X499876Y434338D01*
X494798D01*
X492259Y431798D01*
Y421642D01*
X494798Y419103D01*
X499876D01*
X502415Y421642D01*
Y431798D01*
X599437Y432052D02*
X601976Y434591D01*
X607055D01*
X609594Y432052D01*
Y421896D01*
X607055Y419356D01*
X601976D01*
X599437Y421896D01*
X594359Y419356D02*
X589280D01*
X591820D01*
Y434591D01*
X594359Y432052D01*
X581663Y421896D02*
X579124Y419356D01*
X574045D01*
X571506Y421896D01*
Y432052D01*
X574045Y434591D01*
X579124D01*
X581663Y432052D01*
Y429513D01*
X579124Y426974D01*
X571506D01*
X357629Y532128D02*
X360168Y534668D01*
X365247D01*
X367786Y532128D01*
Y521972D01*
X365247Y519432D01*
X360168D01*
X357629Y521972D01*
X352551Y519432D02*
X347472D01*
X350012D01*
Y534668D01*
X352551Y532128D01*
X339855D02*
X337316Y534668D01*
X332237D01*
X329698Y532128D01*
Y529589D01*
X332237Y527050D01*
X329698Y524511D01*
Y521972D01*
X332237Y519432D01*
X337316D01*
X339855Y521972D01*
Y524511D01*
X337316Y527050D01*
X339855Y529589D01*
Y532128D01*
X337316Y527050D02*
X332237D01*
X422907Y530350D02*
X425446Y532890D01*
X430525D01*
X433064Y530350D01*
Y520194D01*
X430525Y517654D01*
X425446D01*
X422907Y520194D01*
X417829Y517654D02*
X412750D01*
X415290D01*
Y532890D01*
X417829Y530350D01*
X405133Y532890D02*
X394976D01*
Y530350D01*
X405133Y520194D01*
Y517654D01*
X355089Y231900D02*
X357628Y234440D01*
X362707D01*
X365246Y231900D01*
Y221744D01*
X362707Y219205D01*
X357628D01*
X355089Y221744D01*
X350011Y219205D02*
X344932D01*
X347472D01*
Y234440D01*
X350011Y231900D01*
X327158Y234440D02*
X332237Y231900D01*
X337315Y226822D01*
Y221744D01*
X334776Y219205D01*
X329697D01*
X327158Y221744D01*
Y224283D01*
X329697Y226822D01*
X337315D01*
X444751Y342136D02*
X447290Y344675D01*
X452369D01*
X454908Y342136D01*
Y331980D01*
X452369Y329440D01*
X447290D01*
X444751Y331980D01*
X439673Y329440D02*
X434594D01*
X437134D01*
Y344675D01*
X439673Y342136D01*
X416820Y344675D02*
X426977D01*
Y337058D01*
X421898Y339597D01*
X419359D01*
X416820Y337058D01*
Y331980D01*
X419359Y329440D01*
X424438D01*
X426977Y331980D01*
X444243Y290574D02*
X446782Y293113D01*
X451861D01*
X454400Y290574D01*
Y280418D01*
X451861Y277878D01*
X446782D01*
X444243Y280418D01*
X439165Y277878D02*
X434086D01*
X436626D01*
Y293113D01*
X439165Y290574D01*
X418851Y277878D02*
Y293113D01*
X426469Y285496D01*
X416312D01*
X522227Y251710D02*
X524767Y254249D01*
X529845D01*
X532384Y251710D01*
Y241553D01*
X529845Y239014D01*
X524767D01*
X522227Y241553D01*
X517149Y239014D02*
X512071D01*
X514610D01*
Y254249D01*
X517149Y251710D01*
X504453D02*
X501914Y254249D01*
X496836D01*
X494296Y251710D01*
Y249171D01*
X496836Y246632D01*
X499375D01*
X496836D01*
X494296Y244092D01*
Y241553D01*
X496836Y239014D01*
X501914D01*
X504453Y241553D01*
X598427Y251710D02*
X600966Y254249D01*
X606045D01*
X608584Y251710D01*
Y241553D01*
X606045Y239014D01*
X600966D01*
X598427Y241553D01*
X593349Y239014D02*
X588271D01*
X590810D01*
Y254249D01*
X593349Y251710D01*
X570496Y239014D02*
X580653D01*
X570496Y249171D01*
Y251710D01*
X573036Y254249D01*
X578114D01*
X580653Y251710D01*
X164849Y534920D02*
X167388Y537459D01*
X172467D01*
X175006Y534920D01*
Y524763D01*
X172467Y522224D01*
X167388D01*
X164849Y524763D01*
X159771Y522224D02*
X154693D01*
X157232D01*
Y537459D01*
X159771Y534920D01*
X147075Y522224D02*
X141997D01*
X144536D01*
Y537459D01*
X147075Y534920D01*
X233429D02*
X235968Y537459D01*
X241047D01*
X243586Y534920D01*
Y524763D01*
X241047Y522224D01*
X235968D01*
X233429Y524763D01*
X228351Y522224D02*
X223273D01*
X225812D01*
Y537459D01*
X228351Y534920D01*
X215655D02*
X213116Y537459D01*
X208037D01*
X205498Y534920D01*
Y524763D01*
X208037Y522224D01*
X213116D01*
X215655Y524763D01*
Y534920D01*
X40135Y337562D02*
X42674Y340101D01*
X47753D01*
X50292Y337562D01*
Y327405D01*
X47753Y324866D01*
X42674D01*
X40135Y327405D01*
X35057D02*
X32518Y324866D01*
X27439D01*
X24900Y327405D01*
Y337562D01*
X27439Y340101D01*
X32518D01*
X35057Y337562D01*
Y335023D01*
X32518Y332483D01*
X24900D01*
X244859Y337562D02*
X247398Y340101D01*
X252477D01*
X255016Y337562D01*
Y327405D01*
X252477Y324866D01*
X247398D01*
X244859Y327405D01*
X239781Y337562D02*
X237242Y340101D01*
X232163D01*
X229624Y337562D01*
Y335023D01*
X232163Y332483D01*
X229624Y329944D01*
Y327405D01*
X232163Y324866D01*
X237242D01*
X239781Y327405D01*
Y329944D01*
X237242Y332483D01*
X239781Y335023D01*
Y337562D01*
X237242Y332483D02*
X232163D01*
X212855Y337562D02*
X215394Y340101D01*
X220473D01*
X223012Y337562D01*
Y327405D01*
X220473Y324866D01*
X215394D01*
X212855Y327405D01*
X207777Y340101D02*
X197620D01*
Y337562D01*
X207777Y327405D01*
Y324866D01*
X586739Y53338D02*
X589278Y55877D01*
X594357D01*
X596896Y53338D01*
Y43182D01*
X594357Y40642D01*
X589278D01*
X586739Y43182D01*
X571504Y55877D02*
X576582Y53338D01*
X581661Y48260D01*
Y43182D01*
X579122Y40642D01*
X574043D01*
X571504Y43182D01*
Y45721D01*
X574043Y48260D01*
X581661D01*
X863599Y91438D02*
X866138Y93977D01*
X871217D01*
X873756Y91438D01*
Y81282D01*
X871217Y78742D01*
X866138D01*
X863599Y81282D01*
X848364Y93977D02*
X858521D01*
Y86360D01*
X853443Y88899D01*
X850903D01*
X848364Y86360D01*
Y81282D01*
X850903Y78742D01*
X855982D01*
X858521Y81282D01*
X690879Y170178D02*
X693418Y172717D01*
X698497D01*
X701036Y170178D01*
Y160022D01*
X698497Y157483D01*
X693418D01*
X690879Y160022D01*
X678183Y157483D02*
Y172717D01*
X685801Y165100D01*
X675644D01*
X1000759Y97788D02*
X1003298Y100328D01*
X1008377D01*
X1010916Y97788D01*
Y87632D01*
X1008377Y85092D01*
X1003298D01*
X1000759Y87632D01*
X995681Y97788D02*
X993142Y100328D01*
X988063D01*
X985524Y97788D01*
Y95249D01*
X988063Y92710D01*
X990602D01*
X988063D01*
X985524Y90171D01*
Y87632D01*
X988063Y85092D01*
X993142D01*
X995681Y87632D01*
X784857Y91438D02*
X787396Y93977D01*
X792474D01*
X795013Y91438D01*
Y81282D01*
X792474Y78742D01*
X787396D01*
X784857Y81282D01*
X779778Y91438D02*
X777239Y93977D01*
X772161D01*
X769622Y91438D01*
Y88899D01*
X772161Y86360D01*
X774700D01*
X772161D01*
X769622Y83821D01*
Y81282D01*
X772161Y78742D01*
X777239D01*
X779778Y81282D01*
X764543Y93977D02*
Y78742D01*
X756926D01*
X754387Y81282D01*
Y83821D01*
X756926Y86360D01*
X764543D01*
X756926D01*
X754387Y88899D01*
Y91438D01*
X756926Y93977D01*
X764543D01*
X739137Y93978D02*
X741676Y96517D01*
X746754D01*
X749293Y93978D01*
Y83822D01*
X746754Y81283D01*
X741676D01*
X739137Y83822D01*
X734058Y93978D02*
X731519Y96517D01*
X726441D01*
X723902Y93978D01*
Y91439D01*
X726441Y88900D01*
X728980D01*
X726441D01*
X723902Y86361D01*
Y83822D01*
X726441Y81283D01*
X731519D01*
X734058Y83822D01*
X718823Y81283D02*
Y91439D01*
X713745Y96517D01*
X708667Y91439D01*
Y81283D01*
Y88900D01*
X718823D01*
X825499Y99058D02*
X828038Y101597D01*
X833117D01*
X835656Y99058D01*
Y88902D01*
X833117Y86362D01*
X828038D01*
X825499Y88902D01*
X810264Y86362D02*
X820421D01*
X810264Y96519D01*
Y99058D01*
X812803Y101597D01*
X817882D01*
X820421Y99058D01*
X690880Y132078D02*
X693419Y134618D01*
X698497D01*
X701037Y132078D01*
Y121922D01*
X698497Y119382D01*
X693419D01*
X690880Y121922D01*
X685802Y119382D02*
X680723D01*
X683262D01*
Y134618D01*
X685802Y132078D01*
D11*
X831850Y77470D02*
X836930Y72390D01*
X803910D02*
X808990Y77470D01*
X831850D01*
X803910Y11430D02*
X836930D01*
X803910Y52070D02*
Y72390D01*
X836930Y52070D02*
Y72390D01*
X803910Y11430D02*
Y38100D01*
X836930Y11430D02*
Y38100D01*
X849630Y25400D02*
X872490D01*
X849630Y73660D02*
X872490D01*
X849630Y25400D02*
Y44450D01*
X872490Y25400D02*
Y44450D01*
Y54610D02*
Y73660D01*
X849630Y54610D02*
Y73660D01*
X1009650Y81280D02*
X1014730Y76200D01*
X981710D02*
X986790Y81280D01*
X1009650D01*
X981710Y15240D02*
X1014730D01*
X981710Y55880D02*
Y76200D01*
X1014730Y55880D02*
Y76200D01*
X981710Y15240D02*
Y41910D01*
X1014730Y15240D02*
Y41910D01*
X986790Y111760D02*
X1009650D01*
X986790Y160020D02*
X1009650D01*
X986790Y111760D02*
Y130810D01*
X1009650Y111760D02*
Y130810D01*
Y140970D02*
Y160020D01*
X986790Y140970D02*
Y160020D01*
X758190Y25400D02*
X781050D01*
X758190Y73660D02*
X781050D01*
X758190Y25400D02*
Y44450D01*
X781050Y25400D02*
Y44450D01*
Y54610D02*
Y73660D01*
X758190Y54610D02*
Y73660D01*
X737870Y77470D02*
X742950Y72390D01*
X709930D02*
X715010Y77470D01*
X737870D01*
X709930Y11430D02*
X742950D01*
X709930Y52070D02*
Y72390D01*
X742950Y52070D02*
Y72390D01*
X709930Y11430D02*
Y38100D01*
X742950Y11430D02*
Y38100D01*
X670560Y110490D02*
X675640Y115570D01*
X670560Y143510D02*
X675640Y138430D01*
Y115570D02*
Y138430D01*
X609600Y110490D02*
Y143510D01*
X650240D02*
X670560D01*
X650240Y110490D02*
X670560D01*
X609600Y143510D02*
X636270D01*
X609600Y110490D02*
X636270D01*
X622300Y153670D02*
Y176530D01*
X670560Y153670D02*
Y176530D01*
X622300D02*
X641350D01*
X622300Y153670D02*
X641350D01*
X651510D02*
X670560D01*
X651510Y176530D02*
X670560D01*
X548640Y13970D02*
Y36830D01*
X596900Y13970D02*
Y36830D01*
X548640D02*
X567690D01*
X548640Y13970D02*
X567690D01*
X577850D02*
X596900D01*
X577850Y36830D02*
X596900D01*
X511810Y63500D02*
X534670D01*
X511810Y15240D02*
X534670D01*
Y44450D02*
Y63500D01*
X511810Y44450D02*
Y63500D01*
Y15240D02*
Y34290D01*
X534670Y15240D02*
Y34290D01*
X473710Y62230D02*
X496570D01*
X473710Y13970D02*
X496570D01*
Y43180D02*
Y62230D01*
X473710Y43180D02*
Y62230D01*
Y13970D02*
Y33020D01*
X496570Y13970D02*
Y33020D01*
X473710Y142240D02*
X496570D01*
X473710Y93980D02*
X496570D01*
Y123190D02*
Y142240D01*
X473710Y123190D02*
Y142240D01*
Y93980D02*
Y113030D01*
X496570Y93980D02*
Y113030D01*
X511810Y93980D02*
X534670D01*
X511810Y142240D02*
X534670D01*
X511810Y93980D02*
Y113030D01*
X534670Y93980D02*
Y113030D01*
Y123190D02*
Y142240D01*
X511810Y123190D02*
Y142240D01*
X1024890Y264160D02*
X1047750D01*
X1024890Y312420D02*
X1047750D01*
X1024890Y264160D02*
Y283210D01*
X1047750Y264160D02*
Y283210D01*
Y293370D02*
Y312420D01*
X1024890Y293370D02*
Y312420D01*
X28448Y267462D02*
X51308D01*
X28448Y315722D02*
X51308D01*
X28448Y267462D02*
Y286512D01*
X51308Y267462D02*
Y286512D01*
Y296672D02*
Y315722D01*
X28448Y296672D02*
Y315722D01*
X201168Y267462D02*
X224028D01*
X201168Y315722D02*
X224028D01*
X201168Y267462D02*
Y286512D01*
X224028Y267462D02*
Y286512D01*
Y296672D02*
Y315722D01*
X201168Y296672D02*
Y315722D01*
X168148Y267462D02*
X191008D01*
X168148Y315722D02*
X191008D01*
X168148Y267462D02*
Y286512D01*
X191008Y267462D02*
Y286512D01*
Y296672D02*
Y315722D01*
X168148Y296672D02*
Y315722D01*
X233172D02*
X256032D01*
X233172Y267462D02*
X256032D01*
Y296672D02*
Y315722D01*
X233172Y296672D02*
Y315722D01*
Y267462D02*
Y286512D01*
X256032Y267462D02*
Y286512D01*
X73406Y315722D02*
X96266D01*
X73406Y267462D02*
X96266D01*
Y296672D02*
Y315722D01*
X73406Y296672D02*
Y315722D01*
Y267462D02*
Y286512D01*
X96266Y267462D02*
Y286512D01*
X561340Y206958D02*
Y229818D01*
X609600Y206958D02*
Y229818D01*
X561340D02*
X580390D01*
X561340Y206958D02*
X580390D01*
X590550D02*
X609600D01*
X590550Y229818D02*
X609600D01*
X485140Y206958D02*
Y229818D01*
X533400Y206958D02*
Y229818D01*
X485140D02*
X504190D01*
X485140Y206958D02*
X504190D01*
X514350D02*
X533400D01*
X514350Y229818D02*
X533400D01*
X290830Y523240D02*
Y542290D01*
X267970Y523240D02*
Y542290D01*
Y552450D02*
Y571500D01*
X290830Y552450D02*
Y571500D01*
X267970Y523240D02*
X290830D01*
X267970Y571500D02*
X290830D01*
X294640Y466090D02*
Y477520D01*
X265430Y466090D02*
Y477520D01*
X289560Y466090D02*
X294640D01*
X279400Y488950D02*
X280670D01*
X265430Y466090D02*
X270510D01*
X140970Y494030D02*
Y513080D01*
X163830Y494030D02*
Y513080D01*
Y464820D02*
Y483870D01*
X140970Y464820D02*
Y483870D01*
Y513080D02*
X163830D01*
X140970Y464820D02*
X163830D01*
X204470Y494030D02*
Y513080D01*
X227330Y494030D02*
Y513080D01*
Y464820D02*
Y483870D01*
X204470Y464820D02*
Y483870D01*
Y513080D02*
X227330D01*
X204470Y464820D02*
X227330D01*
X424688Y555244D02*
Y566674D01*
X395478Y555244D02*
Y566674D01*
X419608Y555244D02*
X424688D01*
X409448Y578104D02*
X410718D01*
X395478Y555244D02*
X400558D01*
X349250Y590042D02*
X368300D01*
X349250Y567182D02*
X368300D01*
X320040D02*
X339090D01*
X320040Y590042D02*
X339090D01*
X368300Y567182D02*
Y590042D01*
X320040Y567182D02*
Y590042D01*
X306832Y267462D02*
Y286512D01*
X283972Y267462D02*
Y286512D01*
Y296672D02*
Y315722D01*
X306832Y296672D02*
Y315722D01*
X283972Y267462D02*
X306832D01*
X283972Y315722D02*
X306832D01*
X1083310Y525780D02*
Y544830D01*
X1060450Y525780D02*
Y544830D01*
Y554990D02*
Y574040D01*
X1083310Y554990D02*
Y574040D01*
X1060450Y525780D02*
X1083310D01*
X1060450Y574040D02*
X1083310D01*
X955040Y549910D02*
Y561340D01*
X925830Y549910D02*
Y561340D01*
X949960Y549910D02*
X955040D01*
X939800Y572770D02*
X941070D01*
X925830Y549910D02*
X930910D01*
X1017270Y582930D02*
X1036320D01*
X1017270Y560070D02*
X1036320D01*
X988060D02*
X1007110D01*
X988060Y582930D02*
X1007110D01*
X1036320Y560070D02*
Y582930D01*
X988060Y560070D02*
Y582930D01*
X895350Y260350D02*
X914400D01*
X895350Y237490D02*
X914400D01*
X866140D02*
X885190D01*
X866140Y260350D02*
X885190D01*
X914400Y237490D02*
Y260350D01*
X866140Y237490D02*
Y260350D01*
X895350Y316230D02*
X914400D01*
X895350Y293370D02*
X914400D01*
X866140D02*
X885190D01*
X866140Y316230D02*
X885190D01*
X914400Y293370D02*
Y316230D01*
X866140Y293370D02*
Y316230D01*
X331216Y493776D02*
Y512826D01*
X354076Y493776D02*
Y512826D01*
Y464566D02*
Y483616D01*
X331216Y464566D02*
Y483616D01*
Y512826D02*
X354076D01*
X331216Y464566D02*
X354076D01*
X928370Y232410D02*
Y251460D01*
X951230Y232410D02*
Y251460D01*
Y203200D02*
Y222250D01*
X928370Y203200D02*
Y222250D01*
Y251460D02*
X951230D01*
X928370Y203200D02*
X951230D01*
X1123950Y488950D02*
Y508000D01*
X1146810Y488950D02*
Y508000D01*
Y459740D02*
Y478790D01*
X1123950Y459740D02*
Y478790D01*
Y508000D02*
X1146810D01*
X1123950Y459740D02*
X1146810D01*
X1189990Y488950D02*
Y508000D01*
X1212850Y488950D02*
Y508000D01*
Y459740D02*
Y478790D01*
X1189990Y459740D02*
Y478790D01*
Y508000D02*
X1212850D01*
X1189990Y459740D02*
X1212850D01*
X1096010Y217170D02*
X1115060D01*
X1096010Y194310D02*
X1115060D01*
X1066800D02*
X1085850D01*
X1066800Y217170D02*
X1085850D01*
X1115060Y194310D02*
Y217170D01*
X1066800Y194310D02*
Y217170D01*
X1096010Y318770D02*
X1115060D01*
X1096010Y295910D02*
X1115060D01*
X1066800D02*
X1085850D01*
X1066800Y318770D02*
X1085850D01*
X1115060Y295910D02*
Y318770D01*
X1066800Y295910D02*
Y318770D01*
X930910Y491490D02*
Y510540D01*
X953770Y491490D02*
Y510540D01*
Y462280D02*
Y481330D01*
X930910Y462280D02*
Y481330D01*
Y510540D02*
X953770D01*
X930910Y462280D02*
X953770D01*
X396748Y276606D02*
Y295656D01*
X373888Y276606D02*
Y295656D01*
Y305816D02*
Y324866D01*
X396748Y305816D02*
Y324866D01*
X373888Y276606D02*
X396748D01*
X373888Y324866D02*
X396748D01*
X398272Y492506D02*
Y511556D01*
X421132Y492506D02*
Y511556D01*
Y463296D02*
Y482346D01*
X398272Y463296D02*
Y482346D01*
Y511556D02*
X421132D01*
X398272Y463296D02*
X421132D01*
X436118Y323596D02*
X455168D01*
X436118Y300736D02*
X455168D01*
X406908D02*
X425958D01*
X406908Y323596D02*
X425958D01*
X455168Y300736D02*
Y323596D01*
X406908Y300736D02*
Y323596D01*
Y250698D02*
X425958D01*
X406908Y273558D02*
X425958D01*
X436118D02*
X455168D01*
X436118Y250698D02*
X455168D01*
X406908D02*
Y273558D01*
X455168Y250698D02*
Y273558D01*
X951230Y269240D02*
Y288290D01*
X928370Y269240D02*
Y288290D01*
Y298450D02*
Y317500D01*
X951230Y298450D02*
Y317500D01*
X928370Y269240D02*
X951230D01*
X928370Y317500D02*
X951230D01*
X372872Y248158D02*
Y267208D01*
X395732Y248158D02*
Y267208D01*
Y218948D02*
Y237998D01*
X372872Y218948D02*
Y237998D01*
Y267208D02*
X395732D01*
X372872Y218948D02*
X395732D01*
X1096010Y267970D02*
X1115060D01*
X1096010Y245110D02*
X1115060D01*
X1066800D02*
X1085850D01*
X1066800Y267970D02*
X1085850D01*
X1115060Y245110D02*
Y267970D01*
X1066800Y245110D02*
Y267970D01*
X1084580Y466090D02*
Y477520D01*
X1055370Y466090D02*
Y477520D01*
X1079500Y466090D02*
X1084580D01*
X1069340Y488950D02*
X1070610D01*
X1055370Y466090D02*
X1060450D01*
X1202690Y288290D02*
Y307340D01*
X1225550Y288290D02*
Y307340D01*
Y259080D02*
Y278130D01*
X1202690Y259080D02*
Y278130D01*
Y307340D02*
X1225550D01*
X1202690Y259080D02*
X1225550D01*
X1261110D02*
Y278130D01*
X1238250Y259080D02*
Y278130D01*
Y288290D02*
Y307340D01*
X1261110Y288290D02*
Y307340D01*
X1238250Y259080D02*
X1261110D01*
X1238250Y307340D02*
X1261110D01*
X1019810Y462280D02*
Y481330D01*
X996950Y462280D02*
Y481330D01*
Y491490D02*
Y510540D01*
X1019810Y491490D02*
Y510540D01*
X996950Y462280D02*
X1019810D01*
X996950Y510540D02*
X1019810D01*
X836930Y415290D02*
X855980D01*
X836930Y392430D02*
X855980D01*
X807720D02*
X826770D01*
X807720Y415290D02*
X826770D01*
X855980Y392430D02*
Y415290D01*
X807720Y392430D02*
Y415290D01*
X732790Y412750D02*
X751840D01*
X732790Y389890D02*
X751840D01*
X703580D02*
X722630D01*
X703580Y412750D02*
X722630D01*
X751840Y389890D02*
Y412750D01*
X703580Y389890D02*
Y412750D01*
X590550Y415036D02*
X609600D01*
X590550Y392176D02*
X609600D01*
X561340D02*
X580390D01*
X561340Y415036D02*
X580390D01*
X609600Y392176D02*
Y415036D01*
X561340Y392176D02*
Y415036D01*
X514350D02*
X533400D01*
X514350Y392176D02*
X533400D01*
X485140D02*
X504190D01*
X485140Y415036D02*
X504190D01*
X533400Y392176D02*
Y415036D01*
X485140Y392176D02*
Y415036D01*
X735330Y229870D02*
X754380D01*
X735330Y207010D02*
X754380D01*
X706120D02*
X725170D01*
X706120Y229870D02*
X725170D01*
X754380Y207010D02*
Y229870D01*
X706120Y207010D02*
Y229870D01*
X806450D02*
X825500D01*
X806450Y207010D02*
X825500D01*
X777240D02*
X796290D01*
X777240Y229870D02*
X796290D01*
X825500Y207010D02*
Y229870D01*
X777240Y207010D02*
Y229870D01*
D12*
X162560Y398399D02*
Y400939D01*
X142240Y398399D02*
Y400939D01*
X226060Y398145D02*
Y400685D01*
X205740Y398145D02*
Y400685D01*
X955040Y398145D02*
Y400685D01*
X934720Y398145D02*
Y400685D01*
X1021080Y398399D02*
Y400939D01*
X1000760Y398399D02*
Y400939D01*
X419862Y398145D02*
Y400685D01*
X399542Y398145D02*
Y400685D01*
X352806Y398399D02*
Y400939D01*
X332486Y398399D02*
Y400939D01*
X1145540Y395605D02*
Y398145D01*
X1125220Y395605D02*
Y398145D01*
X1214120Y395859D02*
Y398399D01*
X1193800Y395859D02*
Y398399D01*
D40*
X484250Y311378D02*
G03*
X484250Y324078I0J6350D01*
G01*
X836550Y508430D02*
G03*
X836550Y495731I0J-6350D01*
G01*
X484250Y495730D02*
G03*
X484250Y508430I0J6350D01*
G01*
X836550Y326059D02*
G03*
X836550Y313358I0J-6350D01*
G01*
X484250Y324078D02*
Y355728D01*
X486300D01*
X605900D02*
X607950D01*
Y279728D02*
Y355728D01*
X605900Y279728D02*
X607950D01*
X484250D02*
X486300D01*
X484250D02*
Y311378D01*
X836550Y464080D02*
Y495730D01*
X834500Y464080D02*
X836550D01*
X712850D02*
X714900D01*
X712850D02*
Y540081D01*
X714900D01*
X834500D02*
X836550D01*
Y508430D02*
Y540081D01*
X484250Y508430D02*
Y540080D01*
X486300D01*
X605900D02*
X607950D01*
Y464080D02*
Y540080D01*
X605900Y464080D02*
X607950D01*
X484250D02*
X486300D01*
X484250D02*
Y495730D01*
X836550Y281708D02*
Y313358D01*
X834500Y281708D02*
X836550D01*
X712850D02*
X714900D01*
X712850D02*
Y357709D01*
X714900D01*
X834500D02*
X836550D01*
Y326058D02*
Y357709D01*
M02*
