M48
;Layer_Color=9474304
;FILE_FORMAT=4:4
METRIC,LZ
;TYPE=PLATED
T01F00S00C0.7112
T02F00S00C1.0160
T03F00S00C1.0668
T04F00S00C1.2700
T05F00S00C3.1750
%
T01
X0101727Y0003048
X0097536
X0091948
X0086614Y0002286
X0083947Y0002667
X0076962Y0002286
X0070739Y0002667
X0065786Y0002032
X0063246
X0059944Y000254
X005461Y0002032
X0048514Y0001143
X00118364Y00274066
X00148844Y00329946
X00166116Y0040386
X00202184Y00403606
X00039878Y00318262
Y00264922
X00212598
X00220472Y00317754
X00244602Y00318262
X00361696Y00329946
X00404368Y00312166
X00384302Y00269748
X00336296Y00274066
X00379222Y00216408
X004826Y00218388
X0053594
X005588
X005461Y00235966
X005207Y00251108
X0051435Y002921
X005334Y00292348
X004953Y00304038
X005207Y00343108
X0059182
X005715Y00387858
X005588Y00403606
X0054864Y00419608
X0053594Y00408686
X004826Y00393446
X00423418Y00403606
X00356362Y0040386
X00457708Y00262128
X0049022Y0014478
X0041656Y00125476
X0052324Y0006604
X0056642Y000889
X0057912Y0005334
X005969Y00251108
X0061214Y00223468
X0061976Y001651
X0062484Y0014605
X0070358Y0021844
X0075692
X007747
X0082804
X008128Y00249682
X008636Y0024892
X0085852Y0029464
X00823214Y00293878
X008001Y00294329
X007874Y00345088
X007747Y00334264
X008001Y00386328
X0080518Y0040386
X0075438Y0040132
X00738124Y00416481
X00721106Y00419608
X0070104Y0040132
X0061214Y00403606
X007239Y00294329
X00881126Y0032639
X00906145Y00322199
X00900176Y0034544
X0096774Y00328422
X0095504Y002921
X0099314Y0028702
X0097282Y0023114
X0092329Y0024511
X0093472Y0020066
X009398Y0011938
X0088392
Y0006858
X0086106Y000762
X0083947Y0007112
X0076454Y000762
X0070739Y0006096
X0091948Y0005588
X00958596Y00403606
X0085852Y0039878
X01024636
X01149096Y00401066
X01217676Y0040132
X0125984Y0030988
X0124968Y0025654
X01208786Y0023622
X011303Y0023114
X011557Y0028702
X010795Y00277622
X0106426Y0030734
X010541Y0020574
X01291336Y00200152
X01320038Y0021336
X0136398Y00301244
X0120142Y004572
X0113538
X01089787Y00510213
X0100838Y0051308
Y0045974
X01096264Y0059309
X00960247Y00543887
X0094234Y0045974
X00823214Y0043434
X0081026Y0047625
X0079502Y00476701
X007747Y00497332
X00751332Y00486918
X007239Y00476701
X00705612Y00500126
X00702564Y00497078
X00666242Y00506222
X0066294Y00485648
X0063754Y0052578
X00609854Y00540766
X00630428Y00444246
X0069088Y00446786
X007239Y005687
X0080518
X007874Y0052746
X00838708Y0052451
X00943102Y00641858
X0095377Y00670052
X00526288Y00633476
X00439928Y00656336
X00429895Y00554301
X00384048Y00567944
X00409702Y00460756
X00342646Y00462026
X00299847Y00445335
X002159Y0046228
X005334Y00476701
X0052578Y0043546
X005969
X0059944Y00485648
X005715Y00488442
Y00521716
X0059182Y0052746
X00543052Y00525272
X005207Y0052746
X001524Y0046228
T02
X00192278Y00226568
X00185674Y00363728
X00122174
X00249174
X00312928
X00376174
X00439674
X0043942Y00195326
X0041402
X0038862
X00243078Y00226568
X00217678
X00889Y001778
X009144
X009398
X00912114Y00363728
X00978154
X01041654
X01105154
X01168654
X01234694
X0133858Y00381
X0136398
Y0032258
X0133858
Y0026162
X0136398
Y0020701
X0133858
X0123698Y0020574
X0121158
X0118618
X011684Y004318
X01168654Y00470408
X01168146Y00504952
X011684Y0054356
X01234186
X01233932Y00504952
X01234694Y00470408
X0123444Y004318
X0133858Y0044196
X0136398
X0136144Y0050038
X0133604
X0131064
Y005588
X0133604
X0136144
X01233932Y00611632
X0123444Y0065024
X0120904
X0118364
X0115824
X01168146Y00611632
X01041146
X0103124Y0065024
X0100584
X010414Y0054356
X01041146Y00504952
X01041654Y00470408
X010414Y004318
X011049
X01105154Y00470408
X00978154
X00977646Y00504952
X009779Y0054356
X00977646Y00611632
X0098044Y0065024
X008636
Y0067564
X008382
Y0065024
X008128
X007874
Y0067564
X00762
X007366
X007112
X006858
X006604
X00635
X006096
Y0065024
X00635
X006604
X006858
X007112
X007366
X00762
X007874Y0058674
X008128
X00912114Y00470408
X0091186Y004318
X009779
X0043942
X00439674Y00470408
X00376174
X00375666Y00504952
X0037592Y0054356
X0031242Y005461
X00312166Y00507492
X00312928Y00470408
X00312674Y004318
X0037592
X0024892
X00249174Y00470408
X00312166Y00614172
X00317246Y0065024
X00342646
X00368046
X00375666Y00611632
X004572Y0065024
Y0067564
X004826
Y0065024
X00508
X005334
Y0067564
X00508
X005588
X005842
Y0065024
X005588
X001778
X001524
X00127
X00121666Y00611632
X00185166
X0018542Y0054356
X00185166Y00504952
X00185674Y00470408
X0018542Y004318
X0012192
X00122174Y00470408
X00121666Y00504952
X0012192Y0054356
T03
X008128Y0067564
T04
X00254Y0010835
Y0013335
X00229
X00254Y0015835
X00279Y0013335
X00737409Y00137424
X00762Y0013335
X00758275Y00157997
X00784289Y00144509
X007795Y001156
X00750527Y00111222
X01245Y0013335
X0127
Y0010835
X01295Y0013335
X0127Y0015835
X0139954Y0063754
X0142494
Y0066294
X0139954
X0137414
Y0063754
X0134874
Y0066294
T05
X00072898Y0015875
X01452118
Y004826
X00072898
M30
