G04*
G04 #@! TF.GenerationSoftware,Altium Limited,Altium Designer,24.2.2 (26)*
G04*
G04 Layer_Physical_Order=3*
G04 Layer_Color=128*
%FSLAX44Y44*%
%MOMM*%
G71*
G04*
G04 #@! TF.SameCoordinates,6AE4F847-9EFA-45B8-A2EA-998FC1DA7BFA*
G04*
G04*
G04 #@! TF.FilePolarity,Negative*
G04*
G01*
G75*
%ADD10C,0.2540*%
%ADD15C,1.0160*%
%ADD18C,2.0320*%
G04:AMPARAMS|DCode=22|XSize=2.54mm|YSize=2.54mm|CornerRadius=0mm|HoleSize=0mm|Usage=FLASHONLY|Rotation=0.000|XOffset=0mm|YOffset=0mm|HoleType=Round|Shape=Relief|Width=0.254mm|Gap=0.254mm|Entries=4|*
%AMTHD22*
7,0,0,2.5400,2.0320,0.2540,45*
%
%ADD22THD22*%
G04:AMPARAMS|DCode=23|XSize=2.794mm|YSize=2.794mm|CornerRadius=0mm|HoleSize=0mm|Usage=FLASHONLY|Rotation=0.000|XOffset=0mm|YOffset=0mm|HoleType=Round|Shape=Relief|Width=0.254mm|Gap=0.254mm|Entries=4|*
%AMTHD23*
7,0,0,2.7940,2.2860,0.2540,45*
%
%ADD23THD23*%
%ADD24C,2.2860*%
%ADD25C,2.0828*%
%ADD26C,4.1910*%
%ADD27C,1.7272*%
G04:AMPARAMS|DCode=28|XSize=2.2352mm|YSize=2.2352mm|CornerRadius=0mm|HoleSize=0mm|Usage=FLASHONLY|Rotation=0.000|XOffset=0mm|YOffset=0mm|HoleType=Round|Shape=Relief|Width=0.254mm|Gap=0.254mm|Entries=4|*
%AMTHD28*
7,0,0,2.2352,1.7272,0.2540,45*
%
%ADD28THD28*%
D10*
X589280Y190500D02*
X762000D01*
X568960Y170180D02*
X589280Y190500D01*
X490220Y170180D02*
X568960D01*
X464820Y144780D02*
X490220Y170180D01*
X241300Y144780D02*
X464820D01*
X233680Y152400D02*
X241300Y144780D01*
X233680Y152400D02*
Y175260D01*
X459740D01*
X474980Y190500D01*
X546100D01*
X762000D02*
Y693420D01*
X431800D02*
X762000D01*
X546100Y190500D02*
Y482600D01*
X431800Y622300D02*
X546100Y482600D01*
X431800Y622300D02*
Y693420D01*
D15*
X-1270Y-1270D02*
Y712470D01*
X1525270D01*
Y-1270D02*
Y712470D01*
X-1270Y-1270D02*
X1525270D01*
D18*
X787400Y586740D02*
D03*
X457200Y675640D02*
D03*
Y650240D02*
D03*
X1310640Y558800D02*
D03*
X1234694Y470408D02*
D03*
X1168654D02*
D03*
X1041654D02*
D03*
X978154D02*
D03*
X812800Y586740D02*
D03*
X1236980Y205740D02*
D03*
X939800Y177800D02*
D03*
X376174Y470408D02*
D03*
X312928D02*
D03*
X185674D02*
D03*
X122174D02*
D03*
X243078Y226568D02*
D03*
X439420Y195326D02*
D03*
X914400Y177800D02*
D03*
X889000D02*
D03*
X217678Y226568D02*
D03*
X192278D02*
D03*
X127000Y650240D02*
D03*
X152400D02*
D03*
X980440D02*
D03*
X1005840D02*
D03*
X1209040D02*
D03*
X1158240D02*
D03*
X1183640D02*
D03*
X317246D02*
D03*
X342646D02*
D03*
X1186180Y205740D02*
D03*
X1211580D02*
D03*
X388620Y195326D02*
D03*
X414020D02*
D03*
X1363980Y261620D02*
D03*
X1338580D02*
D03*
X1363980Y322580D02*
D03*
X1338580D02*
D03*
X1363980Y207010D02*
D03*
X1338580D02*
D03*
X1363980Y441960D02*
D03*
X1338580D02*
D03*
X1363980Y381000D02*
D03*
X1338580D02*
D03*
X1361440Y500380D02*
D03*
X1310640D02*
D03*
X1336040D02*
D03*
X1361440Y558800D02*
D03*
X1336040D02*
D03*
X1041146Y504952D02*
D03*
X1041400Y543560D02*
D03*
X1041146Y611632D02*
D03*
X1168146D02*
D03*
Y504952D02*
D03*
X1168400Y543560D02*
D03*
X1234694Y363728D02*
D03*
X1234440Y431800D02*
D03*
X762000Y675640D02*
D03*
X736600D02*
D03*
X533400D02*
D03*
X838200D02*
D03*
X533400Y650240D02*
D03*
X508000Y675640D02*
D03*
Y650240D02*
D03*
X863600D02*
D03*
Y675640D02*
D03*
X482600D02*
D03*
X558800D02*
D03*
X584200D02*
D03*
X609600D02*
D03*
X635000D02*
D03*
X660400D02*
D03*
X685800D02*
D03*
X711200D02*
D03*
X787400D02*
D03*
X558800Y650240D02*
D03*
X584200D02*
D03*
X609600D02*
D03*
X635000D02*
D03*
X660400D02*
D03*
X685800D02*
D03*
X711200D02*
D03*
X736600D02*
D03*
X762000D02*
D03*
X787400D02*
D03*
X812800D02*
D03*
X838200D02*
D03*
X1104900Y431800D02*
D03*
X1105154Y363728D02*
D03*
Y470408D02*
D03*
X911860Y431800D02*
D03*
X912114Y363728D02*
D03*
Y470408D02*
D03*
X312928Y363728D02*
D03*
X312674Y431800D02*
D03*
X121666Y504952D02*
D03*
Y611632D02*
D03*
X121920Y543560D02*
D03*
X185166Y611632D02*
D03*
X185420Y543560D02*
D03*
X185166Y504952D02*
D03*
X248920Y431800D02*
D03*
X249174Y470408D02*
D03*
Y363728D02*
D03*
X439420Y431800D02*
D03*
X439674Y470408D02*
D03*
Y363728D02*
D03*
X312166Y614172D02*
D03*
X312420Y546100D02*
D03*
X312166Y507492D02*
D03*
X977646Y504952D02*
D03*
Y611632D02*
D03*
X977900Y543560D02*
D03*
Y431800D02*
D03*
X978154Y363728D02*
D03*
X375666Y611632D02*
D03*
X375920Y543560D02*
D03*
X375666Y504952D02*
D03*
X375920Y431800D02*
D03*
X376174Y363728D02*
D03*
X185420Y431800D02*
D03*
X185674Y363728D02*
D03*
X121920Y431800D02*
D03*
X122174Y363728D02*
D03*
X1041400Y431800D02*
D03*
X1041654Y363728D02*
D03*
X1234186Y543560D02*
D03*
X1233932Y504952D02*
D03*
Y611632D02*
D03*
X1168400Y431800D02*
D03*
X1168654Y363728D02*
D03*
D22*
X1234440Y650240D02*
D03*
X1031240D02*
D03*
X368046D02*
D03*
X177800D02*
D03*
X482600D02*
D03*
D23*
X254000Y158350D02*
D03*
D24*
Y108350D02*
D03*
X1374140Y637540D02*
D03*
X1270000Y108350D02*
D03*
X279000Y133350D02*
D03*
X229000D02*
D03*
X254000D02*
D03*
X1348740Y637540D02*
D03*
X1424940D02*
D03*
Y662940D02*
D03*
X1348740D02*
D03*
X1374140D02*
D03*
X1399540D02*
D03*
Y637540D02*
D03*
X762000Y133350D02*
D03*
X737409Y137424D02*
D03*
X758275Y157997D02*
D03*
X750527Y111222D02*
D03*
X779500Y115600D02*
D03*
X784289Y144509D02*
D03*
X1270000Y133350D02*
D03*
X1295000D02*
D03*
X1245000D02*
D03*
X1270000Y158350D02*
D03*
D25*
X812800Y675640D02*
D03*
D26*
X1452118Y158750D02*
D03*
Y482600D02*
D03*
X72898D02*
D03*
Y158750D02*
D03*
D27*
X299847Y445335D02*
D03*
X429895Y554301D02*
D03*
X1089787Y510213D02*
D03*
X546100Y235966D02*
D03*
X416560Y125476D02*
D03*
X906145Y322199D02*
D03*
X1363980Y301244D02*
D03*
X690880Y446786D02*
D03*
X571500Y521716D02*
D03*
X220472Y317754D02*
D03*
X495300Y304038D02*
D03*
X967740Y328422D02*
D03*
X810260Y476250D02*
D03*
X384048Y567944D02*
D03*
X838708Y524510D02*
D03*
X526288Y633476D02*
D03*
X943102Y641858D02*
D03*
X1320038Y213360D02*
D03*
X721106Y419608D02*
D03*
X705612Y500126D02*
D03*
X953770Y670052D02*
D03*
X866140Y22860D02*
D03*
X514350Y292100D02*
D03*
X630428Y444246D02*
D03*
X774700Y334264D02*
D03*
X637540Y525780D02*
D03*
X774700Y497332D02*
D03*
X439928Y656336D02*
D03*
X490220Y144780D02*
D03*
X1208786Y236220D02*
D03*
X1291336Y200152D02*
D03*
X812800Y249682D02*
D03*
X972820Y231140D02*
D03*
X571500Y387858D02*
D03*
X548640Y419608D02*
D03*
X751332Y486918D02*
D03*
X795020Y476701D02*
D03*
X379222Y216408D02*
D03*
X543052Y525272D02*
D03*
X609854Y540766D02*
D03*
X662940Y485648D02*
D03*
X591820Y527460D02*
D03*
X666242Y506222D02*
D03*
X571500Y488442D02*
D03*
X482600Y393446D02*
D03*
X599440Y485648D02*
D03*
X702564Y497078D02*
D03*
X591820Y343108D02*
D03*
X934720Y200660D02*
D03*
X1054100Y205740D02*
D03*
X1079500Y277622D02*
D03*
X823214Y293878D02*
D03*
X858520Y294640D02*
D03*
X881126Y326390D02*
D03*
X900176Y345440D02*
D03*
X823214Y434340D02*
D03*
X955040Y292100D02*
D03*
X923290Y245110D02*
D03*
X960247Y543887D02*
D03*
X1259840Y309880D02*
D03*
X1024636Y398780D02*
D03*
X1096264Y593090D02*
D03*
X546100Y20320D02*
D03*
X39878Y264922D02*
D03*
X148844Y329946D02*
D03*
X212598Y264922D02*
D03*
X244602Y318262D02*
D03*
X166116Y403860D02*
D03*
X202184Y403606D02*
D03*
X361696Y329946D02*
D03*
X152400Y462280D02*
D03*
X457708Y262128D02*
D03*
X404368Y312166D02*
D03*
X215900Y462280D02*
D03*
X356362Y403860D02*
D03*
X482600Y218388D02*
D03*
X566420Y88900D02*
D03*
X423418Y403606D02*
D03*
X342646Y462026D02*
D03*
X409702Y460756D02*
D03*
X632460Y20320D02*
D03*
X520700Y343108D02*
D03*
X624840Y146050D02*
D03*
X619760Y165100D02*
D03*
X707390Y26670D02*
D03*
X520700Y527460D02*
D03*
X769620Y22860D02*
D03*
X839470Y26670D02*
D03*
X774700Y218440D02*
D03*
X800100Y294329D02*
D03*
X919480Y30480D02*
D03*
X883920Y119380D02*
D03*
X863600Y248920D02*
D03*
X805180Y403860D02*
D03*
X975360Y30480D02*
D03*
X939800Y119380D02*
D03*
X1017270Y30480D02*
D03*
X958596Y403606D02*
D03*
X942340Y459740D02*
D03*
X1064260Y307340D02*
D03*
X1008380Y513080D02*
D03*
X1130300Y231140D02*
D03*
X1149096Y401066D02*
D03*
X1135380Y457200D02*
D03*
X1217676Y401320D02*
D03*
X1201420Y457200D02*
D03*
X533400Y292348D02*
D03*
X558800Y218388D02*
D03*
Y403606D02*
D03*
X533400Y476701D02*
D03*
X703580Y218440D02*
D03*
X723900Y294329D02*
D03*
X701040Y401320D02*
D03*
X723900Y476701D02*
D03*
X787400Y345088D02*
D03*
Y527460D02*
D03*
D28*
X858520Y398780D02*
D03*
X118364Y274066D02*
D03*
X764540Y76200D02*
D03*
X839470Y71120D02*
D03*
X535940Y408686D02*
D03*
X525780Y435460D02*
D03*
X612140Y403606D02*
D03*
Y223468D02*
D03*
X805180Y568700D02*
D03*
X596900Y251108D02*
D03*
Y435460D02*
D03*
X756920Y218440D02*
D03*
X738124Y416481D02*
D03*
X754380Y401320D02*
D03*
X723900Y568700D02*
D03*
X39878Y318262D02*
D03*
X336296Y274066D02*
D03*
X384302Y269748D02*
D03*
X485140Y11430D02*
D03*
X523240Y66040D02*
D03*
X535940Y218388D02*
D03*
X579120Y53340D02*
D03*
X599440Y25400D02*
D03*
X520700Y251108D02*
D03*
X657860Y20320D02*
D03*
X707390Y60960D02*
D03*
X828040Y218440D02*
D03*
X861060Y76200D02*
D03*
X800100Y386328D02*
D03*
X919480Y55880D02*
D03*
X883920Y68580D02*
D03*
X993140Y287020D02*
D03*
X1008380Y459740D02*
D03*
X1155700Y287020D02*
D03*
X1249680Y256540D02*
D03*
M02*
