G04*
G04 #@! TF.GenerationSoftware,Altium Limited,Altium Designer,23.7.1 (13)*
G04*
G04 Layer_Color=2752767*
%FSLAX25Y25*%
%MOIN*%
G70*
G04*
G04 #@! TF.SameCoordinates,F93C5CF8-F1E6-457C-8DD9-1DD3DA4D7B1B*
G04*
G04*
G04 #@! TF.FilePolarity,Positive*
G04*
G01*
G75*
%ADD32C,0.00667*%
D32*
X162500Y-122000D02*
G03*
X162500Y-122000I-2000J0D01*
G01*
X172500D02*
G03*
X172500Y-122000I-2000J0D01*
G01*
X167500D02*
G03*
X167500Y-122000I-2000J0D01*
G01*
X177500D02*
G03*
X177500Y-122000I-2000J0D01*
G01*
X111000Y-163000D02*
G03*
X111000Y-163000I-2000J0D01*
G01*
Y-113000D02*
G03*
X111000Y-113000I-2000J0D01*
G01*
X90000Y-153500D02*
G03*
X90000Y-153500I-2000J0D01*
G01*
Y-143500D02*
G03*
X90000Y-143500I-2000J0D01*
G01*
Y-133500D02*
G03*
X90000Y-133500I-2000J0D01*
G01*
Y-123500D02*
G03*
X90000Y-123500I-2000J0D01*
G01*
Y-113500D02*
G03*
X90000Y-113500I-2000J0D01*
G01*
Y-103500D02*
G03*
X90000Y-103500I-2000J0D01*
G01*
Y-93500D02*
G03*
X90000Y-93500I-2000J0D01*
G01*
Y-83500D02*
G03*
X90000Y-83500I-2000J0D01*
G01*
Y-73500D02*
G03*
X90000Y-73500I-2000J0D01*
G01*
Y-63500D02*
G03*
X90000Y-63500I-2000J0D01*
G01*
Y-53500D02*
G03*
X90000Y-53500I-2000J0D01*
G01*
Y-43500D02*
G03*
X90000Y-43500I-2000J0D01*
G01*
X20000Y-153500D02*
G03*
X20000Y-153500I-2000J0D01*
G01*
Y-143500D02*
G03*
X20000Y-143500I-2000J0D01*
G01*
Y-133500D02*
G03*
X20000Y-133500I-2000J0D01*
G01*
Y-123500D02*
G03*
X20000Y-123500I-2000J0D01*
G01*
Y-113500D02*
G03*
X20000Y-113500I-2000J0D01*
G01*
Y-103500D02*
G03*
X20000Y-103500I-2000J0D01*
G01*
Y-93500D02*
G03*
X20000Y-93500I-2000J0D01*
G01*
Y-83500D02*
G03*
X20000Y-83500I-2000J0D01*
G01*
Y-73500D02*
G03*
X20000Y-73500I-2000J0D01*
G01*
Y-63500D02*
G03*
X20000Y-63500I-2000J0D01*
G01*
Y-53500D02*
G03*
X20000Y-53500I-2000J0D01*
G01*
Y-43500D02*
G03*
X20000Y-43500I-2000J0D01*
G01*
X185500Y-29000D02*
G03*
X185500Y-29000I-2000J0D01*
G01*
X175500D02*
G03*
X175500Y-29000I-2000J0D01*
G01*
X111000Y-42500D02*
G03*
X111000Y-42500I-2000J0D01*
G01*
Y-92500D02*
G03*
X111000Y-92500I-2000J0D01*
G01*
X129000Y-163500D02*
G03*
X129000Y-163500I-2000J0D01*
G01*
Y-113500D02*
G03*
X129000Y-113500I-2000J0D01*
G01*
X152500Y-47000D02*
G03*
X152500Y-47000I-2000J0D01*
G01*
Y-67000D02*
G03*
X152500Y-67000I-2000J0D01*
G01*
X131500Y-47000D02*
G03*
X131500Y-47000I-2000J0D01*
G01*
Y-67000D02*
G03*
X131500Y-67000I-2000J0D01*
G01*
X146500Y-163500D02*
G03*
X146500Y-163500I-2000J0D01*
G01*
Y-113500D02*
G03*
X146500Y-113500I-2000J0D01*
G01*
M02*
