G04*
G04 #@! TF.GenerationSoftware,Altium Limited,Altium Designer,23.7.1 (13)*
G04*
G04 Layer_Physical_Order=2*
G04 Layer_Color=16711680*
%FSLAX25Y25*%
%MOIN*%
G70*
G04*
G04 #@! TF.SameCoordinates,F93C5CF8-F1E6-457C-8DD9-1DD3DA4D7B1B*
G04*
G04*
G04 #@! TF.FilePolarity,Positive*
G04*
G01*
G75*
%ADD16C,0.07000*%
%ADD22O,0.03937X0.07874*%
%ADD23O,0.03937X0.07874*%
%ADD24C,0.06200*%
%ADD25C,0.05906*%
%ADD26R,0.05906X0.05906*%
%ADD27C,0.07284*%
%ADD28R,0.07284X0.07284*%
%ADD29C,0.03000*%
%ADD30C,0.01500*%
D16*
X88000Y-153500D02*
D03*
Y-143500D02*
D03*
Y-133500D02*
D03*
Y-123500D02*
D03*
Y-113500D02*
D03*
Y-103500D02*
D03*
Y-93500D02*
D03*
Y-83500D02*
D03*
Y-73500D02*
D03*
Y-63500D02*
D03*
Y-53500D02*
D03*
Y-43500D02*
D03*
X18000Y-153500D02*
D03*
Y-143500D02*
D03*
Y-133500D02*
D03*
Y-123500D02*
D03*
Y-113500D02*
D03*
Y-103500D02*
D03*
Y-93500D02*
D03*
Y-83500D02*
D03*
Y-73500D02*
D03*
Y-63500D02*
D03*
Y-53500D02*
D03*
Y-43500D02*
D03*
D22*
X160500Y-122000D02*
D03*
X170500D02*
D03*
X175500D02*
D03*
D23*
X165500D02*
D03*
D24*
X109000Y-163000D02*
D03*
Y-113000D02*
D03*
Y-42500D02*
D03*
Y-92500D02*
D03*
X127000Y-163500D02*
D03*
Y-113500D02*
D03*
X129500Y-47000D02*
D03*
Y-67000D02*
D03*
X144500Y-163500D02*
D03*
Y-113500D02*
D03*
D25*
X183500Y-29000D02*
D03*
D26*
X173500D02*
D03*
D27*
X150500Y-47000D02*
D03*
D28*
Y-67000D02*
D03*
D29*
X183321Y-29179D02*
X183500Y-29000D01*
X183321Y-33179D02*
Y-29179D01*
X129500Y-96500D02*
Y-67000D01*
X88000Y-74308D02*
Y-73500D01*
Y-74308D02*
X98000Y-84308D01*
Y-93000D02*
X106000Y-101000D01*
X150500Y-95500D02*
Y-66000D01*
X183321Y-33179D01*
X145000Y-101000D02*
X150500Y-95500D01*
X165469Y-121968D02*
Y-117973D01*
X145000Y-101000D02*
X159063Y-115063D01*
X106000Y-101000D02*
X125000D01*
X145000D01*
X68000Y-53500D02*
X88000Y-73500D01*
X18000Y-53500D02*
X68000D01*
X98000Y-93000D02*
Y-84308D01*
X159063Y-115063D02*
X162558D01*
X165469Y-121968D02*
X165500Y-122000D01*
X125000Y-101000D02*
X129500Y-96500D01*
X103000Y-58500D02*
X150000D01*
X109000Y-92500D02*
Y-64500D01*
X103000Y-58500D02*
X109000Y-64500D01*
X162558Y-115063D02*
X165469Y-117973D01*
X150000Y-58500D02*
X173500Y-35000D01*
Y-29000D01*
X88000Y-43500D02*
X103000Y-58500D01*
D30*
X78879Y-37500D02*
X104000D01*
X144500Y-163500D02*
Y-155177D01*
X171500Y-131500D02*
X175500Y-127500D01*
X78000Y-43500D02*
Y-38379D01*
X88250Y-133500D02*
X108750Y-113000D01*
X127000Y-114000D02*
Y-113500D01*
X88000Y-143500D02*
X123350Y-108150D01*
X88000Y-133500D02*
X88250D01*
X123350Y-108150D02*
X139150D01*
X144500Y-113500D01*
X88000Y-153000D02*
X127000Y-114000D01*
X88000Y-153500D02*
Y-153000D01*
X108750Y-113000D02*
X109000D01*
X78000Y-43500D02*
X88000Y-53500D01*
X104000Y-37500D02*
X109000Y-42500D01*
X78000Y-38379D02*
X78879Y-37500D01*
X127416Y-163084D02*
X132350D01*
X170034Y-125401D02*
Y-122466D01*
X170500Y-122000D01*
X132850Y-158150D02*
X160500Y-130500D01*
X127000Y-163500D02*
X127416Y-163084D01*
X175500Y-127500D02*
Y-122000D01*
X168177Y-131500D02*
X171500D01*
X160500Y-130500D02*
Y-122000D01*
X109000Y-163000D02*
X113850Y-158150D01*
X132850D01*
X144500Y-155177D02*
X168177Y-131500D01*
X125000Y-42500D02*
X129500Y-47000D01*
X109000Y-42500D02*
X125000D01*
X129500Y-47000D02*
X150500D01*
X157717Y-137717D02*
X170034Y-125401D01*
X132350Y-163084D02*
X157717Y-137717D01*
M02*
