G04*
G04 #@! TF.GenerationSoftware,Altium Limited,Altium Designer,23.7.1 (13)*
G04*
G04 Layer_Color=65535*
%FSLAX25Y25*%
%MOIN*%
G70*
G04*
G04 #@! TF.SameCoordinates,F93C5CF8-F1E6-457C-8DD9-1DD3DA4D7B1B*
G04*
G04*
G04 #@! TF.FilePolarity,Positive*
G04*
G01*
G75*
%ADD10C,0.01000*%
%ADD11C,0.00984*%
%ADD12C,0.01200*%
%ADD13C,0.00787*%
D10*
X156628Y-127242D02*
G03*
X156639Y-116535I10972J5342D01*
G01*
X156628Y-127242D02*
X156639Y-116535D01*
X68800Y-26500D02*
Y-19000D01*
X37200D02*
X68800D01*
X37200Y-26500D02*
Y-19000D01*
X12500Y-26500D02*
X37200D01*
X68800D02*
X93500D01*
X12500Y-158500D02*
Y-26500D01*
X93500Y-158500D02*
Y-26500D01*
X87500Y-170500D02*
X93500Y-158500D01*
X18500Y-170500D02*
X87500D01*
X12500Y-158500D02*
X18500Y-170500D01*
X157100Y-100202D02*
Y-106200D01*
X160099D01*
X161099Y-105200D01*
Y-101202D01*
X160099Y-100202D01*
X157100D01*
X163098Y-106200D02*
X165097D01*
X164098D01*
Y-100202D01*
X163098Y-101202D01*
X104400Y-106500D02*
Y-100502D01*
X107399D01*
X108399Y-101502D01*
Y-103501D01*
X107399Y-104501D01*
X104400D01*
X106399D02*
X108399Y-106500D01*
X114397D02*
X110398D01*
X114397Y-102501D01*
Y-101502D01*
X113397Y-100502D01*
X111398D01*
X110398Y-101502D01*
X13000Y-9502D02*
Y-14500D01*
X14000Y-15500D01*
X15999D01*
X16999Y-14500D01*
Y-9502D01*
X18998Y-15500D02*
X20997D01*
X19998D01*
Y-9502D01*
X18998Y-10502D01*
X173099Y-14602D02*
X171099D01*
X172099D01*
Y-19600D01*
X171099Y-20600D01*
X170100D01*
X169100Y-19600D01*
X175098Y-20600D02*
Y-14602D01*
X178097D01*
X179097Y-15602D01*
Y-17601D01*
X178097Y-18601D01*
X175098D01*
X181096Y-20600D02*
X183096D01*
X182096D01*
Y-14602D01*
X181096Y-15602D01*
X104400Y-36000D02*
Y-30002D01*
X107399D01*
X108399Y-31002D01*
Y-33001D01*
X107399Y-34001D01*
X104400D01*
X106399D02*
X108399Y-36000D01*
X110398D02*
X112397D01*
X111398D01*
Y-30002D01*
X110398Y-31002D01*
X122400Y-107000D02*
Y-101002D01*
X125399D01*
X126399Y-102002D01*
Y-104001D01*
X125399Y-105001D01*
X122400D01*
X124399D02*
X126399Y-107000D01*
X128398Y-102002D02*
X129398Y-101002D01*
X131397D01*
X132397Y-102002D01*
Y-103001D01*
X131397Y-104001D01*
X130397D01*
X131397D01*
X132397Y-105001D01*
Y-106000D01*
X131397Y-107000D01*
X129398D01*
X128398Y-106000D01*
X149599Y-31802D02*
X148599Y-30802D01*
X146600D01*
X145600Y-31802D01*
Y-32801D01*
X146600Y-33801D01*
X148599D01*
X149599Y-34801D01*
Y-35800D01*
X148599Y-36800D01*
X146600D01*
X145600Y-35800D01*
X151598Y-36800D02*
X153597D01*
X152598D01*
Y-30802D01*
X151598Y-31802D01*
X126399Y-30902D02*
X125399Y-29902D01*
X123400D01*
X122400Y-30902D01*
Y-34900D01*
X123400Y-35900D01*
X125399D01*
X126399Y-34900D01*
X128398Y-35900D02*
X130397D01*
X129398D01*
Y-29902D01*
X128398Y-30902D01*
X139900Y-107000D02*
Y-101002D01*
X142899D01*
X143899Y-102002D01*
Y-104001D01*
X142899Y-105001D01*
X139900D01*
X141899D02*
X143899Y-107000D01*
X148897D02*
Y-101002D01*
X145898Y-104001D01*
X149897D01*
D11*
X150996Y-75744D02*
G03*
X150996Y-75744I-492J0D01*
G01*
D12*
X104000Y-123000D02*
X114000D01*
X104000Y-153000D02*
X114000D01*
X109000Y-122900D02*
Y-119000D01*
Y-157100D02*
Y-153000D01*
X114000D02*
Y-123000D01*
X104000Y-153000D02*
Y-123000D01*
Y-82500D02*
X114000D01*
X104000Y-52500D02*
X114000D01*
X109000Y-86500D02*
Y-82600D01*
Y-52500D02*
Y-48400D01*
X104000Y-82500D02*
Y-52500D01*
X114000Y-82500D02*
Y-52500D01*
X122000Y-123500D02*
X132000D01*
X122000Y-153500D02*
X132000D01*
X127000Y-123400D02*
Y-119500D01*
Y-157600D02*
Y-153500D01*
X132000D02*
Y-123500D01*
X122000Y-153500D02*
Y-123500D01*
Y-39500D02*
X137000D01*
X122000Y-74500D02*
X137000D01*
Y-39500D01*
X122000Y-74500D02*
Y-39500D01*
X139500Y-123500D02*
X149500D01*
X139500Y-153500D02*
X149500D01*
X144500Y-123400D02*
Y-119500D01*
Y-157600D02*
Y-153500D01*
X149500D02*
Y-123500D01*
X139500Y-153500D02*
Y-123500D01*
D13*
X168500Y-24000D02*
X188500D01*
X168500Y-34000D02*
Y-24000D01*
Y-34000D02*
X188500D01*
Y-24000D01*
X145000Y-73850D02*
X156000D01*
Y-40150D01*
X145000D02*
X156000D01*
X145000Y-73850D02*
Y-40150D01*
M02*
