G04*
G04 #@! TF.GenerationSoftware,Altium Limited,Altium Designer,23.7.1 (13)*
G04*
G04 Layer_Color=8388736*
%FSLAX25Y25*%
%MOIN*%
G70*
G04*
G04 #@! TF.SameCoordinates,F93C5CF8-F1E6-457C-8DD9-1DD3DA4D7B1B*
G04*
G04*
G04 #@! TF.FilePolarity,Negative*
G04*
G01*
G75*
%ADD14O,0.04737X0.08674*%
%ADD15O,0.04737X0.08674*%
%ADD16C,0.07000*%
%ADD17C,0.07800*%
%ADD18C,0.06706*%
%ADD19R,0.06706X0.06706*%
%ADD20C,0.08083*%
%ADD21R,0.08083X0.08083*%
D14*
X160500Y-122000D02*
D03*
X170500D02*
D03*
X175500D02*
D03*
D15*
X165500D02*
D03*
D16*
X109000Y-163000D02*
D03*
Y-113000D02*
D03*
Y-42500D02*
D03*
Y-92500D02*
D03*
X127000Y-163500D02*
D03*
Y-113500D02*
D03*
X129500Y-47000D02*
D03*
Y-67000D02*
D03*
X144500Y-163500D02*
D03*
Y-113500D02*
D03*
D17*
X88000Y-153500D02*
D03*
Y-143500D02*
D03*
Y-133500D02*
D03*
Y-123500D02*
D03*
Y-113500D02*
D03*
Y-103500D02*
D03*
Y-93500D02*
D03*
Y-83500D02*
D03*
Y-73500D02*
D03*
Y-63500D02*
D03*
Y-53500D02*
D03*
Y-43500D02*
D03*
X18000Y-153500D02*
D03*
Y-143500D02*
D03*
Y-133500D02*
D03*
Y-123500D02*
D03*
Y-113500D02*
D03*
Y-103500D02*
D03*
Y-93500D02*
D03*
Y-83500D02*
D03*
Y-73500D02*
D03*
Y-63500D02*
D03*
Y-53500D02*
D03*
Y-43500D02*
D03*
D18*
X183500Y-29000D02*
D03*
D19*
X173500D02*
D03*
D20*
X150500Y-47000D02*
D03*
D21*
Y-67000D02*
D03*
M02*
