M48
;Layer_Color=9474304
;FILE_FORMAT=2:5
INCH,LZ
;TYPE=PLATED
T01F00S00C0.03200
%
T01
X0018Y-01535
Y-01435
Y-01335
Y-01235
Y-01135
Y-01035
Y-00935
Y-00835
Y-00735
Y-00635
Y-00535
Y-00435
X0088
Y-00535
Y-00635
Y-00735
Y-00835
Y-00935
Y-01035
Y-01135
Y-01235
Y-01335
Y-01435
Y-01535
X0109Y-0163
Y-0113
Y-00925
Y-00425
X01295Y-0047
Y-0067
X01505
Y-0047
X01735Y-0029
X01835
X01755Y-0122
X01705
X01655
X01605
X01445Y-01135
X0127
Y-01635
X01445
M30
